M48
; DRILL file {KiCad 9.0.3-9.0.3-0~ubuntu24.04.1} date 2025-07-25T17:13:23+0200
; FORMAT={-:-/ absolute / metric / decimal}
; #@! TF.CreationDate,2025-07-25T17:13:23+02:00
; #@! TF.GenerationSoftware,Kicad,Pcbnew,9.0.3-9.0.3-0~ubuntu24.04.1
; #@! TF.FileFunction,Plated,1,6,PTH
FMAT,2
METRIC
; #@! TA.AperFunction,Plated,PTH,ViaDrill
T1C0.200
; #@! TA.AperFunction,Plated,PTH,ViaDrill
T2C0.350
; #@! TA.AperFunction,Plated,PTH,ComponentDrill
T3C0.600
; #@! TA.AperFunction,Plated,PTH,ComponentDrill
T4C0.700
; #@! TA.AperFunction,Plated,PTH,ComponentDrill
T5C0.900
; #@! TA.AperFunction,Plated,PTH,ComponentDrill
T6C0.900
; #@! TA.AperFunction,Plated,PTH,ComponentDrill
T7C0.910
; #@! TA.AperFunction,Plated,PTH,ComponentDrill
T8C1.000
; #@! TA.AperFunction,Plated,PTH,ComponentDrill
T9C1.020
; #@! TA.AperFunction,Plated,PTH,ComponentDrill
T10C1.100
; #@! TA.AperFunction,Plated,PTH,ComponentDrill
T11C1.500
; #@! TA.AperFunction,Plated,PTH,ComponentDrill
T12C1.600
; #@! TA.AperFunction,Plated,PTH,ComponentDrill
T13C1.700
%
G90
G05
T1
X47.175Y-70.72
X47.18Y-67.18
X47.25Y-75.18
X47.25Y-76.3
X47.28Y-73.41
X47.31Y-95.45
X47.93Y-76.32
X48.15Y-95.5
X48.68Y-70.48
X48.96Y-76.33
X49.07Y-114.42
X49.16Y-73.37
X49.2Y-75.18
X49.24Y-69.07
X49.33Y-67.72
X49.37Y-94.325
X49.42Y-70.48
X49.85Y-117.12
X49.875Y-121.545
X51.325Y-70.72
X51.33Y-67.18
X60.11Y-116.6
X63.183Y-115.082
X63.33Y-114.63
X63.98Y-84.31
X64.26Y-117.94
X64.37Y-84.673
X64.63Y-85.08
X64.72Y-88.13
X65.01Y-117.757
X65.04Y-86.36
X65.05Y-109.99
X65.31Y-88.13
X65.31Y-116.282
X65.343Y-84.06
X65.39Y-90.828
X65.58Y-86.66
X65.8Y-79.3
X65.907Y-110.582
X66.13Y-55.6
X66.195Y-116.425
X66.28Y-58.345
X66.33Y-89.89
X66.36Y-57.36
X66.468Y-82.585
X66.468Y-84.085
X66.5Y-80.485
X66.55Y-89.252
X66.58Y-79.09
X66.59Y-136.02
X66.59Y-143.78
X66.68Y-119.09
X66.81Y-89.9
X66.954Y-120.554
X66.99Y-145.85
X67.15Y-135.45
X67.21Y-111.05
X67.21Y-117.757
X67.42Y-111.71
X67.45Y-134.77
X67.54Y-67.91
X67.55Y-85.31
X67.56Y-68.56
X67.57Y-55.56
X67.73Y-87.73
X67.73Y-88.37
X67.73Y-130.44
X67.74Y-131.16
X67.75Y-126.17
X67.77Y-126.96
X67.985Y-58.515
X68.01Y-91.52
X68.04Y-58.08
X68.1Y-86.28
X68.11Y-77.92
X68.12Y-84.17
X68.125Y-90.555
X68.37Y-83.04
X68.38Y-114.64
X68.477Y-115.105
X68.48Y-111.05
X68.48Y-117.757
X68.6Y-68.57
X68.61Y-67.93
X68.655Y-90.36
X68.77Y-111.71
X69.043Y-82.905
X69.09Y-116.94
X69.11Y-117.59
X69.14Y-58.47
X69.155Y-81.897
X69.155Y-90.62
X69.19Y-87.2
X69.32Y-83.84
X69.6Y-119.08
X69.642Y-88.385
X69.75Y-117.757
X69.905Y-85.335
X70.02Y-111.97
X70.13Y-81.41
X70.505Y-61.095
X70.55Y-58.08
X70.64Y-81.7
X70.65Y-65.87
X70.68Y-109.45
X70.98Y-81.15
X71.155Y-81.897
X71.19Y-62.53
X71.26Y-84.26
X71.365Y-116.977
X71.43Y-117.86
X71.45Y-118.63
X71.6Y-87.23
X71.655Y-81.897
X71.74Y-81.15
X71.87Y-116.18
X71.91Y-79.03
X71.955Y-60.89
X72.01Y-77.2
X72.01Y-77.7
X72.04Y-84.59
X72.04Y-87.08
X72.11Y-80.4
X72.13Y-86.16
X72.14Y-85.55
X72.155Y-88.772
X72.19Y-111.82
X72.2Y-76.62
X72.38Y-110.512
X72.46Y-82.65
X72.52Y-118.79
X72.55Y-65.49
X72.69Y-63.84
X72.7Y-64.44
X72.71Y-64.96
X72.91Y-145.54
X73.09Y-135.18
X73.142Y-85.51
X73.21Y-108.98
X73.27Y-87.55
X73.28Y-80.81
X73.4Y-108.1
X73.42Y-128.06
X73.65Y-110.512
X73.71Y-81.2
X73.73Y-57.73
X73.88Y-58.34
X74.09Y-75.91
X74.1Y-75.43
X74.25Y-111.73
X74.31Y-83.61
X74.32Y-55.87
X74.4Y-81.6
X74.43Y-80.4
X74.88Y-83.6
X74.91Y-67.61
X74.91Y-68.48
X74.92Y-117.688
X75.16Y-78.99
X75.22Y-55.5
X75.55Y-117.17
X75.56Y-117.67
X75.675Y-77.315
X75.79Y-108.57
X75.9Y-67.59
X75.96Y-68.41
X75.975Y-122.45
X75.975Y-125.712
X75.975Y-127.417
X76.18Y-55.57
X76.19Y-117.688
X76.32Y-57.34
X76.41Y-89.26
X76.41Y-99.43
X76.47Y-108.58
X76.51Y-98.82
X76.52Y-85.44
X76.52Y-97.8
X76.59Y-63.51
X76.6Y-62.64
X76.61Y-60.96
X76.62Y-61.84
X76.63Y-79.12
X76.643Y-93.791
X76.71Y-60.2
X76.74Y-123.18
X76.82Y-96.41
X76.855Y-57.875
X76.925Y-125.712
X76.93Y-97.28
X76.94Y-93.42
X77.09Y-83.085
X77.17Y-110.01
X77.21Y-95.89
X77.36Y-64.18
X77.39Y-84.085
X77.56Y-99.2
X77.58Y-94.56
X77.82Y-65.68
X77.94Y-66.48
X77.98Y-94.29
X78.05Y-98.76
X78.09Y-57.89
X78.15Y-83.085
X78.54Y-80.18
X78.55Y-67.33
X78.57Y-85.17
X78.64Y-98.34
X78.97Y-92.03
X79.29Y-91.61
X79.34Y-88.39
X79.34Y-89.65
X79.35Y-87.45
X79.43Y-97.51
X79.6Y-130.08
X79.61Y-129.16
X79.74Y-97.96
X79.804Y-89.75
X79.82Y-67.91
X79.96Y-98.46
X80.204Y-87.436
X80.48Y-98.43
X80.57Y-87.01
X80.57Y-96.66
X80.8Y-87.47
X80.89Y-103.91
X80.97Y-56.07
X81.12Y-97.81
X81.13Y-97.09
X81.19Y-84.91
X81.3Y-104.34
X81.32Y-105.9
X81.4Y-102.91
X81.43Y-106.48
X81.57Y-84.4
X81.6Y-65.89
X81.63Y-66.8
X81.65Y-97.74
X81.68Y-67.77
X81.73Y-57.26
X81.74Y-128.45
X81.78Y-68.68
X81.78Y-133.23
X81.86Y-69.75
X81.87Y-64.36
X81.88Y-63.84
X81.89Y-103.04
X81.9Y-63.32
X81.9Y-101.66
X81.99Y-86.58
X82.0Y-138.34
X82.04Y-70.97
X82.07Y-104.66
X82.09Y-98.05
X82.16Y-102.13
X82.233Y-80.112
X82.3Y-56.08
X82.31Y-105.17
X82.4Y-95.98
X82.46Y-97.53
X82.57Y-143.25
X82.67Y-57.73
X82.695Y-56.475
X82.81Y-97.96
X82.9Y-81.85
X82.9Y-87.45
X82.9Y-93.85
X82.92Y-102.32
X83.01Y-95.88
X83.087Y-101.86
X83.33Y-103.58
X83.35Y-92.65
X83.354Y-103.106
X83.38Y-86.28
X83.38Y-98.44
X83.54Y-125.76
X83.55Y-55.38
X83.7Y-84.25
X83.7Y-85.05
X83.7Y-91.45
X83.73Y-56.0
X83.94Y-102.46
X83.96Y-101.87
X83.97Y-97.26
X84.03Y-96.7
X84.06Y-86.25
X84.07Y-92.67
X84.08Y-89.43
X84.08Y-104.3
X84.1Y-90.24
X84.1Y-90.98
X84.12Y-91.83
X84.21Y-98.5
X84.21Y-104.83
X84.3Y-64.56
X84.31Y-97.91
X84.37Y-65.05
X84.49Y-96.14
X84.5Y-87.45
X84.7Y-97.62
X84.76Y-58.24
X84.769Y-57.141
X84.797Y-102.115
X84.85Y-91.08
X84.86Y-86.25
X84.89Y-88.66
X84.9Y-92.69
X84.94Y-91.84
X84.95Y-101.65
X84.96Y-98.21
X84.99Y-103.71
X85.01Y-125.14
X85.02Y-61.23
X85.04Y-60.49
X85.06Y-95.56
X85.16Y-116.88
X85.21Y-122.5
X85.27Y-87.45
X85.3Y-89.85
X85.334Y-57.706
X85.483Y-80.227
X85.49Y-103.86
X85.5Y-97.85
X85.51Y-97.29
X85.615Y-96.085
X85.65Y-102.18
X85.665Y-120.43
X85.71Y-87.83
X85.71Y-92.66
X85.84Y-95.15
X86.1Y-91.45
X86.1Y-93.85
X86.21Y-104.71
X86.25Y-102.17
X86.29Y-94.5
X86.31Y-97.61
X86.31Y-124.32
X86.367Y-81.112
X86.38Y-77.4
X86.445Y-75.475
X86.5Y-92.65
X86.505Y-140.37
X86.51Y-91.84
X86.57Y-95.62
X86.571Y-104.401
X86.6Y-95.146
X86.65Y-98.32
X86.86Y-97.56
X86.86Y-127.71
X86.87Y-88.25
X86.89Y-89.765
X86.9Y-86.64
X86.9Y-87.45
X86.9Y-89.05
X86.91Y-122.9
X86.93Y-99.12
X87.0Y-94.73
X87.1Y-64.68
X87.17Y-65.33
X87.2Y-98.33
X87.3Y-91.09
X87.33Y-63.4
X87.34Y-125.76
X87.36Y-91.83
X87.36Y-136.31
X87.38Y-94.351
X87.4Y-62.66
X87.52Y-104.78
X87.535Y-122.61
X87.6Y-105.28
X87.655Y-61.265
X87.655Y-79.8
X87.7Y-85.85
X87.7Y-89.72
X88.01Y-127.79
X88.06Y-91.08
X88.24Y-76.56
X88.28Y-95.49
X88.28Y-96.0
X88.5Y-85.85
X88.5Y-86.65
X88.5Y-87.45
X88.5Y-88.25
X88.5Y-89.05
X88.5Y-91.45
X88.52Y-89.85
X88.572Y-136.485
X88.835Y-122.61
X88.88Y-91.05
X88.89Y-83.83
X88.89Y-92.6
X88.96Y-83.07
X89.13Y-144.61
X89.26Y-55.35
X89.26Y-79.57
X89.26Y-89.85
X89.27Y-103.46
X89.3Y-89.05
X89.3Y-91.45
X89.3Y-104.27
X89.31Y-88.25
X89.32Y-86.64
X89.35Y-80.79
X89.55Y-123.27
X89.67Y-103.81
X89.72Y-91.05
X89.8Y-94.62
X90.0Y-95.34
X90.02Y-85.81
X90.1Y-87.45
X90.1Y-89.05
X90.1Y-89.85
X90.12Y-103.28
X90.135Y-122.61
X90.14Y-56.38
X90.14Y-80.77
X90.15Y-135.83
X90.25Y-65.85
X90.4Y-136.85
X90.43Y-93.33
X90.43Y-103.7
X90.46Y-92.65
X90.47Y-91.02
X90.48Y-91.78
X90.5Y-142.8
X90.51Y-81.42
X90.569Y-104.821
X90.61Y-144.2
X90.745Y-76.545
X90.745Y-78.195
X90.77Y-88.26
X90.845Y-56.35
X90.86Y-85.85
X90.86Y-87.45
X90.89Y-89.05
X90.9Y-86.65
X90.9Y-145.37
X90.91Y-100.81
X90.914Y-103.372
X90.96Y-118.4
X90.98Y-89.8
X90.98Y-127.54
X91.09Y-104.8
X91.13Y-134.93
X91.15Y-137.29
X91.22Y-128.35
X91.26Y-91.85
X91.26Y-92.61
X91.31Y-103.81
X91.31Y-143.52
X91.32Y-90.26
X91.39Y-101.24
X91.435Y-122.61
X91.491Y-125.6
X91.5Y-66.3
X91.54Y-65.58
X91.64Y-117.31
X91.7Y-84.25
X91.7Y-90.65
X91.7Y-94.48
X91.77Y-62.07
X91.77Y-62.69
X91.79Y-63.82
X91.81Y-59.05
X91.82Y-103.7
X91.86Y-101.76
X91.911Y-57.02
X91.911Y-57.59
X91.911Y-58.159
X92.07Y-83.06
X92.07Y-87.05
X92.07Y-91.83
X92.1Y-86.33
X92.11Y-113.92
X92.11Y-144.52
X92.16Y-87.85
X92.262Y-145.054
X92.265Y-104.105
X92.32Y-102.01
X92.4Y-134.17
X92.441Y-58.689
X92.45Y-123.875
X92.5Y-84.25
X92.5Y-85.85
X92.5Y-89.85
X92.5Y-90.65
X92.5Y-91.45
X92.64Y-135.835
X92.707Y-75.238
X92.735Y-115.41
X92.735Y-122.61
X92.78Y-146.01
X92.79Y-114.01
X92.791Y-59.039
X92.86Y-83.01
X92.86Y-143.5
X92.89Y-89.42
X92.951Y-91.873
X92.98Y-61.76
X93.11Y-75.49
X93.205Y-62.815
X93.29Y-86.65
X93.42Y-92.53
X93.474Y-83.45
X93.48Y-76.04
X93.5Y-103.13
X93.65Y-89.41
X93.656Y-85.456
X93.66Y-87.83
X93.68Y-90.23
X93.684Y-84.666
X93.69Y-80.37
X93.71Y-91.07
X93.79Y-58.6
X93.79Y-103.63
X93.82Y-114.0
X94.06Y-123.2
X94.061Y-102.068
X94.1Y-82.65
X94.1Y-84.25
X94.1Y-91.45
X94.147Y-136.152
X94.46Y-101.81
X94.63Y-60.815
X94.63Y-124.09
X94.785Y-140.18
X94.8Y-65.71
X94.8Y-126.4
X94.81Y-66.42
X94.85Y-74.63
X94.852Y-125.477
X94.89Y-117.31
X94.9Y-87.468
X94.9Y-93.85
X94.94Y-93.06
X95.12Y-120.25
X95.49Y-81.51
X95.525Y-127.535
X95.568Y-87.334
X95.73Y-128.35
X95.736Y-86.729
X95.78Y-93.34
X95.8Y-120.67
X95.839Y-73.573
X95.89Y-84.171
X95.9Y-66.62
X95.95Y-65.7
X96.285Y-125.425
X96.42Y-81.57
X96.43Y-60.84
X96.47Y-84.568
X97.15Y-72.41
X97.3Y-85.01
X97.55Y-56.89
X97.65Y-142.82
X97.85Y-58.04
X97.87Y-57.39
X98.11Y-137.49
X98.115Y-56.125
X98.21Y-62.63
X98.25Y-64.35
X98.48Y-71.22
X98.52Y-59.02
X98.54Y-59.79
X98.61Y-88.14
X98.91Y-124.1
X99.09Y-127.95
X99.16Y-52.63
X99.18Y-53.3
X99.3Y-70.18
X99.35Y-59.05
X99.36Y-99.17
X99.4Y-59.79
X99.49Y-141.85
X99.56Y-52.92
X99.71Y-138.75
X99.777Y-99.683
X100.075Y-56.345
X100.075Y-57.695
X100.15Y-69.18
X100.175Y-132.195
X100.34Y-129.24
X100.47Y-53.64
X100.81Y-58.58
X100.96Y-68.26
X101.09Y-65.8
X101.17Y-58.22
X101.22Y-55.67
X101.29Y-58.9
X101.8Y-66.3
X102.015Y-56.18
X102.015Y-57.78
X102.04Y-53.54
X102.41Y-62.73
X102.45Y-61.89
X102.45Y-63.68
X102.53Y-53.01
X102.92Y-61.17
X103.09Y-64.49
X103.11Y-68.88
X103.38Y-54.52
X103.43Y-68.31
X103.61Y-52.94
X103.97Y-135.43
X104.09Y-134.39
X104.13Y-61.13
X104.38Y-64.54
X104.39Y-56.8
X105.14Y-54.67
X105.17Y-61.16
X105.19Y-57.66
X105.23Y-56.182
X105.37Y-64.53
X105.93Y-68.24
X105.93Y-74.06
X106.24Y-61.18
X106.35Y-64.53
X106.47Y-73.65
X106.58Y-68.32
X108.79Y-71.64
X108.79Y-123.13
X108.96Y-124.91
X109.11Y-71.12
X109.3Y-122.7
X109.46Y-125.5
X110.09Y-53.45
X110.162Y-109.978
X110.44Y-124.88
X111.09Y-109.69
X112.29Y-125.39
X112.392Y-110.798
X112.852Y-110.368
X114.85Y-53.4
X115.783Y-93.648
X117.46Y-53.48
X119.93Y-53.49
X121.01Y-134.26
X121.03Y-137.24
X121.08Y-138.63
X121.08Y-141.64
X122.54Y-92.816
X122.812Y-99.708
X122.91Y-95.698
X122.942Y-97.198
X123.142Y-92.588
X123.282Y-99.028
X123.382Y-93.608
X123.532Y-97.318
X123.882Y-99.358
X123.99Y-116.0
X124.562Y-90.818
X124.577Y-95.708
X124.592Y-90.108
X124.592Y-92.508
X124.592Y-93.254
X124.592Y-94.908
X124.592Y-98.908
X124.592Y-99.708
X124.592Y-100.508
X124.592Y-101.308
X124.592Y-102.108
X124.612Y-91.738
X125.125Y-128.375
X125.392Y-90.908
X125.392Y-92.508
X125.392Y-97.308
X125.392Y-98.108
X125.392Y-99.708
X125.392Y-100.508
X125.402Y-95.688
X125.402Y-96.508
X125.47Y-70.63
X125.51Y-72.25
X125.892Y-60.65
X126.192Y-90.908
X126.192Y-92.508
X126.192Y-96.508
X126.192Y-97.308
X126.192Y-98.908
X126.27Y-119.61
X126.6Y-127.4
X126.636Y-94.824
X126.648Y-70.638
X126.648Y-72.162
X126.71Y-69.457
X126.792Y-93.008
X126.866Y-94.1
X127.032Y-96.454
X127.06Y-114.0
X127.072Y-97.238
X127.137Y-95.633
X127.3Y-128.2
X127.321Y-74.359
X127.53Y-71.48
X127.685Y-72.385
X127.702Y-91.898
X127.77Y-94.17
X127.822Y-94.988
X127.829Y-69.457
X127.829Y-74.359
X127.855Y-55.66
X127.888Y-98.908
X128.01Y-73.348
X128.29Y-70.67
X128.312Y-91.948
X128.332Y-93.528
X128.485Y-59.725
X128.542Y-95.608
X128.562Y-71.508
X128.638Y-97.583
X128.65Y-80.04
X128.845Y-69.457
X129.015Y-91.34
X129.392Y-90.908
X129.392Y-94.908
X129.392Y-97.308
X129.41Y-73.468
X129.41Y-74.108
X129.535Y-96.651
X129.56Y-77.46
X129.59Y-78.03
X129.61Y-71.5
X129.653Y-59.657
X129.762Y-88.928
X129.861Y-69.457
X130.109Y-60.764
X130.192Y-90.108
X130.192Y-91.708
X130.192Y-92.508
X130.192Y-97.548
X130.192Y-98.908
X130.202Y-94.968
X130.21Y-73.348
X130.21Y-73.988
X130.43Y-79.99
X130.51Y-71.46
X130.532Y-96.138
X130.537Y-90.583
X130.69Y-58.08
X130.772Y-88.748
X130.992Y-90.037
X130.992Y-91.708
X130.992Y-92.508
X130.992Y-98.908
X130.992Y-99.708
X130.992Y-100.508
X130.992Y-101.298
X130.992Y-102.108
X131.052Y-95.628
X131.092Y-90.978
X131.543Y-93.859
X131.57Y-74.9
X131.822Y-97.878
X131.85Y-125.87
X131.892Y-91.018
X131.912Y-91.668
X131.955Y-55.625
X132.09Y-79.41
X132.102Y-98.668
X132.192Y-95.083
X132.38Y-71.18
X132.42Y-93.305
X132.562Y-91.608
X132.69Y-126.03
X132.85Y-65.12
X132.987Y-92.508
X133.082Y-93.398
X133.205Y-72.53
X133.232Y-98.018
X133.292Y-86.268
X133.492Y-87.148
X133.6Y-60.612
X133.752Y-93.858
X134.131Y-69.469
X134.15Y-70.272
X134.2Y-87.1
X134.205Y-68.999
X134.245Y-59.725
X134.357Y-70.699
X134.42Y-74.7
X134.462Y-92.458
X134.534Y-85.753
X134.57Y-76.5
X134.652Y-97.308
X134.742Y-91.818
X134.762Y-91.048
X135.06Y-96.86
X135.13Y-126.04
X135.14Y-59.39
X135.23Y-126.91
X135.31Y-92.968
X135.32Y-74.7
X135.332Y-93.868
X135.352Y-94.818
X135.57Y-123.66
X135.68Y-60.63
X135.93Y-126.21
X136.13Y-58.04
X136.15Y-76.51
X136.252Y-94.838
X136.28Y-98.71
X136.33Y-79.73
X136.35Y-65.95
X136.352Y-92.148
X136.372Y-99.316
X136.45Y-78.85
X136.472Y-93.568
X136.57Y-77.81
X136.982Y-100.1
X137.15Y-97.95
X137.25Y-121.85
X137.39Y-91.57
X137.445Y-64.99
X137.6Y-62.89
X137.682Y-99.598
X137.772Y-100.638
X137.95Y-56.54
X138.5Y-71.84
X138.517Y-58.012
X138.68Y-72.48
X138.9Y-68.69
X138.93Y-68.13
X139.265Y-63.68
X139.31Y-120.3
X139.31Y-121.78
X140.0Y-58.012
X140.055Y-59.7
X140.32Y-94.87
X140.68Y-97.5
X141.35Y-99.19
X141.45Y-91.27
X141.45Y-91.96
X142.175Y-63.64
X142.175Y-96.475
X142.338Y-98.587
X142.34Y-94.96
T2
X47.5Y-128.0
X50.7Y-128.0
X54.9Y-128.0
X58.2Y-128.0
X60.92Y-127.94
X63.5Y-126.8
X63.6Y-124.1
X64.0Y-62.1
X64.6Y-53.3
X64.6Y-55.2
X64.6Y-56.5
X64.6Y-59.5
X64.6Y-64.4
X64.6Y-122.0
X64.7Y-57.9
X66.5Y-65.2
X67.2Y-121.7
X68.4Y-65.5
X69.9Y-67.0
X70.2Y-121.6
X72.6Y-121.5
X74.265Y-121.575
X74.3Y-65.1
X74.3Y-66.9
X75.85Y-120.55
X76.1Y-64.9
X77.4Y-120.4
X78.2Y-64.8
X79.6Y-119.431
X80.8Y-64.8
X82.5Y-119.4
X83.2Y-65.4
X85.3Y-119.4
X85.8Y-65.9
X87.8Y-119.4
X88.4Y-66.4
X90.2Y-119.4
X90.8Y-66.8
X93.0Y-119.42
X95.0Y-67.2
X95.4Y-119.37
X96.2Y-55.5
X96.5Y-53.6
X96.6Y-57.2
X97.6Y-59.1
X97.9Y-66.4
X98.0Y-53.2
X98.0Y-119.4
X99.58Y-65.89
X100.4Y-120.3
X101.8Y-121.6
X103.3Y-123.1
X105.1Y-125.0
X105.52Y-65.68
X107.0Y-126.9
X109.02Y-65.51
X109.1Y-128.9
X109.53Y-60.99
X111.3Y-130.7
X111.32Y-65.29
X111.89Y-60.89
X113.32Y-64.96
X113.82Y-61.27
X113.99Y-63.49
X114.3Y-130.7
X117.5Y-130.7
X121.0Y-130.7
X124.4Y-129.9
X127.92Y-128.9
X131.75Y-128.77
X135.1Y-128.8
X137.5Y-128.8
X139.4Y-128.8
X140.6Y-147.5
X141.151Y-129.7
X141.9Y-128.8
X143.3Y-128.8
T4
X79.43Y-133.73
T5
X57.25Y-133.38
X57.25Y-135.92
X57.25Y-138.46
X57.25Y-141.0
X59.79Y-134.65
X59.79Y-137.19
X59.79Y-139.73
X59.79Y-142.27
T6
X127.465Y-133.75
X127.465Y-136.29
X127.465Y-138.83
X127.465Y-141.37
X130.005Y-135.01
X130.005Y-137.55
X130.005Y-140.09
X130.005Y-142.63
T7
X58.51Y-80.44
X58.51Y-82.98
X58.51Y-85.52
X58.51Y-88.06
X58.51Y-90.6
X61.05Y-79.27
X61.05Y-81.81
X61.05Y-84.35
X61.05Y-86.89
X61.05Y-89.43
T8
X47.0Y-54.0
X47.0Y-56.54
X49.54Y-54.0
X49.54Y-56.54
X52.08Y-54.0
X52.08Y-56.54
X54.62Y-54.0
X54.62Y-56.54
X55.71Y-113.22
X55.71Y-115.76
X55.71Y-118.3
X55.71Y-120.84
X55.71Y-123.38
X55.71Y-125.92
X55.755Y-95.895
X55.755Y-98.435
X55.755Y-100.975
X55.755Y-103.515
X55.755Y-106.055
X55.755Y-108.595
X57.16Y-54.0
X57.16Y-56.54
X58.25Y-113.22
X58.25Y-115.76
X58.25Y-118.3
X58.25Y-120.84
X58.25Y-123.38
X58.25Y-125.92
X58.295Y-95.895
X58.295Y-98.435
X58.295Y-100.975
X58.295Y-103.515
X58.295Y-106.055
X58.295Y-108.595
X59.7Y-54.0
X59.7Y-56.54
X64.74Y-76.94
X65.87Y-123.8
X69.57Y-128.83
X71.72Y-54.49
X85.29Y-72.9
X103.6Y-131.8
X108.58Y-54.16
X108.58Y-56.7
X111.12Y-54.16
X111.12Y-56.7
X113.66Y-54.16
X113.66Y-56.7
X116.2Y-54.16
X116.2Y-56.7
X117.31Y-125.47
X117.31Y-128.01
X118.74Y-54.16
X118.74Y-56.7
X119.85Y-125.47
X119.85Y-128.01
X121.28Y-54.16
X121.28Y-56.7
X122.39Y-125.47
X122.39Y-128.01
X125.23Y-65.09
X130.605Y-111.875
X130.605Y-114.415
X130.605Y-116.955
X130.605Y-119.495
X130.605Y-122.035
X130.605Y-124.575
X133.145Y-111.875
X133.145Y-114.415
X133.145Y-116.955
X133.145Y-119.495
X133.145Y-122.035
X133.145Y-124.575
X140.08Y-101.8
X140.54Y-79.1
X141.23Y-83.38
T9
X141.255Y-131.565
X141.255Y-134.105
X141.255Y-142.275
X141.255Y-144.815
T10
X47.27Y-78.36
X47.27Y-80.9
X47.27Y-89.08
X47.27Y-91.62
T11
X133.305Y-130.44
X133.305Y-145.94
T12
X47.85Y-129.975
X47.85Y-145.675
T13
X55.22Y-77.25
X55.22Y-92.73
T3
X138.45Y-66.05G85X137.35Y-66.05
G05
X138.45Y-74.69G85X137.35Y-74.69
G05
X142.38Y-66.05G85X141.78Y-66.05
G05
X142.38Y-74.69G85X141.78Y-74.69
G05
M30
