<?xml version="1.0" encoding="UTF-8" standalone="no"?>
<!DOCTYPE svg PUBLIC "-//W3C//DTD SVG 1.1//EN"
 "http://www.w3.org/Graphics/SVG/1.1/DTD/svg11.dtd">
<!-- Generated by graphviz version 2.40.1 (20161225.0304)
 -->
<!-- Title: state transitions Pages: 1 -->
<svg width="249pt" height="458pt"
 viewBox="0.00 0.00 249.00 458.00" xmlns="http://www.w3.org/2000/svg" xmlns:xlink="http://www.w3.org/1999/xlink">
<g id="graph0" class="graph" transform="scale(1 1) rotate(0) translate(4 454)">
<title>state transitions</title>
<polygon fill="#ffffff" stroke="transparent" points="-4,4 -4,-454 245,-454 245,4 -4,4"/>
<g id="clust1" class="cluster state regular">
<title>cluster_fsm_next</title>
<path fill="none" stroke="#000000" stroke-width="2" d="M20,-8C20,-8 221,-8 221,-8 227,-8 233,-14 233,-20 233,-20 233,-430 233,-430 233,-436 227,-442 221,-442 221,-442 20,-442 20,-442 14,-442 8,-436 8,-430 8,-430 8,-20 8,-20 8,-14 14,-8 20,-8"/>
<text text-anchor="start" x="96.1616" y="-423.2" font-family="Helvetica,sans-Serif" font-size="12.00" fill="#000000">fsm_next</text>
</g>
<!-- fsm_next -->
<!-- IDLE_S -->
<g id="node2" class="node state regular">
<title>IDLE_S</title>
<polygon fill="#ffffff" fill-opacity="0.003922" stroke="transparent" stroke-width="2" points="174.5,-404 111.5,-404 111.5,-368 174.5,-368 174.5,-404"/>
<text text-anchor="start" x="122.8276" y="-382.2" font-family="Helvetica,sans-Serif" font-size="12.00" fill="#000000">IDLE_S</text>
<path fill="none" stroke="#000000" stroke-width="2" d="M123.8333,-369C123.8333,-369 162.1667,-369 162.1667,-369 167.8333,-369 173.5,-374.6667 173.5,-380.3333 173.5,-380.3333 173.5,-391.6667 173.5,-391.6667 173.5,-397.3333 167.8333,-403 162.1667,-403 162.1667,-403 123.8333,-403 123.8333,-403 118.1667,-403 112.5,-397.3333 112.5,-391.6667 112.5,-391.6667 112.5,-380.3333 112.5,-380.3333 112.5,-374.6667 118.1667,-369 123.8333,-369"/>
</g>
<!-- INIT_S -->
<g id="node3" class="node state regular">
<title>INIT_S</title>
<polygon fill="#ffffff" fill-opacity="0.003922" stroke="transparent" stroke-width="2" points="169.5,-322 110.5,-322 110.5,-286 169.5,-286 169.5,-322"/>
<text text-anchor="start" x="121.8316" y="-300.2" font-family="Helvetica,sans-Serif" font-size="12.00" fill="#000000">INIT_S</text>
<path fill="none" stroke="#000000" stroke-width="2" d="M122.8333,-287C122.8333,-287 157.1667,-287 157.1667,-287 162.8333,-287 168.5,-292.6667 168.5,-298.3333 168.5,-298.3333 168.5,-309.6667 168.5,-309.6667 168.5,-315.3333 162.8333,-321 157.1667,-321 157.1667,-321 122.8333,-321 122.8333,-321 117.1667,-321 111.5,-315.3333 111.5,-309.6667 111.5,-309.6667 111.5,-298.3333 111.5,-298.3333 111.5,-292.6667 117.1667,-287 122.8333,-287"/>
</g>
<!-- IDLE_S&#45;&gt;INIT_S -->
<g id="edge1" class="edge transition">
<title>IDLE_S&#45;&gt;INIT_S</title>
<path fill="none" stroke="#000000" d="M142.3342,-367.8015C141.9536,-357.3976 141.4679,-344.1215 141.0382,-332.3768"/>
<polygon fill="#000000" stroke="#000000" points="144.5273,-332.0129 140.6639,-322.1476 137.532,-332.2689 144.5273,-332.0129"/>
<text text-anchor="start" x="141" y="-342" font-family="Helvetica,sans-Serif" font-size="10.00" fill="#000000">acq_start &#160;&#160;</text>
</g>
<!-- SAMPLE_S -->
<g id="node4" class="node state regular">
<title>SAMPLE_S</title>
<polygon fill="#ffffff" fill-opacity="0.003922" stroke="transparent" stroke-width="2" points="175.5,-240 90.5,-240 90.5,-204 175.5,-204 175.5,-240"/>
<text text-anchor="start" x="101.8248" y="-218.2" font-family="Helvetica,sans-Serif" font-size="12.00" fill="#000000">SAMPLE_S</text>
<path fill="none" stroke="#000000" stroke-width="2" d="M102.8333,-205C102.8333,-205 163.1667,-205 163.1667,-205 168.8333,-205 174.5,-210.6667 174.5,-216.3333 174.5,-216.3333 174.5,-227.6667 174.5,-227.6667 174.5,-233.3333 168.8333,-239 163.1667,-239 163.1667,-239 102.8333,-239 102.8333,-239 97.1667,-239 91.5,-233.3333 91.5,-227.6667 91.5,-227.6667 91.5,-216.3333 91.5,-216.3333 91.5,-210.6667 97.1667,-205 102.8333,-205"/>
</g>
<!-- INIT_S&#45;&gt;SAMPLE_S -->
<g id="edge2" class="edge transition">
<title>INIT_S&#45;&gt;SAMPLE_S</title>
<path fill="none" stroke="#000000" d="M138.4465,-285.8015C137.5583,-275.3976 136.425,-262.1215 135.4224,-250.3768"/>
<polygon fill="#000000" stroke="#000000" points="138.8872,-249.8136 134.5492,-240.1476 131.9125,-250.4091 138.8872,-249.8136"/>
<text text-anchor="start" x="136" y="-260" font-family="Helvetica,sans-Serif" font-size="10.00" fill="#000000">last_word &#160;&#160;</text>
</g>
<!-- DUMMY_S -->
<g id="node5" class="node state regular">
<title>DUMMY_S</title>
<polygon fill="#ffffff" fill-opacity="0.003922" stroke="transparent" stroke-width="2" points="173.5,-146 92.5,-146 92.5,-110 173.5,-110 173.5,-146"/>
<text text-anchor="start" x="103.5042" y="-124.2" font-family="Helvetica,sans-Serif" font-size="12.00" fill="#000000">DUMMY_S</text>
<path fill="none" stroke="#000000" stroke-width="2" d="M104.8333,-111C104.8333,-111 161.1667,-111 161.1667,-111 166.8333,-111 172.5,-116.6667 172.5,-122.3333 172.5,-122.3333 172.5,-133.6667 172.5,-133.6667 172.5,-139.3333 166.8333,-145 161.1667,-145 161.1667,-145 104.8333,-145 104.8333,-145 99.1667,-145 93.5,-139.3333 93.5,-133.6667 93.5,-133.6667 93.5,-122.3333 93.5,-122.3333 93.5,-116.6667 99.1667,-111 104.8333,-111"/>
</g>
<!-- SAMPLE_S&#45;&gt;DUMMY_S -->
<g id="edge3" class="edge transition">
<title>SAMPLE_S&#45;&gt;DUMMY_S</title>
<path fill="none" stroke="#000000" d="M90.3292,-212.7447C76.6479,-207.5423 62.9605,-199.4732 54.881,-187 49.082,-178.0474 49.082,-171.9526 54.881,-163 61.5087,-152.7681 71.91,-145.4997 82.9861,-140.3463"/>
<polygon fill="#000000" stroke="#000000" points="84.4548,-143.527 92.3806,-136.4962 81.8003,-137.0498 84.4548,-143.527"/>
<text text-anchor="start" x="54" y="-172" font-family="Helvetica,sans-Serif" font-size="10.00" fill="#000000">last_word &#160;&#160;</text>
</g>
<!-- DUMMY_S&#45;&gt;SAMPLE_S -->
<g id="edge5" class="edge transition">
<title>DUMMY_S&#45;&gt;SAMPLE_S</title>
<path fill="none" stroke="#000000" d="M133,-146.0685C133,-159.5785 133,-178.3082 133,-193.785"/>
<polygon fill="#000000" stroke="#000000" points="129.5001,-193.8758 133,-203.8759 136.5001,-193.8759 129.5001,-193.8758"/>
<text text-anchor="start" x="133" y="-178" font-family="Helvetica,sans-Serif" font-size="10.00" fill="#000000">not (last_line) &#160;&#160;</text>
<text text-anchor="start" x="133" y="-166" font-family="Helvetica,sans-Serif" font-size="10.00" fill="#000000">last_word &#160;&#160;</text>
</g>
<!-- DONE_S -->
<g id="node6" class="node state regular">
<title>DONE_S</title>
<polygon fill="#ffffff" fill-opacity="0.003922" stroke="transparent" stroke-width="2" points="196.5,-52 125.5,-52 125.5,-16 196.5,-16 196.5,-52"/>
<text text-anchor="start" x="136.8316" y="-30.2" font-family="Helvetica,sans-Serif" font-size="12.00" fill="#000000">DONE_S</text>
<path fill="none" stroke="#000000" stroke-width="2" d="M137.8333,-17C137.8333,-17 184.1667,-17 184.1667,-17 189.8333,-17 195.5,-22.6667 195.5,-28.3333 195.5,-28.3333 195.5,-39.6667 195.5,-39.6667 195.5,-45.3333 189.8333,-51 184.1667,-51 184.1667,-51 137.8333,-51 137.8333,-51 132.1667,-51 126.5,-45.3333 126.5,-39.6667 126.5,-39.6667 126.5,-28.3333 126.5,-28.3333 126.5,-22.6667 132.1667,-17 137.8333,-17"/>
</g>
<!-- DUMMY_S&#45;&gt;DONE_S -->
<g id="edge4" class="edge transition">
<title>DUMMY_S&#45;&gt;DONE_S</title>
<path fill="none" stroke="#000000" d="M138.3987,-109.8759C142.4659,-96.2215 148.1145,-77.2585 152.7471,-61.7061"/>
<polygon fill="#000000" stroke="#000000" points="156.1174,-62.6516 155.6179,-52.0685 149.4087,-60.6532 156.1174,-62.6516"/>
<text text-anchor="start" x="150" y="-84" font-family="Helvetica,sans-Serif" font-size="10.00" fill="#000000">last_line &#160;&#160;</text>
<text text-anchor="start" x="150" y="-72" font-family="Helvetica,sans-Serif" font-size="10.00" fill="#000000">last_word &#160;&#160;</text>
</g>
<!-- DONE_S&#45;&gt;IDLE_S -->
<g id="edge6" class="edge transition">
<title>DONE_S&#45;&gt;IDLE_S</title>
<path fill="none" stroke="#000000" d="M196.5506,-46.4011C210.8407,-53.845 224,-65.0343 224,-81 224,-154.5 224,-154.5 224,-154.5 224,-196.2872 222,-206.7128 222,-248.5 222,-345 222,-345 222,-345 222,-354.6275 203.2825,-364.5967 184.0691,-372.2939"/>
<polygon fill="#000000" stroke="#000000" points="182.7717,-369.0428 174.6771,-375.8786 185.2678,-375.5826 182.7717,-369.0428"/>
<text text-anchor="middle" x="223.3895" y="-219" font-family="Helvetica,sans-Serif" font-size="10.00" fill="#000000"> </text>
</g>
</g>
</svg>
