G04 #@! TF.GenerationSoftware,KiCad,Pcbnew,9.0.3-9.0.3-0~ubuntu24.04.1*
G04 #@! TF.CreationDate,2025-08-23T12:09:09+02:00*
G04 #@! TF.ProjectId,acoustic-carrier-board,61636f75-7374-4696-932d-636172726965,rev?*
G04 #@! TF.SameCoordinates,Original*
G04 #@! TF.FileFunction,Legend,Top*
G04 #@! TF.FilePolarity,Positive*
%FSLAX46Y46*%
G04 Gerber Fmt 4.6, Leading zero omitted, Abs format (unit mm)*
G04 Created by KiCad (PCBNEW 9.0.3-9.0.3-0~ubuntu24.04.1) date 2025-08-23 12:09:09*
%MOMM*%
%LPD*%
G01*
G04 APERTURE LIST*
G04 Aperture macros list*
%AMRoundRect*
0 Rectangle with rounded corners*
0 $1 Rounding radius*
0 $2 $3 $4 $5 $6 $7 $8 $9 X,Y pos of 4 corners*
0 Add a 4 corners polygon primitive as box body*
4,1,4,$2,$3,$4,$5,$6,$7,$8,$9,$2,$3,0*
0 Add four circle primitives for the rounded corners*
1,1,$1+$1,$2,$3*
1,1,$1+$1,$4,$5*
1,1,$1+$1,$6,$7*
1,1,$1+$1,$8,$9*
0 Add four rect primitives between the rounded corners*
20,1,$1+$1,$2,$3,$4,$5,0*
20,1,$1+$1,$4,$5,$6,$7,0*
20,1,$1+$1,$6,$7,$8,$9,0*
20,1,$1+$1,$8,$9,$2,$3,0*%
G04 Aperture macros list end*
%ADD10C,0.160000*%
%ADD11C,0.254000*%
%ADD12C,0.120000*%
%ADD13C,0.200000*%
%ADD14C,0.150000*%
%ADD15C,0.399999*%
%ADD16C,0.152400*%
%ADD17C,0.000000*%
%ADD18C,0.127000*%
%ADD19C,0.250000*%
%ADD20C,0.410000*%
%ADD21RoundRect,0.200000X0.200000X0.275000X-0.200000X0.275000X-0.200000X-0.275000X0.200000X-0.275000X0*%
%ADD22RoundRect,0.150000X-0.512500X-0.150000X0.512500X-0.150000X0.512500X0.150000X-0.512500X0.150000X0*%
%ADD23R,1.500000X1.000000*%
%ADD24RoundRect,0.237500X0.237500X-0.300000X0.237500X0.300000X-0.237500X0.300000X-0.237500X-0.300000X0*%
%ADD25RoundRect,0.237500X-0.300000X-0.237500X0.300000X-0.237500X0.300000X0.237500X-0.300000X0.237500X0*%
%ADD26RoundRect,0.135000X-0.185000X0.135000X-0.185000X-0.135000X0.185000X-0.135000X0.185000X0.135000X0*%
%ADD27RoundRect,0.140000X0.170000X-0.140000X0.170000X0.140000X-0.170000X0.140000X-0.170000X-0.140000X0*%
%ADD28C,0.446000*%
%ADD29C,2.000000*%
%ADD30C,3.250000*%
%ADD31R,1.500000X1.500000*%
%ADD32C,1.500000*%
%ADD33C,3.000000*%
%ADD34RoundRect,0.135000X-0.135000X-0.185000X0.135000X-0.185000X0.135000X0.185000X-0.135000X0.185000X0*%
%ADD35RoundRect,0.010000X-0.225000X0.875000X-0.225000X-0.875000X0.225000X-0.875000X0.225000X0.875000X0*%
%ADD36RoundRect,0.150000X0.587500X0.150000X-0.587500X0.150000X-0.587500X-0.150000X0.587500X-0.150000X0*%
%ADD37R,1.700000X1.700000*%
%ADD38C,1.700000*%
%ADD39RoundRect,0.200000X-0.275000X0.200000X-0.275000X-0.200000X0.275000X-0.200000X0.275000X0.200000X0*%
%ADD40RoundRect,0.135000X0.135000X0.185000X-0.135000X0.185000X-0.135000X-0.185000X0.135000X-0.185000X0*%
%ADD41RoundRect,0.100000X-0.130000X-0.100000X0.130000X-0.100000X0.130000X0.100000X-0.130000X0.100000X0*%
%ADD42C,0.430000*%
%ADD43RoundRect,0.200000X-0.200000X-0.275000X0.200000X-0.275000X0.200000X0.275000X-0.200000X0.275000X0*%
%ADD44RoundRect,0.160000X0.197500X0.160000X-0.197500X0.160000X-0.197500X-0.160000X0.197500X-0.160000X0*%
%ADD45RoundRect,0.200000X0.275000X-0.200000X0.275000X0.200000X-0.275000X0.200000X-0.275000X-0.200000X0*%
%ADD46R,1.000000X1.500000*%
%ADD47RoundRect,0.135000X0.185000X-0.135000X0.185000X0.135000X-0.185000X0.135000X-0.185000X-0.135000X0*%
%ADD48RoundRect,0.250000X-0.450000X0.350000X-0.450000X-0.350000X0.450000X-0.350000X0.450000X0.350000X0*%
%ADD49RoundRect,0.237500X0.250000X0.237500X-0.250000X0.237500X-0.250000X-0.237500X0.250000X-0.237500X0*%
%ADD50RoundRect,0.237500X-0.250000X-0.237500X0.250000X-0.237500X0.250000X0.237500X-0.250000X0.237500X0*%
%ADD51RoundRect,0.218750X-0.256250X0.218750X-0.256250X-0.218750X0.256250X-0.218750X0.256250X0.218750X0*%
%ADD52RoundRect,0.100000X0.130000X0.100000X-0.130000X0.100000X-0.130000X-0.100000X0.130000X-0.100000X0*%
%ADD53RoundRect,0.100000X0.100000X-0.130000X0.100000X0.130000X-0.100000X0.130000X-0.100000X-0.130000X0*%
%ADD54RoundRect,0.218750X-0.218750X-0.256250X0.218750X-0.256250X0.218750X0.256250X-0.218750X0.256250X0*%
%ADD55R,1.100000X3.700000*%
%ADD56C,1.300000*%
%ADD57RoundRect,0.237500X0.300000X0.237500X-0.300000X0.237500X-0.300000X-0.237500X0.300000X-0.237500X0*%
%ADD58RoundRect,0.250000X-1.750000X-1.000000X1.750000X-1.000000X1.750000X1.000000X-1.750000X1.000000X0*%
%ADD59RoundRect,0.237500X0.237500X-0.250000X0.237500X0.250000X-0.237500X0.250000X-0.237500X-0.250000X0*%
%ADD60RoundRect,0.150000X0.512500X0.150000X-0.512500X0.150000X-0.512500X-0.150000X0.512500X-0.150000X0*%
%ADD61R,1.000000X1.050000*%
%ADD62R,1.050000X2.200000*%
%ADD63C,3.249981*%
%ADD64R,1.524000X1.524000*%
%ADD65C,1.524000*%
%ADD66C,1.999996*%
%ADD67C,2.400046*%
%ADD68RoundRect,0.062500X-0.375000X-0.062500X0.375000X-0.062500X0.375000X0.062500X-0.375000X0.062500X0*%
%ADD69RoundRect,0.062500X-0.062500X-0.375000X0.062500X-0.375000X0.062500X0.375000X-0.062500X0.375000X0*%
%ADD70R,5.150000X5.150000*%
%ADD71R,1.050000X1.000000*%
%ADD72R,2.200000X1.050000*%
%ADD73RoundRect,0.237500X-0.237500X0.250000X-0.237500X-0.250000X0.237500X-0.250000X0.237500X0.250000X0*%
%ADD74RoundRect,0.140000X0.140000X0.170000X-0.140000X0.170000X-0.140000X-0.170000X0.140000X-0.170000X0*%
%ADD75RoundRect,0.250000X0.450000X0.350000X-0.450000X0.350000X-0.450000X-0.350000X0.450000X-0.350000X0*%
%ADD76RoundRect,0.250000X0.325000X0.650000X-0.325000X0.650000X-0.325000X-0.650000X0.325000X-0.650000X0*%
%ADD77R,0.399999X1.050000*%
%ADD78R,0.599999X0.200000*%
%ADD79RoundRect,0.150000X0.150000X-0.512500X0.150000X0.512500X-0.150000X0.512500X-0.150000X-0.512500X0*%
%ADD80RoundRect,0.010000X-0.406400X0.127000X-0.406400X-0.127000X0.406400X-0.127000X0.406400X0.127000X0*%
%ADD81RoundRect,0.010000X0.127000X0.406400X-0.127000X0.406400X-0.127000X-0.406400X0.127000X-0.406400X0*%
%ADD82RoundRect,0.140000X-0.140000X-0.170000X0.140000X-0.170000X0.140000X0.170000X-0.140000X0.170000X0*%
%ADD83RoundRect,0.150000X-0.150000X0.512500X-0.150000X-0.512500X0.150000X-0.512500X0.150000X0.512500X0*%
%ADD84RoundRect,0.045625X0.305375X0.136875X-0.305375X0.136875X-0.305375X-0.136875X0.305375X-0.136875X0*%
%ADD85RoundRect,0.045000X0.256500X0.135000X-0.256500X0.135000X-0.256500X-0.135000X0.256500X-0.135000X0*%
%ADD86RoundRect,0.045000X-0.135000X0.256500X-0.135000X-0.256500X0.135000X-0.256500X0.135000X0.256500X0*%
%ADD87RoundRect,0.250000X-0.250000X0.250000X-0.250000X-0.250000X0.250000X-0.250000X0.250000X0.250000X0*%
%ADD88RoundRect,0.237500X-0.237500X0.300000X-0.237500X-0.300000X0.237500X-0.300000X0.237500X0.300000X0*%
%ADD89RoundRect,0.225000X0.250000X-0.225000X0.250000X0.225000X-0.250000X0.225000X-0.250000X-0.225000X0*%
%ADD90RoundRect,0.165000X0.165000X-0.202500X0.165000X0.202500X-0.165000X0.202500X-0.165000X-0.202500X0*%
%ADD91RoundRect,0.160000X-0.197500X-0.160000X0.197500X-0.160000X0.197500X0.160000X-0.197500X0.160000X0*%
%ADD92R,1.520000X1.520000*%
%ADD93C,1.520000*%
%ADD94C,2.160000*%
%ADD95RoundRect,0.125500X0.688000X0.125500X-0.688000X0.125500X-0.688000X-0.125500X0.688000X-0.125500X0*%
%ADD96RoundRect,0.250000X-0.350000X0.450000X-0.350000X-0.450000X0.350000X-0.450000X0.350000X0.450000X0*%
%ADD97RoundRect,0.160000X0.160000X-0.197500X0.160000X0.197500X-0.160000X0.197500X-0.160000X-0.197500X0*%
%ADD98RoundRect,0.150000X0.150000X-0.587500X0.150000X0.587500X-0.150000X0.587500X-0.150000X-0.587500X0*%
%ADD99C,0.650000*%
%ADD100O,1.600000X1.000000*%
%ADD101O,2.100000X1.000000*%
G04 APERTURE END LIST*
D10*
X139170501Y-76099299D02*
X139503834Y-77099299D01*
X139503834Y-77099299D02*
X139837167Y-76099299D01*
X140503834Y-76575489D02*
X140646691Y-76623108D01*
X140646691Y-76623108D02*
X140694310Y-76670727D01*
X140694310Y-76670727D02*
X140741929Y-76765965D01*
X140741929Y-76765965D02*
X140741929Y-76908822D01*
X140741929Y-76908822D02*
X140694310Y-77004060D01*
X140694310Y-77004060D02*
X140646691Y-77051680D01*
X140646691Y-77051680D02*
X140551453Y-77099299D01*
X140551453Y-77099299D02*
X140170501Y-77099299D01*
X140170501Y-77099299D02*
X140170501Y-76099299D01*
X140170501Y-76099299D02*
X140503834Y-76099299D01*
X140503834Y-76099299D02*
X140599072Y-76146918D01*
X140599072Y-76146918D02*
X140646691Y-76194537D01*
X140646691Y-76194537D02*
X140694310Y-76289775D01*
X140694310Y-76289775D02*
X140694310Y-76385013D01*
X140694310Y-76385013D02*
X140646691Y-76480251D01*
X140646691Y-76480251D02*
X140599072Y-76527870D01*
X140599072Y-76527870D02*
X140503834Y-76575489D01*
X140503834Y-76575489D02*
X140170501Y-76575489D01*
X141170501Y-76099299D02*
X141170501Y-76908822D01*
X141170501Y-76908822D02*
X141218120Y-77004060D01*
X141218120Y-77004060D02*
X141265739Y-77051680D01*
X141265739Y-77051680D02*
X141360977Y-77099299D01*
X141360977Y-77099299D02*
X141551453Y-77099299D01*
X141551453Y-77099299D02*
X141646691Y-77051680D01*
X141646691Y-77051680D02*
X141694310Y-77004060D01*
X141694310Y-77004060D02*
X141741929Y-76908822D01*
X141741929Y-76908822D02*
X141741929Y-76099299D01*
X142170501Y-77051680D02*
X142313358Y-77099299D01*
X142313358Y-77099299D02*
X142551453Y-77099299D01*
X142551453Y-77099299D02*
X142646691Y-77051680D01*
X142646691Y-77051680D02*
X142694310Y-77004060D01*
X142694310Y-77004060D02*
X142741929Y-76908822D01*
X142741929Y-76908822D02*
X142741929Y-76813584D01*
X142741929Y-76813584D02*
X142694310Y-76718346D01*
X142694310Y-76718346D02*
X142646691Y-76670727D01*
X142646691Y-76670727D02*
X142551453Y-76623108D01*
X142551453Y-76623108D02*
X142360977Y-76575489D01*
X142360977Y-76575489D02*
X142265739Y-76527870D01*
X142265739Y-76527870D02*
X142218120Y-76480251D01*
X142218120Y-76480251D02*
X142170501Y-76385013D01*
X142170501Y-76385013D02*
X142170501Y-76289775D01*
X142170501Y-76289775D02*
X142218120Y-76194537D01*
X142218120Y-76194537D02*
X142265739Y-76146918D01*
X142265739Y-76146918D02*
X142360977Y-76099299D01*
X142360977Y-76099299D02*
X142599072Y-76099299D01*
X142599072Y-76099299D02*
X142741929Y-76146918D01*
X117654786Y-65374060D02*
X117607167Y-65421680D01*
X117607167Y-65421680D02*
X117464310Y-65469299D01*
X117464310Y-65469299D02*
X117369072Y-65469299D01*
X117369072Y-65469299D02*
X117226215Y-65421680D01*
X117226215Y-65421680D02*
X117130977Y-65326441D01*
X117130977Y-65326441D02*
X117083358Y-65231203D01*
X117083358Y-65231203D02*
X117035739Y-65040727D01*
X117035739Y-65040727D02*
X117035739Y-64897870D01*
X117035739Y-64897870D02*
X117083358Y-64707394D01*
X117083358Y-64707394D02*
X117130977Y-64612156D01*
X117130977Y-64612156D02*
X117226215Y-64516918D01*
X117226215Y-64516918D02*
X117369072Y-64469299D01*
X117369072Y-64469299D02*
X117464310Y-64469299D01*
X117464310Y-64469299D02*
X117607167Y-64516918D01*
X117607167Y-64516918D02*
X117654786Y-64564537D01*
X118654786Y-65374060D02*
X118607167Y-65421680D01*
X118607167Y-65421680D02*
X118464310Y-65469299D01*
X118464310Y-65469299D02*
X118369072Y-65469299D01*
X118369072Y-65469299D02*
X118226215Y-65421680D01*
X118226215Y-65421680D02*
X118130977Y-65326441D01*
X118130977Y-65326441D02*
X118083358Y-65231203D01*
X118083358Y-65231203D02*
X118035739Y-65040727D01*
X118035739Y-65040727D02*
X118035739Y-64897870D01*
X118035739Y-64897870D02*
X118083358Y-64707394D01*
X118083358Y-64707394D02*
X118130977Y-64612156D01*
X118130977Y-64612156D02*
X118226215Y-64516918D01*
X118226215Y-64516918D02*
X118369072Y-64469299D01*
X118369072Y-64469299D02*
X118464310Y-64469299D01*
X118464310Y-64469299D02*
X118607167Y-64516918D01*
X118607167Y-64516918D02*
X118654786Y-64564537D01*
X118845263Y-65564537D02*
X119607167Y-65564537D01*
X119702406Y-64469299D02*
X120035739Y-65469299D01*
X120035739Y-65469299D02*
X120369072Y-64469299D01*
X121273834Y-65469299D02*
X120940501Y-64993108D01*
X120702406Y-65469299D02*
X120702406Y-64469299D01*
X120702406Y-64469299D02*
X121083358Y-64469299D01*
X121083358Y-64469299D02*
X121178596Y-64516918D01*
X121178596Y-64516918D02*
X121226215Y-64564537D01*
X121226215Y-64564537D02*
X121273834Y-64659775D01*
X121273834Y-64659775D02*
X121273834Y-64802632D01*
X121273834Y-64802632D02*
X121226215Y-64897870D01*
X121226215Y-64897870D02*
X121178596Y-64945489D01*
X121178596Y-64945489D02*
X121083358Y-64993108D01*
X121083358Y-64993108D02*
X120702406Y-64993108D01*
X121702406Y-64945489D02*
X122035739Y-64945489D01*
X122178596Y-65469299D02*
X121702406Y-65469299D01*
X121702406Y-65469299D02*
X121702406Y-64469299D01*
X121702406Y-64469299D02*
X122178596Y-64469299D01*
X122940501Y-64945489D02*
X122607168Y-64945489D01*
X122607168Y-65469299D02*
X122607168Y-64469299D01*
X122607168Y-64469299D02*
X123083358Y-64469299D01*
X74839548Y-53339299D02*
X74363358Y-53339299D01*
X74363358Y-53339299D02*
X74315739Y-53815489D01*
X74315739Y-53815489D02*
X74363358Y-53767870D01*
X74363358Y-53767870D02*
X74458596Y-53720251D01*
X74458596Y-53720251D02*
X74696691Y-53720251D01*
X74696691Y-53720251D02*
X74791929Y-53767870D01*
X74791929Y-53767870D02*
X74839548Y-53815489D01*
X74839548Y-53815489D02*
X74887167Y-53910727D01*
X74887167Y-53910727D02*
X74887167Y-54148822D01*
X74887167Y-54148822D02*
X74839548Y-54244060D01*
X74839548Y-54244060D02*
X74791929Y-54291680D01*
X74791929Y-54291680D02*
X74696691Y-54339299D01*
X74696691Y-54339299D02*
X74458596Y-54339299D01*
X74458596Y-54339299D02*
X74363358Y-54291680D01*
X74363358Y-54291680D02*
X74315739Y-54244060D01*
X75172882Y-53339299D02*
X75506215Y-54339299D01*
X75506215Y-54339299D02*
X75839548Y-53339299D01*
X63594786Y-147659299D02*
X63261453Y-147183108D01*
X63023358Y-147659299D02*
X63023358Y-146659299D01*
X63023358Y-146659299D02*
X63404310Y-146659299D01*
X63404310Y-146659299D02*
X63499548Y-146706918D01*
X63499548Y-146706918D02*
X63547167Y-146754537D01*
X63547167Y-146754537D02*
X63594786Y-146849775D01*
X63594786Y-146849775D02*
X63594786Y-146992632D01*
X63594786Y-146992632D02*
X63547167Y-147087870D01*
X63547167Y-147087870D02*
X63499548Y-147135489D01*
X63499548Y-147135489D02*
X63404310Y-147183108D01*
X63404310Y-147183108D02*
X63023358Y-147183108D01*
X64309072Y-146659299D02*
X64309072Y-147373584D01*
X64309072Y-147373584D02*
X64261453Y-147516441D01*
X64261453Y-147516441D02*
X64166215Y-147611680D01*
X64166215Y-147611680D02*
X64023358Y-147659299D01*
X64023358Y-147659299D02*
X63928120Y-147659299D01*
X65213834Y-146992632D02*
X65213834Y-147659299D01*
X64975739Y-146611680D02*
X64737644Y-147325965D01*
X64737644Y-147325965D02*
X65356691Y-147325965D01*
X66213834Y-146659299D02*
X65737644Y-146659299D01*
X65737644Y-146659299D02*
X65690025Y-147135489D01*
X65690025Y-147135489D02*
X65737644Y-147087870D01*
X65737644Y-147087870D02*
X65832882Y-147040251D01*
X65832882Y-147040251D02*
X66070977Y-147040251D01*
X66070977Y-147040251D02*
X66166215Y-147087870D01*
X66166215Y-147087870D02*
X66213834Y-147135489D01*
X66213834Y-147135489D02*
X66261453Y-147230727D01*
X66261453Y-147230727D02*
X66261453Y-147468822D01*
X66261453Y-147468822D02*
X66213834Y-147564060D01*
X66213834Y-147564060D02*
X66166215Y-147611680D01*
X66166215Y-147611680D02*
X66070977Y-147659299D01*
X66070977Y-147659299D02*
X65832882Y-147659299D01*
X65832882Y-147659299D02*
X65737644Y-147611680D01*
X65737644Y-147611680D02*
X65690025Y-147564060D01*
X66587167Y-67449299D02*
X66015739Y-67449299D01*
X66301453Y-67449299D02*
X66301453Y-66449299D01*
X66301453Y-66449299D02*
X66206215Y-66592156D01*
X66206215Y-66592156D02*
X66110977Y-66687394D01*
X66110977Y-66687394D02*
X66015739Y-66735013D01*
X66872882Y-66449299D02*
X67206215Y-67449299D01*
X67206215Y-67449299D02*
X67539548Y-66449299D01*
X67825263Y-66544537D02*
X67872882Y-66496918D01*
X67872882Y-66496918D02*
X67968120Y-66449299D01*
X67968120Y-66449299D02*
X68206215Y-66449299D01*
X68206215Y-66449299D02*
X68301453Y-66496918D01*
X68301453Y-66496918D02*
X68349072Y-66544537D01*
X68349072Y-66544537D02*
X68396691Y-66639775D01*
X68396691Y-66639775D02*
X68396691Y-66735013D01*
X68396691Y-66735013D02*
X68349072Y-66877870D01*
X68349072Y-66877870D02*
X67777644Y-67449299D01*
X67777644Y-67449299D02*
X68396691Y-67449299D01*
X126094786Y-53954060D02*
X126047167Y-54001680D01*
X126047167Y-54001680D02*
X125904310Y-54049299D01*
X125904310Y-54049299D02*
X125809072Y-54049299D01*
X125809072Y-54049299D02*
X125666215Y-54001680D01*
X125666215Y-54001680D02*
X125570977Y-53906441D01*
X125570977Y-53906441D02*
X125523358Y-53811203D01*
X125523358Y-53811203D02*
X125475739Y-53620727D01*
X125475739Y-53620727D02*
X125475739Y-53477870D01*
X125475739Y-53477870D02*
X125523358Y-53287394D01*
X125523358Y-53287394D02*
X125570977Y-53192156D01*
X125570977Y-53192156D02*
X125666215Y-53096918D01*
X125666215Y-53096918D02*
X125809072Y-53049299D01*
X125809072Y-53049299D02*
X125904310Y-53049299D01*
X125904310Y-53049299D02*
X126047167Y-53096918D01*
X126047167Y-53096918D02*
X126094786Y-53144537D01*
X127094786Y-53954060D02*
X127047167Y-54001680D01*
X127047167Y-54001680D02*
X126904310Y-54049299D01*
X126904310Y-54049299D02*
X126809072Y-54049299D01*
X126809072Y-54049299D02*
X126666215Y-54001680D01*
X126666215Y-54001680D02*
X126570977Y-53906441D01*
X126570977Y-53906441D02*
X126523358Y-53811203D01*
X126523358Y-53811203D02*
X126475739Y-53620727D01*
X126475739Y-53620727D02*
X126475739Y-53477870D01*
X126475739Y-53477870D02*
X126523358Y-53287394D01*
X126523358Y-53287394D02*
X126570977Y-53192156D01*
X126570977Y-53192156D02*
X126666215Y-53096918D01*
X126666215Y-53096918D02*
X126809072Y-53049299D01*
X126809072Y-53049299D02*
X126904310Y-53049299D01*
X126904310Y-53049299D02*
X127047167Y-53096918D01*
X127047167Y-53096918D02*
X127094786Y-53144537D01*
X128047167Y-54049299D02*
X127475739Y-54049299D01*
X127761453Y-54049299D02*
X127761453Y-53049299D01*
X127761453Y-53049299D02*
X127666215Y-53192156D01*
X127666215Y-53192156D02*
X127570977Y-53287394D01*
X127570977Y-53287394D02*
X127475739Y-53335013D01*
X130774786Y-53964060D02*
X130727167Y-54011680D01*
X130727167Y-54011680D02*
X130584310Y-54059299D01*
X130584310Y-54059299D02*
X130489072Y-54059299D01*
X130489072Y-54059299D02*
X130346215Y-54011680D01*
X130346215Y-54011680D02*
X130250977Y-53916441D01*
X130250977Y-53916441D02*
X130203358Y-53821203D01*
X130203358Y-53821203D02*
X130155739Y-53630727D01*
X130155739Y-53630727D02*
X130155739Y-53487870D01*
X130155739Y-53487870D02*
X130203358Y-53297394D01*
X130203358Y-53297394D02*
X130250977Y-53202156D01*
X130250977Y-53202156D02*
X130346215Y-53106918D01*
X130346215Y-53106918D02*
X130489072Y-53059299D01*
X130489072Y-53059299D02*
X130584310Y-53059299D01*
X130584310Y-53059299D02*
X130727167Y-53106918D01*
X130727167Y-53106918D02*
X130774786Y-53154537D01*
X131774786Y-53964060D02*
X131727167Y-54011680D01*
X131727167Y-54011680D02*
X131584310Y-54059299D01*
X131584310Y-54059299D02*
X131489072Y-54059299D01*
X131489072Y-54059299D02*
X131346215Y-54011680D01*
X131346215Y-54011680D02*
X131250977Y-53916441D01*
X131250977Y-53916441D02*
X131203358Y-53821203D01*
X131203358Y-53821203D02*
X131155739Y-53630727D01*
X131155739Y-53630727D02*
X131155739Y-53487870D01*
X131155739Y-53487870D02*
X131203358Y-53297394D01*
X131203358Y-53297394D02*
X131250977Y-53202156D01*
X131250977Y-53202156D02*
X131346215Y-53106918D01*
X131346215Y-53106918D02*
X131489072Y-53059299D01*
X131489072Y-53059299D02*
X131584310Y-53059299D01*
X131584310Y-53059299D02*
X131727167Y-53106918D01*
X131727167Y-53106918D02*
X131774786Y-53154537D01*
X132155739Y-53154537D02*
X132203358Y-53106918D01*
X132203358Y-53106918D02*
X132298596Y-53059299D01*
X132298596Y-53059299D02*
X132536691Y-53059299D01*
X132536691Y-53059299D02*
X132631929Y-53106918D01*
X132631929Y-53106918D02*
X132679548Y-53154537D01*
X132679548Y-53154537D02*
X132727167Y-53249775D01*
X132727167Y-53249775D02*
X132727167Y-53345013D01*
X132727167Y-53345013D02*
X132679548Y-53487870D01*
X132679548Y-53487870D02*
X132108120Y-54059299D01*
X132108120Y-54059299D02*
X132727167Y-54059299D01*
X115683358Y-59999299D02*
X115683358Y-58999299D01*
X115683358Y-58999299D02*
X116064310Y-58999299D01*
X116064310Y-58999299D02*
X116159548Y-59046918D01*
X116159548Y-59046918D02*
X116207167Y-59094537D01*
X116207167Y-59094537D02*
X116254786Y-59189775D01*
X116254786Y-59189775D02*
X116254786Y-59332632D01*
X116254786Y-59332632D02*
X116207167Y-59427870D01*
X116207167Y-59427870D02*
X116159548Y-59475489D01*
X116159548Y-59475489D02*
X116064310Y-59523108D01*
X116064310Y-59523108D02*
X115683358Y-59523108D01*
X117254786Y-59904060D02*
X117207167Y-59951680D01*
X117207167Y-59951680D02*
X117064310Y-59999299D01*
X117064310Y-59999299D02*
X116969072Y-59999299D01*
X116969072Y-59999299D02*
X116826215Y-59951680D01*
X116826215Y-59951680D02*
X116730977Y-59856441D01*
X116730977Y-59856441D02*
X116683358Y-59761203D01*
X116683358Y-59761203D02*
X116635739Y-59570727D01*
X116635739Y-59570727D02*
X116635739Y-59427870D01*
X116635739Y-59427870D02*
X116683358Y-59237394D01*
X116683358Y-59237394D02*
X116730977Y-59142156D01*
X116730977Y-59142156D02*
X116826215Y-59046918D01*
X116826215Y-59046918D02*
X116969072Y-58999299D01*
X116969072Y-58999299D02*
X117064310Y-58999299D01*
X117064310Y-58999299D02*
X117207167Y-59046918D01*
X117207167Y-59046918D02*
X117254786Y-59094537D01*
X117873834Y-58999299D02*
X118064310Y-58999299D01*
X118064310Y-58999299D02*
X118159548Y-59046918D01*
X118159548Y-59046918D02*
X118254786Y-59142156D01*
X118254786Y-59142156D02*
X118302405Y-59332632D01*
X118302405Y-59332632D02*
X118302405Y-59665965D01*
X118302405Y-59665965D02*
X118254786Y-59856441D01*
X118254786Y-59856441D02*
X118159548Y-59951680D01*
X118159548Y-59951680D02*
X118064310Y-59999299D01*
X118064310Y-59999299D02*
X117873834Y-59999299D01*
X117873834Y-59999299D02*
X117778596Y-59951680D01*
X117778596Y-59951680D02*
X117683358Y-59856441D01*
X117683358Y-59856441D02*
X117635739Y-59665965D01*
X117635739Y-59665965D02*
X117635739Y-59332632D01*
X117635739Y-59332632D02*
X117683358Y-59142156D01*
X117683358Y-59142156D02*
X117778596Y-59046918D01*
X117778596Y-59046918D02*
X117873834Y-58999299D01*
X118730977Y-59999299D02*
X118730977Y-58999299D01*
X118730977Y-58999299D02*
X119302405Y-59999299D01*
X119302405Y-59999299D02*
X119302405Y-58999299D01*
X119778596Y-59999299D02*
X119778596Y-58999299D01*
X119778596Y-58999299D02*
X120350024Y-59999299D01*
X120350024Y-59999299D02*
X120350024Y-58999299D01*
X118894786Y-147099299D02*
X118561453Y-146623108D01*
X118323358Y-147099299D02*
X118323358Y-146099299D01*
X118323358Y-146099299D02*
X118704310Y-146099299D01*
X118704310Y-146099299D02*
X118799548Y-146146918D01*
X118799548Y-146146918D02*
X118847167Y-146194537D01*
X118847167Y-146194537D02*
X118894786Y-146289775D01*
X118894786Y-146289775D02*
X118894786Y-146432632D01*
X118894786Y-146432632D02*
X118847167Y-146527870D01*
X118847167Y-146527870D02*
X118799548Y-146575489D01*
X118799548Y-146575489D02*
X118704310Y-146623108D01*
X118704310Y-146623108D02*
X118323358Y-146623108D01*
X119609072Y-146099299D02*
X119609072Y-146813584D01*
X119609072Y-146813584D02*
X119561453Y-146956441D01*
X119561453Y-146956441D02*
X119466215Y-147051680D01*
X119466215Y-147051680D02*
X119323358Y-147099299D01*
X119323358Y-147099299D02*
X119228120Y-147099299D01*
X120513834Y-146432632D02*
X120513834Y-147099299D01*
X120275739Y-146051680D02*
X120037644Y-146765965D01*
X120037644Y-146765965D02*
X120656691Y-146765965D01*
X121513834Y-146099299D02*
X121037644Y-146099299D01*
X121037644Y-146099299D02*
X120990025Y-146575489D01*
X120990025Y-146575489D02*
X121037644Y-146527870D01*
X121037644Y-146527870D02*
X121132882Y-146480251D01*
X121132882Y-146480251D02*
X121370977Y-146480251D01*
X121370977Y-146480251D02*
X121466215Y-146527870D01*
X121466215Y-146527870D02*
X121513834Y-146575489D01*
X121513834Y-146575489D02*
X121561453Y-146670727D01*
X121561453Y-146670727D02*
X121561453Y-146908822D01*
X121561453Y-146908822D02*
X121513834Y-147004060D01*
X121513834Y-147004060D02*
X121466215Y-147051680D01*
X121466215Y-147051680D02*
X121370977Y-147099299D01*
X121370977Y-147099299D02*
X121132882Y-147099299D01*
X121132882Y-147099299D02*
X121037644Y-147051680D01*
X121037644Y-147051680D02*
X120990025Y-147004060D01*
X121751930Y-147194537D02*
X122513834Y-147194537D01*
X122751930Y-147099299D02*
X122751930Y-146099299D01*
X123180501Y-147051680D02*
X123323358Y-147099299D01*
X123323358Y-147099299D02*
X123561453Y-147099299D01*
X123561453Y-147099299D02*
X123656691Y-147051680D01*
X123656691Y-147051680D02*
X123704310Y-147004060D01*
X123704310Y-147004060D02*
X123751929Y-146908822D01*
X123751929Y-146908822D02*
X123751929Y-146813584D01*
X123751929Y-146813584D02*
X123704310Y-146718346D01*
X123704310Y-146718346D02*
X123656691Y-146670727D01*
X123656691Y-146670727D02*
X123561453Y-146623108D01*
X123561453Y-146623108D02*
X123370977Y-146575489D01*
X123370977Y-146575489D02*
X123275739Y-146527870D01*
X123275739Y-146527870D02*
X123228120Y-146480251D01*
X123228120Y-146480251D02*
X123180501Y-146385013D01*
X123180501Y-146385013D02*
X123180501Y-146289775D01*
X123180501Y-146289775D02*
X123228120Y-146194537D01*
X123228120Y-146194537D02*
X123275739Y-146146918D01*
X123275739Y-146146918D02*
X123370977Y-146099299D01*
X123370977Y-146099299D02*
X123609072Y-146099299D01*
X123609072Y-146099299D02*
X123751929Y-146146918D01*
X124370977Y-146099299D02*
X124561453Y-146099299D01*
X124561453Y-146099299D02*
X124656691Y-146146918D01*
X124656691Y-146146918D02*
X124751929Y-146242156D01*
X124751929Y-146242156D02*
X124799548Y-146432632D01*
X124799548Y-146432632D02*
X124799548Y-146765965D01*
X124799548Y-146765965D02*
X124751929Y-146956441D01*
X124751929Y-146956441D02*
X124656691Y-147051680D01*
X124656691Y-147051680D02*
X124561453Y-147099299D01*
X124561453Y-147099299D02*
X124370977Y-147099299D01*
X124370977Y-147099299D02*
X124275739Y-147051680D01*
X124275739Y-147051680D02*
X124180501Y-146956441D01*
X124180501Y-146956441D02*
X124132882Y-146765965D01*
X124132882Y-146765965D02*
X124132882Y-146432632D01*
X124132882Y-146432632D02*
X124180501Y-146242156D01*
X124180501Y-146242156D02*
X124275739Y-146146918D01*
X124275739Y-146146918D02*
X124370977Y-146099299D01*
X83690501Y-69659299D02*
X84023834Y-70659299D01*
X84023834Y-70659299D02*
X84357167Y-69659299D01*
X84642882Y-70373584D02*
X85119072Y-70373584D01*
X84547644Y-70659299D02*
X84880977Y-69659299D01*
X84880977Y-69659299D02*
X85214310Y-70659299D01*
X85547644Y-69659299D02*
X85547644Y-70468822D01*
X85547644Y-70468822D02*
X85595263Y-70564060D01*
X85595263Y-70564060D02*
X85642882Y-70611680D01*
X85642882Y-70611680D02*
X85738120Y-70659299D01*
X85738120Y-70659299D02*
X85928596Y-70659299D01*
X85928596Y-70659299D02*
X86023834Y-70611680D01*
X86023834Y-70611680D02*
X86071453Y-70564060D01*
X86071453Y-70564060D02*
X86119072Y-70468822D01*
X86119072Y-70468822D02*
X86119072Y-69659299D01*
X86500025Y-69659299D02*
X87166691Y-70659299D01*
X87166691Y-69659299D02*
X86500025Y-70659299D01*
X51913358Y-75235489D02*
X52246691Y-75235489D01*
X52389548Y-75759299D02*
X51913358Y-75759299D01*
X51913358Y-75759299D02*
X51913358Y-74759299D01*
X51913358Y-74759299D02*
X52389548Y-74759299D01*
X52675263Y-74759299D02*
X53246691Y-74759299D01*
X52960977Y-75759299D02*
X52960977Y-74759299D01*
X53580025Y-75759299D02*
X53580025Y-74759299D01*
X53580025Y-75235489D02*
X54151453Y-75235489D01*
X54151453Y-75759299D02*
X54151453Y-74759299D01*
D11*
X114284318Y-96304048D02*
X113014318Y-96304048D01*
X114163365Y-94973571D02*
X114223842Y-95034047D01*
X114223842Y-95034047D02*
X114284318Y-95215476D01*
X114284318Y-95215476D02*
X114284318Y-95336428D01*
X114284318Y-95336428D02*
X114223842Y-95517857D01*
X114223842Y-95517857D02*
X114102889Y-95638809D01*
X114102889Y-95638809D02*
X113981937Y-95699286D01*
X113981937Y-95699286D02*
X113740032Y-95759762D01*
X113740032Y-95759762D02*
X113558603Y-95759762D01*
X113558603Y-95759762D02*
X113316699Y-95699286D01*
X113316699Y-95699286D02*
X113195746Y-95638809D01*
X113195746Y-95638809D02*
X113074794Y-95517857D01*
X113074794Y-95517857D02*
X113014318Y-95336428D01*
X113014318Y-95336428D02*
X113014318Y-95215476D01*
X113014318Y-95215476D02*
X113074794Y-95034047D01*
X113074794Y-95034047D02*
X113135270Y-94973571D01*
X114284318Y-93764047D02*
X114284318Y-94489762D01*
X114284318Y-94126905D02*
X113014318Y-94126905D01*
X113014318Y-94126905D02*
X113195746Y-94247857D01*
X113195746Y-94247857D02*
X113316699Y-94368809D01*
X113316699Y-94368809D02*
X113377175Y-94489762D01*
X114284318Y-92554523D02*
X114284318Y-93280238D01*
X114284318Y-92917381D02*
X113014318Y-92917381D01*
X113014318Y-92917381D02*
X113195746Y-93038333D01*
X113195746Y-93038333D02*
X113316699Y-93159285D01*
X113316699Y-93159285D02*
X113377175Y-93280238D01*
X113014318Y-91768333D02*
X113014318Y-91647380D01*
X113014318Y-91647380D02*
X113074794Y-91526428D01*
X113074794Y-91526428D02*
X113135270Y-91465952D01*
X113135270Y-91465952D02*
X113256222Y-91405476D01*
X113256222Y-91405476D02*
X113498127Y-91344999D01*
X113498127Y-91344999D02*
X113800508Y-91344999D01*
X113800508Y-91344999D02*
X114042413Y-91405476D01*
X114042413Y-91405476D02*
X114163365Y-91465952D01*
X114163365Y-91465952D02*
X114223842Y-91526428D01*
X114223842Y-91526428D02*
X114284318Y-91647380D01*
X114284318Y-91647380D02*
X114284318Y-91768333D01*
X114284318Y-91768333D02*
X114223842Y-91889285D01*
X114223842Y-91889285D02*
X114163365Y-91949761D01*
X114163365Y-91949761D02*
X114042413Y-92010238D01*
X114042413Y-92010238D02*
X113800508Y-92070714D01*
X113800508Y-92070714D02*
X113498127Y-92070714D01*
X113498127Y-92070714D02*
X113256222Y-92010238D01*
X113256222Y-92010238D02*
X113135270Y-91949761D01*
X113135270Y-91949761D02*
X113074794Y-91889285D01*
X113074794Y-91889285D02*
X113014318Y-91768333D01*
X114284318Y-90135475D02*
X114284318Y-90861190D01*
X114284318Y-90498333D02*
X113014318Y-90498333D01*
X113014318Y-90498333D02*
X113195746Y-90619285D01*
X113195746Y-90619285D02*
X113316699Y-90740237D01*
X113316699Y-90740237D02*
X113377175Y-90861190D01*
D10*
X132759999Y-74195700D02*
X132759999Y-73957605D01*
X132998094Y-74052843D02*
X132759999Y-73957605D01*
X132759999Y-73957605D02*
X132521904Y-74052843D01*
X132902856Y-73767129D02*
X132759999Y-73957605D01*
X132759999Y-73957605D02*
X132617142Y-73767129D01*
D12*
X88642258Y-55842500D02*
X88167742Y-55842500D01*
X88642258Y-56887500D02*
X88167742Y-56887500D01*
X134755000Y-58120000D02*
X133955000Y-58120000D01*
X134755000Y-58120000D02*
X135555000Y-58120000D01*
X134755000Y-61240000D02*
X133955000Y-61240000D01*
X134755000Y-61240000D02*
X135555000Y-61240000D01*
X133455000Y-58170000D02*
X133215000Y-57840000D01*
X133695000Y-57840000D01*
X133455000Y-58170000D01*
G36*
X133455000Y-58170000D02*
G01*
X133215000Y-57840000D01*
X133695000Y-57840000D01*
X133455000Y-58170000D01*
G37*
X92460000Y-124350000D02*
X94460000Y-124350000D01*
X92460000Y-127150000D02*
X92460000Y-124350000D01*
X94460000Y-124350000D02*
X94460000Y-127150000D01*
X94460000Y-127150000D02*
X92460000Y-127150000D01*
X86007500Y-136376267D02*
X86007500Y-136083733D01*
X87027500Y-136376267D02*
X87027500Y-136083733D01*
X63911233Y-138705000D02*
X64203767Y-138705000D01*
X63911233Y-139725000D02*
X64203767Y-139725000D01*
X126810000Y-119966359D02*
X126810000Y-120273641D01*
X127570000Y-119966359D02*
X127570000Y-120273641D01*
X78795000Y-59672836D02*
X78795000Y-59457164D01*
X79515000Y-59672836D02*
X79515000Y-59457164D01*
D13*
X105720000Y-89250000D02*
X119720000Y-89250000D01*
X105720000Y-96250000D02*
X105720000Y-89250000D01*
X106720000Y-97250000D02*
X105720000Y-96250000D01*
X119720000Y-89250000D02*
X119720000Y-97250000D01*
X119720000Y-97250000D02*
X106720000Y-97250000D01*
X105820000Y-97250000D02*
G75*
G02*
X105620000Y-97250000I-100000J0D01*
G01*
X105620000Y-97250000D02*
G75*
G02*
X105820000Y-97250000I100000J0D01*
G01*
D12*
X66240000Y-76940000D02*
G75*
G02*
X63240000Y-76940000I-1500000J0D01*
G01*
X63240000Y-76940000D02*
G75*
G02*
X66240000Y-76940000I1500000J0D01*
G01*
X44540000Y-145885000D02*
X44540000Y-129765000D01*
X46100000Y-129765000D02*
X44540000Y-129765000D01*
X46100000Y-145885000D02*
X44540000Y-145885000D01*
X56742000Y-128939000D02*
X57250000Y-129447000D01*
X57250000Y-129447000D02*
X57758000Y-128939000D01*
X57758000Y-128939000D02*
X56742000Y-128939000D01*
X61360000Y-129765000D02*
X49600000Y-129765000D01*
X61360000Y-145885000D02*
X49600000Y-145885000D01*
X61360000Y-145885000D02*
X61360000Y-129765000D01*
X50266359Y-69230000D02*
X50573641Y-69230000D01*
X50266359Y-69990000D02*
X50573641Y-69990000D01*
D14*
X83185000Y-116135000D02*
X83185000Y-121885000D01*
X83760000Y-116135000D02*
X83185000Y-116135000D01*
X83760000Y-121885000D02*
X83185000Y-121885000D01*
X93835000Y-116135000D02*
X93260000Y-116135000D01*
X93835000Y-116135000D02*
X93835000Y-121885000D01*
X93835000Y-121885000D02*
X93260000Y-121885000D01*
D12*
X93590000Y-115875000D02*
X93260000Y-115635000D01*
X93590000Y-115395000D01*
X93590000Y-115875000D01*
G36*
X93590000Y-115875000D02*
G01*
X93260000Y-115635000D01*
X93590000Y-115395000D01*
X93590000Y-115875000D01*
G37*
X102290002Y-53119999D02*
X101640002Y-53119999D01*
X102290002Y-53119999D02*
X102940002Y-53119999D01*
X102290002Y-56239999D02*
X101640002Y-56239999D01*
X102290002Y-56239999D02*
X102940002Y-56239999D01*
X103692502Y-56519999D02*
X103212502Y-56519999D01*
X103452502Y-56189999D01*
X103692502Y-56519999D01*
G36*
X103692502Y-56519999D02*
G01*
X103212502Y-56519999D01*
X103452502Y-56189999D01*
X103692502Y-56519999D01*
G37*
X70145000Y-60722836D02*
X70145000Y-60507164D01*
X70865000Y-60722836D02*
X70865000Y-60507164D01*
X45620000Y-111890000D02*
X45620000Y-127250000D01*
X45620000Y-111890000D02*
X54250000Y-111890000D01*
X45620000Y-112010000D02*
X54250000Y-112010000D01*
X45620000Y-112128095D02*
X54250000Y-112128095D01*
X45620000Y-112246190D02*
X54250000Y-112246190D01*
X45620000Y-112364285D02*
X54250000Y-112364285D01*
X45620000Y-112482380D02*
X54250000Y-112482380D01*
X45620000Y-112600475D02*
X54250000Y-112600475D01*
X45620000Y-112718570D02*
X54250000Y-112718570D01*
X45620000Y-112836665D02*
X54250000Y-112836665D01*
X45620000Y-112954760D02*
X54250000Y-112954760D01*
X45620000Y-113072855D02*
X54250000Y-113072855D01*
X45620000Y-113190950D02*
X54250000Y-113190950D01*
X45620000Y-113309045D02*
X54250000Y-113309045D01*
X45620000Y-113427140D02*
X54250000Y-113427140D01*
X45620000Y-113545235D02*
X54250000Y-113545235D01*
X45620000Y-113663330D02*
X54250000Y-113663330D01*
X45620000Y-113781425D02*
X54250000Y-113781425D01*
X45620000Y-113899520D02*
X54250000Y-113899520D01*
X45620000Y-114017615D02*
X54250000Y-114017615D01*
X45620000Y-114135710D02*
X54250000Y-114135710D01*
X45620000Y-114253805D02*
X54250000Y-114253805D01*
X45620000Y-114371900D02*
X54250000Y-114371900D01*
X45620000Y-114490000D02*
X54250000Y-114490000D01*
X45620000Y-117030000D02*
X54250000Y-117030000D01*
X45620000Y-119570000D02*
X54250000Y-119570000D01*
X45620000Y-122110000D02*
X54250000Y-122110000D01*
X45620000Y-124650000D02*
X54250000Y-124650000D01*
X45620000Y-127250000D02*
X54250000Y-127250000D01*
X54250000Y-111890000D02*
X54250000Y-127250000D01*
X54250000Y-112860000D02*
X54660000Y-112860000D01*
X54250000Y-113580000D02*
X54660000Y-113580000D01*
X54250000Y-115400000D02*
X54660000Y-115400000D01*
X54250000Y-116120000D02*
X54660000Y-116120000D01*
X54250000Y-117940000D02*
X54660000Y-117940000D01*
X54250000Y-118660000D02*
X54660000Y-118660000D01*
X54250000Y-120480000D02*
X54660000Y-120480000D01*
X54250000Y-121200000D02*
X54660000Y-121200000D01*
X54250000Y-123020000D02*
X54660000Y-123020000D01*
X54250000Y-123740000D02*
X54660000Y-123740000D01*
X54250000Y-125560000D02*
X54660000Y-125560000D01*
X54250000Y-126280000D02*
X54660000Y-126280000D01*
X56760000Y-112860000D02*
X57140000Y-112860000D01*
X56760000Y-113580000D02*
X57140000Y-113580000D01*
X56760000Y-115400000D02*
X57200000Y-115400000D01*
X56760000Y-116120000D02*
X57200000Y-116120000D01*
X56760000Y-117940000D02*
X57200000Y-117940000D01*
X56760000Y-118660000D02*
X57200000Y-118660000D01*
X56760000Y-120480000D02*
X57200000Y-120480000D01*
X56760000Y-121200000D02*
X57200000Y-121200000D01*
X56760000Y-123020000D02*
X57200000Y-123020000D01*
X56760000Y-123740000D02*
X57200000Y-123740000D01*
X56760000Y-125560000D02*
X57200000Y-125560000D01*
X56760000Y-126280000D02*
X57200000Y-126280000D01*
X58250000Y-111890000D02*
X59360000Y-111890000D01*
X59360000Y-111890000D02*
X59360000Y-113220000D01*
X95002500Y-128122742D02*
X95002500Y-128597258D01*
X96047500Y-128122742D02*
X96047500Y-128597258D01*
X91623641Y-55890000D02*
X91316359Y-55890000D01*
X91623641Y-56650000D02*
X91316359Y-56650000D01*
D13*
X81900000Y-81850000D02*
X82900000Y-80850000D01*
X81900000Y-94850000D02*
X81900000Y-81850000D01*
X82900000Y-80850000D02*
X95900000Y-80850000D01*
X95900000Y-80850000D02*
X95900000Y-94850000D01*
X95900000Y-94850000D02*
X81900000Y-94850000D01*
X82000000Y-80850000D02*
G75*
G02*
X81800000Y-80850000I-100000J0D01*
G01*
X81800000Y-80850000D02*
G75*
G02*
X82000000Y-80850000I100000J0D01*
G01*
D12*
X77737742Y-121145000D02*
X78212258Y-121145000D01*
X77737742Y-122190000D02*
X78212258Y-122190000D01*
X69610121Y-80105000D02*
X69274879Y-80105000D01*
X69610121Y-80865000D02*
X69274879Y-80865000D01*
X73742500Y-123527258D02*
X73742500Y-123052742D01*
X74787500Y-123527258D02*
X74787500Y-123052742D01*
X84260000Y-124140000D02*
X87060000Y-124140000D01*
X84260000Y-126140000D02*
X84260000Y-124140000D01*
X87060000Y-124140000D02*
X87060000Y-126140000D01*
X87060000Y-126140000D02*
X84260000Y-126140000D01*
X124610000Y-116653641D02*
X124610000Y-116346359D01*
X125370000Y-116653641D02*
X125370000Y-116346359D01*
X78745000Y-64622936D02*
X78745000Y-65077064D01*
X80215000Y-64622936D02*
X80215000Y-65077064D01*
X125599750Y-100942258D02*
X125599750Y-100467742D01*
X126644750Y-100942258D02*
X126644750Y-100467742D01*
X128973641Y-75233000D02*
X128666359Y-75233000D01*
X128973641Y-75993000D02*
X128666359Y-75993000D01*
X48016359Y-70100000D02*
X48323641Y-70100000D01*
X48016359Y-70860000D02*
X48323641Y-70860000D01*
X94197258Y-139657500D02*
X93722742Y-139657500D01*
X94197258Y-140702500D02*
X93722742Y-140702500D01*
X124049750Y-100467742D02*
X124049750Y-100942258D01*
X125094750Y-100467742D02*
X125094750Y-100942258D01*
X127034724Y-61802500D02*
X126525276Y-61802500D01*
X127034724Y-62847500D02*
X126525276Y-62847500D01*
X45665000Y-94565000D02*
X45665000Y-109925000D01*
X45665000Y-94565000D02*
X54295000Y-94565000D01*
X45665000Y-94685000D02*
X54295000Y-94685000D01*
X45665000Y-94803095D02*
X54295000Y-94803095D01*
X45665000Y-94921190D02*
X54295000Y-94921190D01*
X45665000Y-95039285D02*
X54295000Y-95039285D01*
X45665000Y-95157380D02*
X54295000Y-95157380D01*
X45665000Y-95275475D02*
X54295000Y-95275475D01*
X45665000Y-95393570D02*
X54295000Y-95393570D01*
X45665000Y-95511665D02*
X54295000Y-95511665D01*
X45665000Y-95629760D02*
X54295000Y-95629760D01*
X45665000Y-95747855D02*
X54295000Y-95747855D01*
X45665000Y-95865950D02*
X54295000Y-95865950D01*
X45665000Y-95984045D02*
X54295000Y-95984045D01*
X45665000Y-96102140D02*
X54295000Y-96102140D01*
X45665000Y-96220235D02*
X54295000Y-96220235D01*
X45665000Y-96338330D02*
X54295000Y-96338330D01*
X45665000Y-96456425D02*
X54295000Y-96456425D01*
X45665000Y-96574520D02*
X54295000Y-96574520D01*
X45665000Y-96692615D02*
X54295000Y-96692615D01*
X45665000Y-96810710D02*
X54295000Y-96810710D01*
X45665000Y-96928805D02*
X54295000Y-96928805D01*
X45665000Y-97046900D02*
X54295000Y-97046900D01*
X45665000Y-97165000D02*
X54295000Y-97165000D01*
X45665000Y-99705000D02*
X54295000Y-99705000D01*
X45665000Y-102245000D02*
X54295000Y-102245000D01*
X45665000Y-104785000D02*
X54295000Y-104785000D01*
X45665000Y-107325000D02*
X54295000Y-107325000D01*
X45665000Y-109925000D02*
X54295000Y-109925000D01*
X54295000Y-94565000D02*
X54295000Y-109925000D01*
X54295000Y-95535000D02*
X54705000Y-95535000D01*
X54295000Y-96255000D02*
X54705000Y-96255000D01*
X54295000Y-98075000D02*
X54705000Y-98075000D01*
X54295000Y-98795000D02*
X54705000Y-98795000D01*
X54295000Y-100615000D02*
X54705000Y-100615000D01*
X54295000Y-101335000D02*
X54705000Y-101335000D01*
X54295000Y-103155000D02*
X54705000Y-103155000D01*
X54295000Y-103875000D02*
X54705000Y-103875000D01*
X54295000Y-105695000D02*
X54705000Y-105695000D01*
X54295000Y-106415000D02*
X54705000Y-106415000D01*
X54295000Y-108235000D02*
X54705000Y-108235000D01*
X54295000Y-108955000D02*
X54705000Y-108955000D01*
X56805000Y-95535000D02*
X57185000Y-95535000D01*
X56805000Y-96255000D02*
X57185000Y-96255000D01*
X56805000Y-98075000D02*
X57245000Y-98075000D01*
X56805000Y-98795000D02*
X57245000Y-98795000D01*
X56805000Y-100615000D02*
X57245000Y-100615000D01*
X56805000Y-101335000D02*
X57245000Y-101335000D01*
X56805000Y-103155000D02*
X57245000Y-103155000D01*
X56805000Y-103875000D02*
X57245000Y-103875000D01*
X56805000Y-105695000D02*
X57245000Y-105695000D01*
X56805000Y-106415000D02*
X57245000Y-106415000D01*
X56805000Y-108235000D02*
X57245000Y-108235000D01*
X56805000Y-108955000D02*
X57245000Y-108955000D01*
X58295000Y-94565000D02*
X59405000Y-94565000D01*
X59405000Y-94565000D02*
X59405000Y-95895000D01*
X124567258Y-68627500D02*
X124092742Y-68627500D01*
X124567258Y-69672500D02*
X124092742Y-69672500D01*
X139712776Y-55815000D02*
X140222224Y-55815000D01*
X139712776Y-56860000D02*
X140222224Y-56860000D01*
X67417500Y-56785000D02*
X66617500Y-56785000D01*
X67417500Y-56785000D02*
X68217500Y-56785000D01*
X67417500Y-59905000D02*
X66617500Y-59905000D01*
X67417500Y-59905000D02*
X68217500Y-59905000D01*
X66117500Y-56835000D02*
X65877500Y-56505000D01*
X66357500Y-56505000D01*
X66117500Y-56835000D01*
G36*
X66117500Y-56835000D02*
G01*
X65877500Y-56505000D01*
X66357500Y-56505000D01*
X66117500Y-56835000D01*
G37*
X114497500Y-86927258D02*
X114497500Y-86452742D01*
X115542500Y-86927258D02*
X115542500Y-86452742D01*
X131220000Y-54927500D02*
X131220000Y-57212500D01*
X132690000Y-54927500D02*
X131220000Y-54927500D01*
X132690000Y-57212500D02*
X132690000Y-54927500D01*
X130284508Y-102482500D02*
X129809992Y-102482500D01*
X130284508Y-103527500D02*
X129809992Y-103527500D01*
X126730000Y-65090000D02*
G75*
G02*
X123730000Y-65090000I-1500000J0D01*
G01*
X123730000Y-65090000D02*
G75*
G02*
X126730000Y-65090000I1500000J0D01*
G01*
X128255242Y-56702500D02*
X128729758Y-56702500D01*
X128255242Y-57747500D02*
X128729758Y-57747500D01*
X78480000Y-132780000D02*
X80380000Y-132780000D01*
X78480000Y-134680000D02*
X78480000Y-132780000D01*
X80380000Y-132780000D02*
X80380000Y-134680000D01*
X80380000Y-134680000D02*
X78480000Y-134680000D01*
X72002258Y-125097500D02*
X71527742Y-125097500D01*
X72002258Y-126142500D02*
X71527742Y-126142500D01*
X47876359Y-67300000D02*
X48183641Y-67300000D01*
X47876359Y-68060000D02*
X48183641Y-68060000D01*
X95895000Y-136005242D02*
X95895000Y-136479758D01*
X96940000Y-136005242D02*
X96940000Y-136479758D01*
X76455000Y-56305000D02*
X75655000Y-56305000D01*
X76455000Y-56305000D02*
X77255000Y-56305000D01*
X76455000Y-59425000D02*
X75655000Y-59425000D01*
X76455000Y-59425000D02*
X77255000Y-59425000D01*
X75155000Y-56355000D02*
X74915000Y-56025000D01*
X75395000Y-56025000D01*
X75155000Y-56355000D01*
G36*
X75155000Y-56355000D02*
G01*
X74915000Y-56025000D01*
X75395000Y-56025000D01*
X75155000Y-56355000D01*
G37*
X91077500Y-139152742D02*
X91077500Y-139627258D01*
X92122500Y-139152742D02*
X92122500Y-139627258D01*
X122107221Y-92710000D02*
X122432779Y-92710000D01*
X122107221Y-93730000D02*
X122432779Y-93730000D01*
X129849992Y-100882500D02*
X130324508Y-100882500D01*
X129849992Y-101927500D02*
X130324508Y-101927500D01*
X89445000Y-60555000D02*
X89445000Y-60705000D01*
X89445000Y-60555000D02*
X93965000Y-60555000D01*
X89445000Y-65075000D02*
X89445000Y-64925000D01*
X89445000Y-65075000D02*
X93965000Y-65075000D01*
X93965000Y-60555000D02*
X93965000Y-60705000D01*
X93965000Y-65075000D02*
X93965000Y-64925000D01*
X50256359Y-68220000D02*
X50563641Y-68220000D01*
X50256359Y-68980000D02*
X50563641Y-68980000D01*
X94552621Y-131730000D02*
X94217379Y-131730000D01*
X94552621Y-132490000D02*
X94217379Y-132490000D01*
X95622258Y-133237500D02*
X95147742Y-133237500D01*
X95622258Y-134282500D02*
X95147742Y-134282500D01*
X58186267Y-75510000D02*
X57893733Y-75510000D01*
X58186267Y-76530000D02*
X57893733Y-76530000D01*
X48536359Y-74800000D02*
X48843641Y-74800000D01*
X48536359Y-75560000D02*
X48843641Y-75560000D01*
X45670000Y-52670000D02*
X47000000Y-52670000D01*
X45670000Y-54000000D02*
X45670000Y-52670000D01*
X45670000Y-55270000D02*
X48270000Y-55270000D01*
X45670000Y-57870000D02*
X45670000Y-55270000D01*
X45670000Y-57870000D02*
X61030000Y-57870000D01*
X48270000Y-52670000D02*
X61030000Y-52670000D01*
X48270000Y-55270000D02*
X48270000Y-52670000D01*
X61030000Y-57870000D02*
X61030000Y-52670000D01*
X131870000Y-77977836D02*
X131870000Y-77762164D01*
X132590000Y-77977836D02*
X132590000Y-77762164D01*
X102537500Y-60340000D02*
X103537500Y-60340000D01*
X103037500Y-59840000D02*
X103037500Y-60840000D01*
X103777500Y-59654437D02*
X103777500Y-61340000D01*
X103777500Y-59654437D02*
X104841937Y-58590000D01*
X103777500Y-66045563D02*
X103777500Y-64360000D01*
X103777500Y-66045563D02*
X104841937Y-67110000D01*
X104841937Y-58590000D02*
X112297500Y-58590000D01*
X104841937Y-67110000D02*
X112297500Y-67110000D01*
X112297500Y-58590000D02*
X112297500Y-61340000D01*
X112297500Y-67110000D02*
X112297500Y-64360000D01*
X69407500Y-142192742D02*
X69407500Y-142667258D01*
X70452500Y-142192742D02*
X70452500Y-142667258D01*
X64950000Y-116870336D02*
X64950000Y-116654664D01*
X65670000Y-116870336D02*
X65670000Y-116654664D01*
X125432500Y-54952500D02*
X125432500Y-57237500D01*
X126902500Y-54952500D02*
X125432500Y-54952500D01*
X126902500Y-57237500D02*
X126902500Y-54952500D01*
X65095000Y-60310000D02*
X65095000Y-60460000D01*
X65095000Y-60310000D02*
X69615000Y-60310000D01*
X65095000Y-64830000D02*
X65095000Y-64680000D01*
X65095000Y-64830000D02*
X69615000Y-64830000D01*
X69615000Y-60310000D02*
X69615000Y-60460000D01*
X69615000Y-64830000D02*
X69615000Y-64680000D01*
X131432500Y-59954724D02*
X131432500Y-59445276D01*
X132477500Y-59954724D02*
X132477500Y-59445276D01*
X124909750Y-102395000D02*
X124109750Y-102395000D01*
X124909750Y-102395000D02*
X125709750Y-102395000D01*
X124909750Y-105515000D02*
X124109750Y-105515000D01*
X124909750Y-105515000D02*
X125709750Y-105515000D01*
X126449750Y-105795000D02*
X125969750Y-105795000D01*
X126209750Y-105465000D01*
X126449750Y-105795000D01*
G36*
X126449750Y-105795000D02*
G01*
X125969750Y-105795000D01*
X126209750Y-105465000D01*
X126449750Y-105795000D01*
G37*
D11*
X68690000Y-134312500D02*
X68690000Y-134379000D01*
X68690000Y-137041000D02*
X68690000Y-137107500D01*
X68690000Y-137107500D02*
X69229000Y-137107500D01*
X69229000Y-134312500D02*
X68690000Y-134312500D01*
X69229000Y-134312500D02*
X70691000Y-134312500D01*
X70691000Y-137107500D02*
X71230000Y-137107500D01*
X71230000Y-134312500D02*
X70691000Y-134312500D01*
X71230000Y-134379000D02*
X71230000Y-134312500D01*
X71230000Y-137107500D02*
X71230000Y-137041000D01*
X70528000Y-135710000D02*
G75*
G02*
X69392000Y-135710000I-568000J0D01*
G01*
X69392000Y-135710000D02*
G75*
G02*
X70528000Y-135710000I568000J0D01*
G01*
D12*
X66747258Y-79877500D02*
X66272742Y-79877500D01*
X66747258Y-80922500D02*
X66272742Y-80922500D01*
X122177221Y-94260000D02*
X122502779Y-94260000D01*
X122177221Y-95280000D02*
X122502779Y-95280000D01*
D11*
X125675037Y-130190096D02*
X125675037Y-146190089D01*
X147277000Y-130190071D02*
X125677069Y-130190096D01*
X147277000Y-130190071D02*
X147277000Y-146190064D01*
X147286931Y-146190064D02*
X125687000Y-146190089D01*
D15*
X130059864Y-144190068D02*
G75*
G02*
X129660068Y-144190068I-199898J0D01*
G01*
X129660068Y-144190068D02*
G75*
G02*
X130059864Y-144190068I199898J0D01*
G01*
D12*
X125750000Y-114653641D02*
X125750000Y-114346359D01*
X126510000Y-114653641D02*
X126510000Y-114346359D01*
X96860000Y-123100000D02*
X99660000Y-123100000D01*
X96860000Y-125100000D02*
X96860000Y-123100000D01*
X99660000Y-123100000D02*
X99660000Y-125100000D01*
X99660000Y-125100000D02*
X96860000Y-125100000D01*
X66295000Y-82200000D02*
X66295000Y-81965000D01*
X66295000Y-88945000D02*
X66295000Y-88470000D01*
X66770000Y-81725000D02*
X66595000Y-81725000D01*
X66770000Y-88945000D02*
X66295000Y-88945000D01*
X73040000Y-81725000D02*
X73515000Y-81725000D01*
X73040000Y-88945000D02*
X73515000Y-88945000D01*
X73515000Y-81725000D02*
X73515000Y-82200000D01*
X73515000Y-88945000D02*
X73515000Y-88470000D01*
X66295000Y-81725000D02*
X66055000Y-81395000D01*
X66535000Y-81395000D01*
X66295000Y-81725000D01*
G36*
X66295000Y-81725000D02*
G01*
X66055000Y-81395000D01*
X66535000Y-81395000D01*
X66295000Y-81725000D01*
G37*
D11*
X96262500Y-138860000D02*
X96262500Y-139399000D01*
X96262500Y-140861000D02*
X96262500Y-141400000D01*
X96262500Y-141400000D02*
X96329000Y-141400000D01*
X96329000Y-138860000D02*
X96262500Y-138860000D01*
X98991000Y-141400000D02*
X99057500Y-141400000D01*
X99057500Y-138860000D02*
X98991000Y-138860000D01*
X99057500Y-139399000D02*
X99057500Y-138860000D01*
X99057500Y-139399000D02*
X99057500Y-140861000D01*
X99057500Y-141400000D02*
X99057500Y-140861000D01*
X98228000Y-140130000D02*
G75*
G02*
X97092000Y-140130000I-568000J0D01*
G01*
X97092000Y-140130000D02*
G75*
G02*
X98228000Y-140130000I568000J0D01*
G01*
D12*
X140695000Y-58532776D02*
X140695000Y-59042224D01*
X141740000Y-58532776D02*
X141740000Y-59042224D01*
X107670000Y-52670000D02*
X109000000Y-52670000D01*
X107670000Y-54000000D02*
X107670000Y-52670000D01*
X107670000Y-55270000D02*
X110270000Y-55270000D01*
X107670000Y-57870000D02*
X107670000Y-55270000D01*
X107670000Y-57870000D02*
X123030000Y-57870000D01*
X110270000Y-52670000D02*
X123030000Y-52670000D01*
X110270000Y-55270000D02*
X110270000Y-52670000D01*
X123030000Y-57870000D02*
X123030000Y-52670000D01*
X142040000Y-79100000D02*
G75*
G02*
X139040000Y-79100000I-1500000J0D01*
G01*
X139040000Y-79100000D02*
G75*
G02*
X142040000Y-79100000I1500000J0D01*
G01*
X126550000Y-78670836D02*
X126550000Y-78455164D01*
X127270000Y-78670836D02*
X127270000Y-78455164D01*
X71737836Y-80040000D02*
X71522164Y-80040000D01*
X71737836Y-80760000D02*
X71522164Y-80760000D01*
X131670000Y-76303000D02*
X127550000Y-76303000D01*
X131670000Y-79723000D02*
X131670000Y-76303000D01*
X141411252Y-62730000D02*
X139988748Y-62730000D01*
X141411252Y-64550000D02*
X139988748Y-64550000D01*
D14*
X98575001Y-55870000D02*
X98350000Y-55870000D01*
X101100002Y-55870000D02*
X100875001Y-55870000D01*
X101100002Y-58170000D02*
X100875001Y-58170000D01*
D12*
X133109724Y-61877500D02*
X132600276Y-61877500D01*
X133109724Y-62922500D02*
X132600276Y-62922500D01*
D11*
X82650000Y-129530000D02*
X82650000Y-130069000D01*
X82650000Y-131531000D02*
X82650000Y-130069000D01*
X82650000Y-131531000D02*
X82650000Y-132070000D01*
X82650000Y-132070000D02*
X82716500Y-132070000D01*
X82716500Y-129530000D02*
X82650000Y-129530000D01*
X85378500Y-132070000D02*
X85445000Y-132070000D01*
X85445000Y-129530000D02*
X85378500Y-129530000D01*
X85445000Y-130069000D02*
X85445000Y-129530000D01*
X85445000Y-132070000D02*
X85445000Y-131531000D01*
X84615500Y-130800000D02*
G75*
G02*
X83479500Y-130800000I-568000J0D01*
G01*
X83479500Y-130800000D02*
G75*
G02*
X84615500Y-130800000I568000J0D01*
G01*
D12*
X127244750Y-102462258D02*
X127244750Y-101987742D01*
X128289750Y-102462258D02*
X128289750Y-101987742D01*
X94407500Y-57952258D02*
X94407500Y-57477742D01*
X95452500Y-57952258D02*
X95452500Y-57477742D01*
X89107500Y-139162742D02*
X89107500Y-139637258D01*
X90152500Y-139162742D02*
X90152500Y-139637258D01*
X80279758Y-56487500D02*
X79805242Y-56487500D01*
X80279758Y-57532500D02*
X79805242Y-57532500D01*
X71952836Y-116617500D02*
X71737164Y-116617500D01*
X71952836Y-117337500D02*
X71737164Y-117337500D01*
X75365000Y-124575000D02*
X75365000Y-123775000D01*
X75365000Y-124575000D02*
X75365000Y-125375000D01*
X78485000Y-124575000D02*
X78485000Y-123775000D01*
X78485000Y-124575000D02*
X78485000Y-125375000D01*
X75415000Y-125875000D02*
X75085000Y-126115000D01*
X75085000Y-125635000D01*
X75415000Y-125875000D01*
G36*
X75415000Y-125875000D02*
G01*
X75085000Y-126115000D01*
X75085000Y-125635000D01*
X75415000Y-125875000D01*
G37*
X90938733Y-130235000D02*
X91231267Y-130235000D01*
X90938733Y-131255000D02*
X91231267Y-131255000D01*
D11*
X82240000Y-139190000D02*
X82240000Y-139729000D01*
X82240000Y-141191000D02*
X82240000Y-139729000D01*
X82240000Y-141191000D02*
X82240000Y-141730000D01*
X82240000Y-141730000D02*
X82306500Y-141730000D01*
X82306500Y-139190000D02*
X82240000Y-139190000D01*
X84968500Y-141730000D02*
X85035000Y-141730000D01*
X85035000Y-139190000D02*
X84968500Y-139190000D01*
X85035000Y-139729000D02*
X85035000Y-139190000D01*
X85035000Y-141730000D02*
X85035000Y-141191000D01*
X84205500Y-140460000D02*
G75*
G02*
X83069500Y-140460000I-568000J0D01*
G01*
X83069500Y-140460000D02*
G75*
G02*
X84205500Y-140460000I568000J0D01*
G01*
D16*
X126495400Y-69304500D02*
X126495400Y-69670260D01*
X126495400Y-74145740D02*
X126495400Y-74511500D01*
X126495400Y-74511500D02*
X126861160Y-74511500D01*
X126861160Y-69304500D02*
X126495400Y-69304500D01*
X131336640Y-74511500D02*
X131702400Y-74511500D01*
X131702400Y-69304500D02*
X131336640Y-69304500D01*
X131702400Y-69670260D02*
X131702400Y-69304500D01*
X131702400Y-74511500D02*
X131702400Y-74145740D01*
D17*
G36*
X125987400Y-71844500D02*
G01*
X125733400Y-71844500D01*
X125733400Y-71463500D01*
X125987400Y-71463500D01*
X125987400Y-71844500D01*
G37*
G36*
X130051400Y-75273500D02*
G01*
X129670400Y-75273500D01*
X129670400Y-75019500D01*
X130051400Y-75019500D01*
X130051400Y-75273500D01*
G37*
G36*
X130559400Y-68796500D02*
G01*
X130178400Y-68796500D01*
X130178400Y-68542500D01*
X130559400Y-68542500D01*
X130559400Y-68796500D01*
G37*
D12*
X73220000Y-54490000D02*
G75*
G02*
X70220000Y-54490000I-1500000J0D01*
G01*
X70220000Y-54490000D02*
G75*
G02*
X73220000Y-54490000I1500000J0D01*
G01*
X111933641Y-125010000D02*
X111626359Y-125010000D01*
X111933641Y-125770000D02*
X111626359Y-125770000D01*
X66952164Y-78730000D02*
X67167836Y-78730000D01*
X66952164Y-79450000D02*
X67167836Y-79450000D01*
X88295000Y-58447742D02*
X88295000Y-58922258D01*
X89340000Y-58447742D02*
X89340000Y-58922258D01*
X136957500Y-59150000D02*
X136957500Y-58350000D01*
X136957500Y-59150000D02*
X136957500Y-59950000D01*
X140077500Y-59150000D02*
X140077500Y-58350000D01*
X140077500Y-59150000D02*
X140077500Y-59950000D01*
X140357500Y-58090000D02*
X140027500Y-57850000D01*
X140357500Y-57610000D01*
X140357500Y-58090000D01*
G36*
X140357500Y-58090000D02*
G01*
X140027500Y-57850000D01*
X140357500Y-57610000D01*
X140357500Y-58090000D01*
G37*
X64407500Y-137067258D02*
X64407500Y-136592742D01*
X65452500Y-137067258D02*
X65452500Y-136592742D01*
D18*
X89568000Y-143460000D02*
X89568000Y-143730000D01*
X89568000Y-145790000D02*
X89568000Y-146060000D01*
X91615000Y-143460000D02*
X91615000Y-143730000D01*
X91615000Y-145790000D02*
X91615000Y-146060000D01*
D13*
X89291500Y-143760000D02*
G75*
G02*
X89091500Y-143760000I-100000J0D01*
G01*
X89091500Y-143760000D02*
G75*
G02*
X89291500Y-143760000I100000J0D01*
G01*
D12*
X104380000Y-52922500D02*
X104380000Y-56182500D01*
X106080000Y-52922500D02*
X104380000Y-52922500D01*
X106080000Y-52922500D02*
X106080000Y-56182500D01*
X86790000Y-72900000D02*
G75*
G02*
X83790000Y-72900000I-1500000J0D01*
G01*
X83790000Y-72900000D02*
G75*
G02*
X86790000Y-72900000I1500000J0D01*
G01*
X68492500Y-123227258D02*
X68492500Y-122752742D01*
X69537500Y-123227258D02*
X69537500Y-122752742D01*
X129495000Y-125905000D02*
X129495000Y-124575000D01*
X130605000Y-125905000D02*
X129495000Y-125905000D01*
X132095000Y-111515000D02*
X131655000Y-111515000D01*
X132095000Y-112235000D02*
X131655000Y-112235000D01*
X132095000Y-114055000D02*
X131655000Y-114055000D01*
X132095000Y-114775000D02*
X131655000Y-114775000D01*
X132095000Y-116595000D02*
X131655000Y-116595000D01*
X132095000Y-117315000D02*
X131655000Y-117315000D01*
X132095000Y-119135000D02*
X131655000Y-119135000D01*
X132095000Y-119855000D02*
X131655000Y-119855000D01*
X132095000Y-121675000D02*
X131655000Y-121675000D01*
X132095000Y-122395000D02*
X131655000Y-122395000D01*
X132095000Y-124215000D02*
X131715000Y-124215000D01*
X132095000Y-124935000D02*
X131715000Y-124935000D01*
X134605000Y-111515000D02*
X134195000Y-111515000D01*
X134605000Y-112235000D02*
X134195000Y-112235000D01*
X134605000Y-114055000D02*
X134195000Y-114055000D01*
X134605000Y-114775000D02*
X134195000Y-114775000D01*
X134605000Y-116595000D02*
X134195000Y-116595000D01*
X134605000Y-117315000D02*
X134195000Y-117315000D01*
X134605000Y-119135000D02*
X134195000Y-119135000D01*
X134605000Y-119855000D02*
X134195000Y-119855000D01*
X134605000Y-121675000D02*
X134195000Y-121675000D01*
X134605000Y-122395000D02*
X134195000Y-122395000D01*
X134605000Y-124215000D02*
X134195000Y-124215000D01*
X134605000Y-124935000D02*
X134195000Y-124935000D01*
X134605000Y-125905000D02*
X134605000Y-110545000D01*
X143235000Y-110545000D02*
X134605000Y-110545000D01*
X143235000Y-113145000D02*
X134605000Y-113145000D01*
X143235000Y-115685000D02*
X134605000Y-115685000D01*
X143235000Y-118225000D02*
X134605000Y-118225000D01*
X143235000Y-120765000D02*
X134605000Y-120765000D01*
X143235000Y-123305000D02*
X134605000Y-123305000D01*
X143235000Y-123423100D02*
X134605000Y-123423100D01*
X143235000Y-123541195D02*
X134605000Y-123541195D01*
X143235000Y-123659290D02*
X134605000Y-123659290D01*
X143235000Y-123777385D02*
X134605000Y-123777385D01*
X143235000Y-123895480D02*
X134605000Y-123895480D01*
X143235000Y-124013575D02*
X134605000Y-124013575D01*
X143235000Y-124131670D02*
X134605000Y-124131670D01*
X143235000Y-124249765D02*
X134605000Y-124249765D01*
X143235000Y-124367860D02*
X134605000Y-124367860D01*
X143235000Y-124485955D02*
X134605000Y-124485955D01*
X143235000Y-124604050D02*
X134605000Y-124604050D01*
X143235000Y-124722145D02*
X134605000Y-124722145D01*
X143235000Y-124840240D02*
X134605000Y-124840240D01*
X143235000Y-124958335D02*
X134605000Y-124958335D01*
X143235000Y-125076430D02*
X134605000Y-125076430D01*
X143235000Y-125194525D02*
X134605000Y-125194525D01*
X143235000Y-125312620D02*
X134605000Y-125312620D01*
X143235000Y-125430715D02*
X134605000Y-125430715D01*
X143235000Y-125548810D02*
X134605000Y-125548810D01*
X143235000Y-125666905D02*
X134605000Y-125666905D01*
X143235000Y-125785000D02*
X134605000Y-125785000D01*
X143235000Y-125905000D02*
X134605000Y-125905000D01*
X143235000Y-125905000D02*
X143235000Y-110545000D01*
X128992500Y-58177500D02*
X128192500Y-58177500D01*
X128992500Y-58177500D02*
X129792500Y-58177500D01*
X128992500Y-61297500D02*
X128192500Y-61297500D01*
X128992500Y-61297500D02*
X129792500Y-61297500D01*
X127692500Y-58227500D02*
X127452500Y-57897500D01*
X127932500Y-57897500D01*
X127692500Y-58227500D01*
G36*
X127692500Y-58227500D02*
G01*
X127452500Y-57897500D01*
X127932500Y-57897500D01*
X127692500Y-58227500D01*
G37*
X84345000Y-136317258D02*
X84345000Y-135842742D01*
X85390000Y-136317258D02*
X85390000Y-135842742D01*
X131077621Y-75233000D02*
X130742379Y-75233000D01*
X131077621Y-75993000D02*
X130742379Y-75993000D01*
D11*
X68630000Y-144662500D02*
X68630000Y-144729000D01*
X68630000Y-147391000D02*
X68630000Y-147457500D01*
X68630000Y-147457500D02*
X69169000Y-147457500D01*
X69169000Y-144662500D02*
X68630000Y-144662500D01*
X70631000Y-147457500D02*
X69169000Y-147457500D01*
X70631000Y-147457500D02*
X71170000Y-147457500D01*
X71170000Y-144662500D02*
X70631000Y-144662500D01*
X71170000Y-144729000D02*
X71170000Y-144662500D01*
X71170000Y-147457500D02*
X71170000Y-147391000D01*
X70468000Y-146060000D02*
G75*
G02*
X69332000Y-146060000I-568000J0D01*
G01*
X69332000Y-146060000D02*
G75*
G02*
X70468000Y-146060000I568000J0D01*
G01*
D12*
X77642500Y-128574758D02*
X77642500Y-128100242D01*
X78687500Y-128574758D02*
X78687500Y-128100242D01*
X76347164Y-127057500D02*
X76562836Y-127057500D01*
X76347164Y-127777500D02*
X76562836Y-127777500D01*
X94257500Y-136083733D02*
X94257500Y-136376267D01*
X95277500Y-136083733D02*
X95277500Y-136376267D01*
X85935000Y-77560580D02*
X85935000Y-77279420D01*
X86955000Y-77560580D02*
X86955000Y-77279420D01*
X63911233Y-140305000D02*
X64203767Y-140305000D01*
X63911233Y-141325000D02*
X64203767Y-141325000D01*
X73742500Y-126627258D02*
X73742500Y-126152742D01*
X74787500Y-126627258D02*
X74787500Y-126152742D01*
X89311500Y-142177621D02*
X89311500Y-141842379D01*
X90071500Y-142177621D02*
X90071500Y-141842379D01*
X88032258Y-130317500D02*
X87557742Y-130317500D01*
X88032258Y-131362500D02*
X87557742Y-131362500D01*
X70455000Y-63302936D02*
X70455000Y-63757064D01*
X71925000Y-63302936D02*
X71925000Y-63757064D01*
X94270000Y-60442836D02*
X94270000Y-60227164D01*
X94990000Y-60442836D02*
X94990000Y-60227164D01*
X67370000Y-123800000D02*
G75*
G02*
X64370000Y-123800000I-1500000J0D01*
G01*
X64370000Y-123800000D02*
G75*
G02*
X67370000Y-123800000I1500000J0D01*
G01*
X71070000Y-128830000D02*
G75*
G02*
X68070000Y-128830000I-1500000J0D01*
G01*
X68070000Y-128830000D02*
G75*
G02*
X71070000Y-128830000I1500000J0D01*
G01*
X87467379Y-131880000D02*
X87802621Y-131880000D01*
X87467379Y-132640000D02*
X87802621Y-132640000D01*
X86337500Y-128297742D02*
X86337500Y-128772258D01*
X87382500Y-128297742D02*
X87382500Y-128772258D01*
D19*
X41260000Y-76970000D02*
X53930000Y-76970000D01*
X41260000Y-93010000D02*
X41260000Y-76970000D01*
X41360000Y-92090000D02*
X42960000Y-92090000D01*
X41460000Y-79990000D02*
X43060000Y-79990000D01*
X42160000Y-89990000D02*
X41360000Y-89990000D01*
X42260000Y-77890000D02*
X41460000Y-77890000D01*
X42960000Y-89990000D02*
X42160000Y-89990000D01*
X42960000Y-92090000D02*
X42960000Y-89990000D01*
X43060000Y-77890000D02*
X42260000Y-77890000D01*
X43060000Y-79990000D02*
X43060000Y-77890000D01*
X53930000Y-93010000D02*
X41280000Y-93010000D01*
X56490000Y-76970000D02*
X62560000Y-76970000D01*
X62560000Y-76970000D02*
X62560000Y-93010000D01*
X62560000Y-93010000D02*
X56490000Y-93010000D01*
D12*
X95907500Y-59777742D02*
X95907500Y-60252258D01*
X96952500Y-59777742D02*
X96952500Y-60252258D01*
X87145000Y-58372836D02*
X87145000Y-58157164D01*
X87865000Y-58372836D02*
X87865000Y-58157164D01*
X105100000Y-131800000D02*
G75*
G02*
X102100000Y-131800000I-1500000J0D01*
G01*
X102100000Y-131800000D02*
G75*
G02*
X105100000Y-131800000I1500000J0D01*
G01*
X86247742Y-133087500D02*
X86722258Y-133087500D01*
X86247742Y-134132500D02*
X86722258Y-134132500D01*
X88610000Y-124600000D02*
X91410000Y-124600000D01*
X88610000Y-126600000D02*
X88610000Y-124600000D01*
X91410000Y-124600000D02*
X91410000Y-126600000D01*
X91410000Y-126600000D02*
X88610000Y-126600000D01*
X90685000Y-134550000D02*
X89185000Y-134550000D01*
X90685000Y-134550000D02*
X92185000Y-134550000D01*
X90685000Y-137770000D02*
X89185000Y-137770000D01*
X90685000Y-137770000D02*
X92185000Y-137770000D01*
X93137500Y-137975000D02*
X92657500Y-137975000D01*
X92897500Y-137645000D01*
X93137500Y-137975000D01*
G36*
X93137500Y-137975000D02*
G01*
X92657500Y-137975000D01*
X92897500Y-137645000D01*
X93137500Y-137975000D01*
G37*
X48496359Y-72990000D02*
X48803641Y-72990000D01*
X48496359Y-73750000D02*
X48803641Y-73750000D01*
X71432500Y-59827742D02*
X71432500Y-60302258D01*
X72477500Y-59827742D02*
X72477500Y-60302258D01*
X89537500Y-128637258D02*
X89537500Y-128162742D01*
X90582500Y-128637258D02*
X90582500Y-128162742D01*
X115980000Y-124140000D02*
X117310000Y-124140000D01*
X115980000Y-125470000D02*
X115980000Y-124140000D01*
X115980000Y-126740000D02*
X118580000Y-126740000D01*
X115980000Y-129340000D02*
X115980000Y-126740000D01*
X115980000Y-129340000D02*
X123720000Y-129340000D01*
X118580000Y-124140000D02*
X123720000Y-124140000D01*
X118580000Y-126740000D02*
X118580000Y-124140000D01*
X123720000Y-129340000D02*
X123720000Y-124140000D01*
X104127742Y-57137500D02*
X104602258Y-57137500D01*
X104127742Y-58182500D02*
X104602258Y-58182500D01*
X72052500Y-128217258D02*
X72052500Y-127742742D01*
X73097500Y-128217258D02*
X73097500Y-127742742D01*
X125370000Y-59992224D02*
X125370000Y-59482776D01*
X126415000Y-59992224D02*
X126415000Y-59482776D01*
X73795000Y-59705000D02*
X73795000Y-59855000D01*
X73795000Y-59705000D02*
X78315000Y-59705000D01*
X73795000Y-64225000D02*
X73795000Y-64075000D01*
X73795000Y-64225000D02*
X78315000Y-64225000D01*
X78315000Y-59705000D02*
X78315000Y-59855000D01*
X78315000Y-64225000D02*
X78315000Y-64075000D01*
D11*
X96737500Y-129445000D02*
X96737500Y-129984000D01*
X96737500Y-131446000D02*
X96737500Y-131985000D01*
X96737500Y-131985000D02*
X96804000Y-131985000D01*
X96804000Y-129445000D02*
X96737500Y-129445000D01*
X99466000Y-131985000D02*
X99532500Y-131985000D01*
X99532500Y-129445000D02*
X99466000Y-129445000D01*
X99532500Y-129984000D02*
X99532500Y-129445000D01*
X99532500Y-129984000D02*
X99532500Y-131446000D01*
X99532500Y-131985000D02*
X99532500Y-131446000D01*
X98703000Y-130715000D02*
G75*
G02*
X97567000Y-130715000I-568000J0D01*
G01*
X97567000Y-130715000D02*
G75*
G02*
X98703000Y-130715000I568000J0D01*
G01*
D12*
X94157742Y-130217500D02*
X94632258Y-130217500D01*
X94157742Y-131262500D02*
X94632258Y-131262500D01*
X123792742Y-138367500D02*
X124267258Y-138367500D01*
X123792742Y-139412500D02*
X124267258Y-139412500D01*
X87567258Y-139847500D02*
X87092742Y-139847500D01*
X87567258Y-140892500D02*
X87092742Y-140892500D01*
X64477500Y-143337258D02*
X64477500Y-142862742D01*
X65522500Y-143337258D02*
X65522500Y-142862742D01*
X82245000Y-59555000D02*
X82245000Y-59705000D01*
X82245000Y-59555000D02*
X86765000Y-59555000D01*
X82245000Y-64075000D02*
X82245000Y-63925000D01*
X82245000Y-64075000D02*
X86765000Y-64075000D01*
X86765000Y-59555000D02*
X86765000Y-59705000D01*
X86765000Y-64075000D02*
X86765000Y-63925000D01*
X134017742Y-56577500D02*
X134492258Y-56577500D01*
X134017742Y-57622500D02*
X134492258Y-57622500D01*
X68140000Y-75650000D02*
X68140000Y-79770000D01*
X71560000Y-75650000D02*
X68140000Y-75650000D01*
X84867500Y-56155000D02*
X84067500Y-56155000D01*
X84867500Y-56155000D02*
X85667500Y-56155000D01*
X84867500Y-59275000D02*
X84067500Y-59275000D01*
X84867500Y-59275000D02*
X85667500Y-59275000D01*
X83567500Y-56205000D02*
X83327500Y-55875000D01*
X83807500Y-55875000D01*
X83567500Y-56205000D01*
G36*
X83567500Y-56205000D02*
G01*
X83327500Y-55875000D01*
X83807500Y-55875000D01*
X83567500Y-56205000D01*
G37*
X91400000Y-75700000D02*
X87280000Y-75700000D01*
X91400000Y-79120000D02*
X91400000Y-75700000D01*
X91220000Y-142157621D02*
X91220000Y-141822379D01*
X91980000Y-142157621D02*
X91980000Y-141822379D01*
X80170000Y-59072742D02*
X80170000Y-59547258D01*
X81215000Y-59072742D02*
X81215000Y-59547258D01*
X69397500Y-139657258D02*
X69397500Y-139182742D01*
X70442500Y-139657258D02*
X70442500Y-139182742D01*
X70125000Y-122860000D02*
X70125000Y-122210000D01*
X70125000Y-122860000D02*
X70125000Y-123510000D01*
X73245000Y-122860000D02*
X73245000Y-122210000D01*
X73245000Y-122860000D02*
X73245000Y-123510000D01*
X70175000Y-124022500D02*
X69845000Y-124262500D01*
X69845000Y-123782500D01*
X70175000Y-124022500D01*
G36*
X70175000Y-124022500D02*
G01*
X69845000Y-124262500D01*
X69845000Y-123782500D01*
X70175000Y-124022500D01*
G37*
X69882500Y-58252258D02*
X69882500Y-57777742D01*
X70927500Y-58252258D02*
X70927500Y-57777742D01*
X91942500Y-57105000D02*
X91142500Y-57105000D01*
X91942500Y-57105000D02*
X92742500Y-57105000D01*
X91942500Y-60225000D02*
X91142500Y-60225000D01*
X91942500Y-60225000D02*
X92742500Y-60225000D01*
X90642500Y-57155000D02*
X90402500Y-56825000D01*
X90882500Y-56825000D01*
X90642500Y-57155000D01*
G36*
X90642500Y-57155000D02*
G01*
X90402500Y-56825000D01*
X90882500Y-56825000D01*
X90642500Y-57155000D01*
G37*
D20*
X92500000Y-89850000D03*
%LPC*%
G36*
X92710000Y-125900000D02*
G01*
X94210000Y-125900000D01*
X94210000Y-125600000D01*
X92710000Y-125600000D01*
X92710000Y-125900000D01*
G37*
G36*
X85510000Y-124390000D02*
G01*
X85810000Y-124390000D01*
X85810000Y-125890000D01*
X85510000Y-125890000D01*
X85510000Y-124390000D01*
G37*
G36*
X98110000Y-123350000D02*
G01*
X98410000Y-123350000D01*
X98410000Y-124850000D01*
X98110000Y-124850000D01*
X98110000Y-123350000D01*
G37*
D17*
G36*
X127717800Y-73673300D02*
G01*
X127333600Y-73673300D01*
X127333600Y-70142700D01*
X127717800Y-70142700D01*
X127717800Y-73673300D01*
G37*
G36*
X128505200Y-73673300D02*
G01*
X128117800Y-73673300D01*
X128117800Y-70142700D01*
X128505200Y-70142700D01*
X128505200Y-73673300D01*
G37*
G36*
X129292600Y-73673300D02*
G01*
X128905200Y-73673300D01*
X128905200Y-70142700D01*
X129292600Y-70142700D01*
X129292600Y-73673300D01*
G37*
G36*
X130080000Y-73673300D02*
G01*
X129692600Y-73673300D01*
X129692600Y-70142700D01*
X130080000Y-70142700D01*
X130080000Y-73673300D01*
G37*
G36*
X130864200Y-70526900D02*
G01*
X127333600Y-70526900D01*
X127333600Y-70142700D01*
X130864200Y-70142700D01*
X130864200Y-70526900D01*
G37*
G36*
X130864200Y-71314300D02*
G01*
X127333600Y-71314300D01*
X127333600Y-70926900D01*
X130864200Y-70926900D01*
X130864200Y-71314300D01*
G37*
G36*
X130864200Y-72101700D02*
G01*
X127333600Y-72101700D01*
X127333600Y-71714300D01*
X130864200Y-71714300D01*
X130864200Y-72101700D01*
G37*
G36*
X130864200Y-72889100D02*
G01*
X127333600Y-72889100D01*
X127333600Y-72501700D01*
X130864200Y-72501700D01*
X130864200Y-72889100D01*
G37*
G36*
X130864200Y-73673300D02*
G01*
X127333600Y-73673300D01*
X127333600Y-73289100D01*
X130864200Y-73289100D01*
X130864200Y-73673300D01*
G37*
G36*
X130864200Y-73673300D02*
G01*
X130480000Y-73673300D01*
X130480000Y-70142700D01*
X130864200Y-70142700D01*
X130864200Y-73673300D01*
G37*
G36*
X90160000Y-126350000D02*
G01*
X89860000Y-126350000D01*
X89860000Y-124850000D01*
X90160000Y-124850000D01*
X90160000Y-126350000D01*
G37*
D21*
X89230000Y-56365000D03*
X87580000Y-56365000D03*
D22*
X133617500Y-58730000D03*
X133617500Y-59680000D03*
X133617500Y-60630000D03*
X135892500Y-60630000D03*
X135892500Y-58730000D03*
D23*
X93460000Y-126400000D03*
X93460000Y-125100000D03*
D24*
X86517500Y-137092500D03*
X86517500Y-135367500D03*
D25*
X63195000Y-139215000D03*
X64920000Y-139215000D03*
D26*
X127190000Y-119610000D03*
X127190000Y-120630000D03*
D27*
X79155000Y-60045000D03*
X79155000Y-59085000D03*
D28*
X106720000Y-96450000D03*
X106720000Y-95650000D03*
X106720000Y-94850000D03*
X106720000Y-91650000D03*
X106720000Y-90850000D03*
X106720000Y-90050000D03*
X107520000Y-96450000D03*
X107520000Y-95650000D03*
X107520000Y-94850000D03*
X107520000Y-91650000D03*
X107520000Y-90850000D03*
X107520000Y-90050000D03*
X108320000Y-96450000D03*
X108320000Y-95650000D03*
X108320000Y-94850000D03*
X108320000Y-91650000D03*
X108320000Y-90850000D03*
X108320000Y-90050000D03*
X109120000Y-96450000D03*
X109120000Y-95650000D03*
X109120000Y-94850000D03*
X109120000Y-91650000D03*
X109120000Y-90850000D03*
X109120000Y-90050000D03*
X109920000Y-96450000D03*
X109920000Y-95650000D03*
X109920000Y-94850000D03*
X109920000Y-91650000D03*
X109920000Y-90850000D03*
X109920000Y-90050000D03*
X110720000Y-96450000D03*
X110720000Y-95650000D03*
X110720000Y-94850000D03*
X110720000Y-91650000D03*
X110720000Y-90850000D03*
X110720000Y-90050000D03*
X111520000Y-96450000D03*
X111520000Y-95650000D03*
X111520000Y-94850000D03*
X111520000Y-91650000D03*
X111520000Y-90850000D03*
X111520000Y-90050000D03*
X112320000Y-96450000D03*
X112320000Y-95650000D03*
X112320000Y-94850000D03*
X112320000Y-91650000D03*
X112320000Y-90850000D03*
X112320000Y-90050000D03*
X113120000Y-96450000D03*
X113120000Y-95650000D03*
X113120000Y-94850000D03*
X113120000Y-91650000D03*
X113120000Y-90850000D03*
X113120000Y-90050000D03*
X113920000Y-96450000D03*
X113920000Y-95650000D03*
X113920000Y-94850000D03*
X113920000Y-91650000D03*
X113920000Y-90850000D03*
X113920000Y-90050000D03*
X114720000Y-96450000D03*
X114720000Y-95650000D03*
X114720000Y-94850000D03*
X114720000Y-91650000D03*
X114720000Y-90850000D03*
X114720000Y-90050000D03*
X115520000Y-96450000D03*
X115520000Y-95650000D03*
X115520000Y-94850000D03*
X115520000Y-91650000D03*
X115520000Y-90850000D03*
X115520000Y-90050000D03*
X116320000Y-96450000D03*
X116320000Y-95650000D03*
X116320000Y-94850000D03*
X116320000Y-91650000D03*
X116320000Y-90850000D03*
X116320000Y-90050000D03*
X117120000Y-96450000D03*
X117120000Y-95650000D03*
X117120000Y-94850000D03*
X117120000Y-91650000D03*
X117120000Y-90850000D03*
X117120000Y-90050000D03*
X117920000Y-96450000D03*
X117920000Y-95650000D03*
X117920000Y-94850000D03*
X117920000Y-91650000D03*
X117920000Y-90850000D03*
X117920000Y-90050000D03*
X118720000Y-96450000D03*
X118720000Y-95650000D03*
X118720000Y-94850000D03*
X118720000Y-91650000D03*
X118720000Y-90850000D03*
X118720000Y-90050000D03*
D29*
X64740000Y-76940000D03*
D30*
X50900000Y-132110000D03*
X50900000Y-143540000D03*
D31*
X57250000Y-133380000D03*
D32*
X59790000Y-134650000D03*
X57250000Y-135920000D03*
X59790000Y-137190000D03*
X57250000Y-138460000D03*
X59790000Y-139730000D03*
X57250000Y-141000000D03*
X59790000Y-142270000D03*
D33*
X47850000Y-129975000D03*
X47850000Y-145675000D03*
D34*
X49910000Y-69610000D03*
X50930000Y-69610000D03*
D35*
X92735000Y-115410000D03*
X92085000Y-115410000D03*
X91435000Y-115410000D03*
X90785000Y-115410000D03*
X90135000Y-115410000D03*
X89485000Y-115410000D03*
X88835000Y-115410000D03*
X88185000Y-115410000D03*
X87535000Y-115410000D03*
X86885000Y-115410000D03*
X86235000Y-115410000D03*
X85585000Y-115410000D03*
X84935000Y-115410000D03*
X84285000Y-115410000D03*
X84285000Y-122610000D03*
X84935000Y-122610000D03*
X85585000Y-122610000D03*
X86235000Y-122610000D03*
X86885000Y-122610000D03*
X87535000Y-122610000D03*
X88185000Y-122610000D03*
X88835000Y-122610000D03*
X89485000Y-122610000D03*
X90135000Y-122610000D03*
X90785000Y-122610000D03*
X91435000Y-122610000D03*
X92085000Y-122610000D03*
X92735000Y-122610000D03*
D36*
X103227502Y-55629999D03*
X103227502Y-53729999D03*
X101352502Y-54679999D03*
D27*
X70505000Y-61095000D03*
X70505000Y-60135000D03*
D37*
X58250000Y-113220000D03*
D38*
X58250000Y-115760000D03*
X58250000Y-118300000D03*
X58250000Y-120840000D03*
X58250000Y-123380000D03*
X58250000Y-125920000D03*
X55710000Y-113220000D03*
X55710000Y-115760000D03*
X55710000Y-118300000D03*
X55710000Y-120840000D03*
X55710000Y-123380000D03*
X55710000Y-125920000D03*
D39*
X95525000Y-127535000D03*
X95525000Y-129185000D03*
D40*
X91980000Y-56270000D03*
X90960000Y-56270000D03*
D41*
X66710000Y-136680000D03*
X67350000Y-136680000D03*
D42*
X82900000Y-81850000D03*
X83700000Y-81850000D03*
X84500000Y-81850000D03*
X85300000Y-81850000D03*
X86100000Y-81850000D03*
X86900000Y-81850000D03*
X87700000Y-81850000D03*
X88500000Y-81850000D03*
X89300000Y-81850000D03*
X90100000Y-81850000D03*
X90900000Y-81850000D03*
X91700000Y-81850000D03*
X92500000Y-81850000D03*
X93300000Y-81850000D03*
X94100000Y-81850000D03*
X94900000Y-81850000D03*
X82900000Y-82650000D03*
X83700000Y-82650000D03*
X84500000Y-82650000D03*
X85300000Y-82650000D03*
X86100000Y-82650000D03*
X86900000Y-82650000D03*
X87700000Y-82650000D03*
X88500000Y-82650000D03*
X89300000Y-82650000D03*
X90100000Y-82650000D03*
X90900000Y-82650000D03*
X91700000Y-82650000D03*
X92500000Y-82650000D03*
X93300000Y-82650000D03*
X94100000Y-82650000D03*
X94900000Y-82650000D03*
X82900000Y-83450000D03*
X83700000Y-83450000D03*
X84500000Y-83450000D03*
X85300000Y-83450000D03*
X86100000Y-83450000D03*
X86900000Y-83450000D03*
X87700000Y-83450000D03*
X88500000Y-83450000D03*
X89300000Y-83450000D03*
X90100000Y-83450000D03*
X90900000Y-83450000D03*
X91700000Y-83450000D03*
X92500000Y-83450000D03*
X93300000Y-83450000D03*
X94100000Y-83450000D03*
X94900000Y-83450000D03*
X82900000Y-84250000D03*
X83700000Y-84250000D03*
X84500000Y-84250000D03*
X85300000Y-84250000D03*
X86100000Y-84250000D03*
X86900000Y-84250000D03*
X87700000Y-84250000D03*
X88500000Y-84250000D03*
X89300000Y-84250000D03*
X90100000Y-84250000D03*
X90900000Y-84250000D03*
X91700000Y-84250000D03*
X92500000Y-84250000D03*
X93300000Y-84250000D03*
X94100000Y-84250000D03*
X94900000Y-84250000D03*
X82900000Y-85050000D03*
X83700000Y-85050000D03*
X84500000Y-85050000D03*
X85300000Y-85050000D03*
X86100000Y-85050000D03*
X86900000Y-85050000D03*
X87700000Y-85050000D03*
X88500000Y-85050000D03*
X89300000Y-85050000D03*
X90100000Y-85050000D03*
X90900000Y-85050000D03*
X91700000Y-85050000D03*
X92500000Y-85050000D03*
X93300000Y-85050000D03*
X94100000Y-85050000D03*
X94900000Y-85050000D03*
X82900000Y-85850000D03*
X83700000Y-85850000D03*
X84500000Y-85850000D03*
X85300000Y-85850000D03*
X86100000Y-85850000D03*
X86900000Y-85850000D03*
X87700000Y-85850000D03*
X88500000Y-85850000D03*
X89300000Y-85850000D03*
X90100000Y-85850000D03*
X90900000Y-85850000D03*
X91700000Y-85850000D03*
X92500000Y-85850000D03*
X93300000Y-85850000D03*
X94100000Y-85850000D03*
X94900000Y-85850000D03*
X82900000Y-86650000D03*
X83700000Y-86650000D03*
X84500000Y-86650000D03*
X85300000Y-86650000D03*
X86100000Y-86650000D03*
X86900000Y-86650000D03*
X87700000Y-86650000D03*
X88500000Y-86650000D03*
X89300000Y-86650000D03*
X90100000Y-86650000D03*
X90900000Y-86650000D03*
X91700000Y-86650000D03*
X92500000Y-86650000D03*
X93300000Y-86650000D03*
X94100000Y-86650000D03*
X94900000Y-86650000D03*
X82900000Y-87450000D03*
X83700000Y-87450000D03*
X84500000Y-87450000D03*
X85300000Y-87450000D03*
X86100000Y-87450000D03*
X86900000Y-87450000D03*
X87700000Y-87450000D03*
X88500000Y-87450000D03*
X89300000Y-87450000D03*
X90100000Y-87450000D03*
X90900000Y-87450000D03*
X91700000Y-87450000D03*
X92500000Y-87450000D03*
X93300000Y-87450000D03*
X94100000Y-87450000D03*
X94900000Y-87450000D03*
X82900000Y-88250000D03*
X83700000Y-88250000D03*
X84500000Y-88250000D03*
X85300000Y-88250000D03*
X86100000Y-88250000D03*
X86900000Y-88250000D03*
X87700000Y-88250000D03*
X88500000Y-88250000D03*
X89300000Y-88250000D03*
X90100000Y-88250000D03*
X90900000Y-88250000D03*
X91700000Y-88250000D03*
X92500000Y-88250000D03*
X93300000Y-88250000D03*
X94100000Y-88250000D03*
X94900000Y-88250000D03*
X82900000Y-89050000D03*
X83700000Y-89050000D03*
X84500000Y-89050000D03*
X85300000Y-89050000D03*
X86100000Y-89050000D03*
X86900000Y-89050000D03*
X87700000Y-89050000D03*
X88500000Y-89050000D03*
X89300000Y-89050000D03*
X90100000Y-89050000D03*
X90900000Y-89050000D03*
X91700000Y-89050000D03*
X92500000Y-89050000D03*
X93300000Y-89050000D03*
X94100000Y-89050000D03*
X94900000Y-89050000D03*
X82900000Y-89850000D03*
X83700000Y-89850000D03*
X84500000Y-89850000D03*
X85300000Y-89850000D03*
X86100000Y-89850000D03*
X86900000Y-89850000D03*
X87700000Y-89850000D03*
X88500000Y-89850000D03*
X89300000Y-89850000D03*
X90100000Y-89850000D03*
X90900000Y-89850000D03*
X91700000Y-89850000D03*
X92500000Y-89850000D03*
X93300000Y-89850000D03*
X94100000Y-89850000D03*
X94900000Y-89850000D03*
X82900000Y-90650000D03*
X83700000Y-90650000D03*
X84500000Y-90650000D03*
X85300000Y-90650000D03*
X86100000Y-90650000D03*
X86900000Y-90650000D03*
X87700000Y-90650000D03*
X88500000Y-90650000D03*
X89300000Y-90650000D03*
X90100000Y-90650000D03*
X90900000Y-90650000D03*
X91700000Y-90650000D03*
X92500000Y-90650000D03*
X93300000Y-90650000D03*
X94100000Y-90650000D03*
X94900000Y-90650000D03*
X82900000Y-91450000D03*
X83700000Y-91450000D03*
X84500000Y-91450000D03*
X85300000Y-91450000D03*
X86100000Y-91450000D03*
X86900000Y-91450000D03*
X87700000Y-91450000D03*
X88500000Y-91450000D03*
X89300000Y-91450000D03*
X90100000Y-91450000D03*
X90900000Y-91450000D03*
X91700000Y-91450000D03*
X92500000Y-91450000D03*
X93300000Y-91450000D03*
X94100000Y-91450000D03*
X94900000Y-91450000D03*
X82900000Y-92250000D03*
X83700000Y-92250000D03*
X84500000Y-92250000D03*
X85300000Y-92250000D03*
X86100000Y-92250000D03*
X86900000Y-92250000D03*
X87700000Y-92250000D03*
X88500000Y-92250000D03*
X89300000Y-92250000D03*
X90100000Y-92250000D03*
X90900000Y-92250000D03*
X91700000Y-92250000D03*
X92500000Y-92250000D03*
X93300000Y-92250000D03*
X94100000Y-92250000D03*
X94900000Y-92250000D03*
X82900000Y-93050000D03*
X83700000Y-93050000D03*
X84500000Y-93050000D03*
X85300000Y-93050000D03*
X86100000Y-93050000D03*
X86900000Y-93050000D03*
X87700000Y-93050000D03*
X88500000Y-93050000D03*
X89300000Y-93050000D03*
X90100000Y-93050000D03*
X90900000Y-93050000D03*
X91700000Y-93050000D03*
X92500000Y-93050000D03*
X93300000Y-93050000D03*
X94100000Y-93050000D03*
X94900000Y-93050000D03*
X82900000Y-93850000D03*
X83700000Y-93850000D03*
X84500000Y-93850000D03*
X85300000Y-93850000D03*
X86100000Y-93850000D03*
X86900000Y-93850000D03*
X87700000Y-93850000D03*
X88500000Y-93850000D03*
X89300000Y-93850000D03*
X90100000Y-93850000D03*
X90900000Y-93850000D03*
X91700000Y-93850000D03*
X92500000Y-93850000D03*
X93300000Y-93850000D03*
X94100000Y-93850000D03*
X94900000Y-93850000D03*
D43*
X77150000Y-121667500D03*
X78800000Y-121667500D03*
D44*
X70040000Y-80485000D03*
X68845000Y-80485000D03*
D29*
X74250000Y-143370000D03*
D45*
X74265000Y-124115000D03*
X74265000Y-122465000D03*
D46*
X85010000Y-125140000D03*
X86310000Y-125140000D03*
D47*
X124990000Y-117010000D03*
X124990000Y-115990000D03*
D48*
X79480000Y-63850000D03*
X79480000Y-65850000D03*
D45*
X126122250Y-101530000D03*
X126122250Y-99880000D03*
D40*
X129330000Y-75613000D03*
X128310000Y-75613000D03*
D34*
X47660000Y-70480000D03*
X48680000Y-70480000D03*
D21*
X94785000Y-140180000D03*
X93135000Y-140180000D03*
D39*
X124572250Y-99880000D03*
X124572250Y-101530000D03*
D49*
X127692500Y-62325000D03*
X125867500Y-62325000D03*
D37*
X58295000Y-95895000D03*
D38*
X58295000Y-98435000D03*
X58295000Y-100975000D03*
X58295000Y-103515000D03*
X58295000Y-106055000D03*
X58295000Y-108595000D03*
X55755000Y-95895000D03*
X55755000Y-98435000D03*
X55755000Y-100975000D03*
X55755000Y-103515000D03*
X55755000Y-106055000D03*
X55755000Y-108595000D03*
D21*
X125155000Y-69150000D03*
X123505000Y-69150000D03*
D41*
X108960000Y-124880000D03*
X109600000Y-124880000D03*
D50*
X139055000Y-56337500D03*
X140880000Y-56337500D03*
D22*
X66280000Y-57395000D03*
X66280000Y-58345000D03*
X66280000Y-59295000D03*
X68555000Y-59295000D03*
X68555000Y-57395000D03*
D45*
X115020000Y-87515000D03*
X115020000Y-85865000D03*
D51*
X131955000Y-55625000D03*
X131955000Y-57200000D03*
D21*
X130872250Y-103005000D03*
X129222250Y-103005000D03*
D29*
X125230000Y-65090000D03*
D43*
X127667500Y-57225000D03*
X129317500Y-57225000D03*
D31*
X79430000Y-133730000D03*
D21*
X72590000Y-125620000D03*
X70940000Y-125620000D03*
D52*
X50850000Y-67720000D03*
X50210000Y-67720000D03*
D34*
X47520000Y-67680000D03*
X48540000Y-67680000D03*
D39*
X96417500Y-135417500D03*
X96417500Y-137067500D03*
D22*
X75317500Y-56915000D03*
X75317500Y-57865000D03*
X75317500Y-58815000D03*
X77592500Y-58815000D03*
X77592500Y-56915000D03*
D39*
X91600000Y-138565000D03*
X91600000Y-140215000D03*
D53*
X120120000Y-139720000D03*
X120120000Y-139080000D03*
D54*
X121482500Y-93220000D03*
X123057500Y-93220000D03*
D43*
X129262250Y-101405000D03*
X130912250Y-101405000D03*
D55*
X90205000Y-62815000D03*
X93205000Y-62815000D03*
D34*
X49900000Y-68600000D03*
X50920000Y-68600000D03*
D56*
X61770000Y-62990000D03*
D44*
X94982500Y-132110000D03*
X93787500Y-132110000D03*
D21*
X96210000Y-133760000D03*
X94560000Y-133760000D03*
D57*
X58902500Y-76020000D03*
X57177500Y-76020000D03*
D34*
X48180000Y-75180000D03*
X49200000Y-75180000D03*
D37*
X47000000Y-54000000D03*
D38*
X47000000Y-56540000D03*
X49540000Y-54000000D03*
X49540000Y-56540000D03*
X52080000Y-54000000D03*
X52080000Y-56540000D03*
X54620000Y-54000000D03*
X54620000Y-56540000D03*
X57160000Y-54000000D03*
X57160000Y-56540000D03*
X59700000Y-54000000D03*
X59700000Y-56540000D03*
D27*
X132230000Y-78350000D03*
X132230000Y-77390000D03*
D58*
X104987500Y-62850000D03*
X111087500Y-62850000D03*
D39*
X69930000Y-141605000D03*
X69930000Y-143255000D03*
D27*
X65310000Y-117242500D03*
X65310000Y-116282500D03*
D51*
X126167500Y-55650000D03*
X126167500Y-57225000D03*
D55*
X65855000Y-62570000D03*
X68855000Y-62570000D03*
D59*
X131955000Y-60612500D03*
X131955000Y-58787500D03*
D60*
X126047250Y-104905000D03*
X126047250Y-103955000D03*
X126047250Y-103005000D03*
X123772250Y-103005000D03*
X123772250Y-104905000D03*
D56*
X76950000Y-144420000D03*
D61*
X69960000Y-137235000D03*
D62*
X68485000Y-135710000D03*
X71435000Y-135710000D03*
D21*
X67335000Y-80400000D03*
X65685000Y-80400000D03*
D54*
X121552500Y-94770000D03*
X123127500Y-94770000D03*
D63*
X136355000Y-132480160D03*
X136355000Y-143900000D03*
D64*
X130005000Y-142630000D03*
D65*
X127465000Y-141370160D03*
X130005000Y-140090000D03*
X127465000Y-138830160D03*
X130005000Y-137550000D03*
X127465000Y-136290160D03*
X130005000Y-135010000D03*
X127465000Y-133750160D03*
D66*
X141254914Y-144815162D03*
X141254914Y-142275162D03*
X141254914Y-134104998D03*
X141254914Y-131564998D03*
D67*
X133304968Y-145940128D03*
X133304968Y-130440032D03*
D41*
X66240000Y-144830000D03*
X66880000Y-144830000D03*
D47*
X126130000Y-115010000D03*
X126130000Y-113990000D03*
D46*
X97610000Y-124100000D03*
X98910000Y-124100000D03*
D68*
X66467500Y-82585000D03*
X66467500Y-83085000D03*
X66467500Y-83585000D03*
X66467500Y-84085000D03*
X66467500Y-84585000D03*
X66467500Y-85085000D03*
X66467500Y-85585000D03*
X66467500Y-86085000D03*
X66467500Y-86585000D03*
X66467500Y-87085000D03*
X66467500Y-87585000D03*
X66467500Y-88085000D03*
D69*
X67155000Y-88772500D03*
X67655000Y-88772500D03*
X68155000Y-88772500D03*
X68655000Y-88772500D03*
X69155000Y-88772500D03*
X69655000Y-88772500D03*
X70155000Y-88772500D03*
X70655000Y-88772500D03*
X71155000Y-88772500D03*
X71655000Y-88772500D03*
X72155000Y-88772500D03*
X72655000Y-88772500D03*
D68*
X73342500Y-88085000D03*
X73342500Y-87585000D03*
X73342500Y-87085000D03*
X73342500Y-86585000D03*
X73342500Y-86085000D03*
X73342500Y-85585000D03*
X73342500Y-85085000D03*
X73342500Y-84585000D03*
X73342500Y-84085000D03*
X73342500Y-83585000D03*
X73342500Y-83085000D03*
X73342500Y-82585000D03*
D69*
X72655000Y-81897500D03*
X72155000Y-81897500D03*
X71655000Y-81897500D03*
X71155000Y-81897500D03*
X70655000Y-81897500D03*
X70155000Y-81897500D03*
X69655000Y-81897500D03*
X69155000Y-81897500D03*
X68655000Y-81897500D03*
X68155000Y-81897500D03*
X67655000Y-81897500D03*
X67155000Y-81897500D03*
D70*
X69905000Y-85335000D03*
D71*
X96135000Y-140130000D03*
D72*
X97660000Y-138655000D03*
X97660000Y-141605000D03*
D73*
X141217500Y-57875000D03*
X141217500Y-59700000D03*
D37*
X109000000Y-54000000D03*
D38*
X109000000Y-56540000D03*
X111540000Y-54000000D03*
X111540000Y-56540000D03*
X114080000Y-54000000D03*
X114080000Y-56540000D03*
X116620000Y-54000000D03*
X116620000Y-56540000D03*
X119160000Y-54000000D03*
X119160000Y-56540000D03*
X121700000Y-54000000D03*
X121700000Y-56540000D03*
D29*
X140540000Y-79100000D03*
D27*
X126910000Y-79043000D03*
X126910000Y-78083000D03*
D74*
X72110000Y-80400000D03*
X71150000Y-80400000D03*
D75*
X130710000Y-77163000D03*
X128510000Y-77163000D03*
X128510000Y-78863000D03*
X130710000Y-78863000D03*
D76*
X142175000Y-63640000D03*
X139225000Y-63640000D03*
D77*
X99375002Y-57695000D03*
X100075001Y-57695000D03*
D78*
X100850000Y-57770001D03*
X100850000Y-57270000D03*
X100850000Y-56770000D03*
X100850000Y-56269999D03*
D77*
X100075001Y-56345000D03*
X99375002Y-56345000D03*
D78*
X98550002Y-56269999D03*
X98550002Y-56770000D03*
X98550002Y-57270000D03*
X98550002Y-57770001D03*
D49*
X133767500Y-62400000D03*
X131942500Y-62400000D03*
D71*
X85572500Y-130800000D03*
D72*
X84047500Y-132275000D03*
X84047500Y-129325000D03*
D45*
X127767250Y-103050000D03*
X127767250Y-101400000D03*
X94930000Y-58540000D03*
X94930000Y-56890000D03*
D39*
X89630000Y-138575000D03*
X89630000Y-140225000D03*
D21*
X80867500Y-57010000D03*
X79217500Y-57010000D03*
D74*
X72325000Y-116977500D03*
X71365000Y-116977500D03*
D79*
X75975000Y-125712500D03*
X76925000Y-125712500D03*
X77875000Y-125712500D03*
X77875000Y-123437500D03*
X75975000Y-123437500D03*
D25*
X90222500Y-130745000D03*
X91947500Y-130745000D03*
D71*
X85162500Y-140460000D03*
D72*
X83637500Y-141935000D03*
X83637500Y-138985000D03*
D80*
X131550000Y-73686000D03*
X131550000Y-73178000D03*
X131550000Y-72670000D03*
X131550000Y-72162000D03*
X131550000Y-71654000D03*
X131550000Y-71146000D03*
X131550000Y-70638000D03*
X131550000Y-70130000D03*
D81*
X130876900Y-69456900D03*
X130368900Y-69456900D03*
X129860900Y-69456900D03*
X129352900Y-69456900D03*
X128844900Y-69456900D03*
X128336900Y-69456900D03*
X127828900Y-69456900D03*
X127320900Y-69456900D03*
D80*
X126647800Y-70130000D03*
X126647800Y-70638000D03*
X126647800Y-71146000D03*
X126647800Y-71654000D03*
X126647800Y-72162000D03*
X126647800Y-72670000D03*
X126647800Y-73178000D03*
X126647800Y-73686000D03*
D81*
X127320900Y-74359100D03*
X127828900Y-74359100D03*
X128336900Y-74359100D03*
X128844900Y-74359100D03*
X129352900Y-74359100D03*
X129860900Y-74359100D03*
X130368900Y-74359100D03*
X130876900Y-74359100D03*
D29*
X71720000Y-54490000D03*
D40*
X112290000Y-125390000D03*
X111270000Y-125390000D03*
D82*
X66580000Y-79090000D03*
X67540000Y-79090000D03*
D39*
X88817500Y-57860000D03*
X88817500Y-59510000D03*
D83*
X139467500Y-58012500D03*
X138517500Y-58012500D03*
X137567500Y-58012500D03*
X137567500Y-60287500D03*
X139467500Y-60287500D03*
D45*
X64930000Y-137655000D03*
X64930000Y-136005000D03*
D84*
X89796500Y-144160000D03*
D85*
X89746500Y-144560000D03*
X89746500Y-144960000D03*
X89746500Y-145360000D03*
D86*
X89991500Y-146005000D03*
X90391500Y-146005000D03*
X90791500Y-146005000D03*
X91191500Y-146005000D03*
D85*
X91436500Y-145360000D03*
X91436500Y-144960000D03*
X91436500Y-144560000D03*
X91436500Y-144160000D03*
D86*
X91191500Y-143515000D03*
X90791500Y-143515000D03*
X90391500Y-143515000D03*
X89991500Y-143515000D03*
D87*
X105230000Y-53682500D03*
X105230000Y-56182500D03*
D29*
X85290000Y-72900000D03*
D45*
X69015000Y-123815000D03*
X69015000Y-122165000D03*
D29*
X61770000Y-60280000D03*
D37*
X130605000Y-124575000D03*
D38*
X130605000Y-122035000D03*
X130605000Y-119495000D03*
X130605000Y-116955000D03*
X130605000Y-114415000D03*
X130605000Y-111875000D03*
X133145000Y-124575000D03*
X133145000Y-122035000D03*
X133145000Y-119495000D03*
X133145000Y-116955000D03*
X133145000Y-114415000D03*
X133145000Y-111875000D03*
D22*
X127855000Y-58787500D03*
X127855000Y-59737500D03*
X127855000Y-60687500D03*
X130130000Y-60687500D03*
X130130000Y-58787500D03*
D45*
X84867500Y-136905000D03*
X84867500Y-135255000D03*
D53*
X66820000Y-56220000D03*
X66820000Y-55580000D03*
D44*
X131507500Y-75613000D03*
X130312500Y-75613000D03*
D61*
X69900000Y-144535000D03*
D62*
X71375000Y-146060000D03*
X68425000Y-146060000D03*
D45*
X78165000Y-129162500D03*
X78165000Y-127512500D03*
D82*
X75975000Y-127417500D03*
X76935000Y-127417500D03*
D88*
X94767500Y-135367500D03*
X94767500Y-137092500D03*
D52*
X85460000Y-127720000D03*
X84820000Y-127720000D03*
D89*
X86445000Y-78195000D03*
X86445000Y-76645000D03*
D25*
X63195000Y-140815000D03*
X64920000Y-140815000D03*
D45*
X74265000Y-127215000D03*
X74265000Y-125565000D03*
D90*
X89691500Y-142607500D03*
X89691500Y-141412500D03*
D21*
X88620000Y-130840000D03*
X86970000Y-130840000D03*
D48*
X71190000Y-62530000D03*
X71190000Y-64530000D03*
D27*
X94630000Y-60815000D03*
X94630000Y-59855000D03*
D29*
X65870000Y-123800000D03*
X69570000Y-128830000D03*
D91*
X87037500Y-132260000D03*
X88232500Y-132260000D03*
D39*
X86860000Y-127710000D03*
X86860000Y-129360000D03*
D30*
X52160000Y-90710000D03*
X52146663Y-79284562D03*
D92*
X61050000Y-79270000D03*
D93*
X58510000Y-80440000D03*
X61050000Y-81810000D03*
X58510000Y-82980000D03*
X61050000Y-84350000D03*
X58510000Y-85520000D03*
X61050000Y-86890000D03*
X58510000Y-88060000D03*
X61050000Y-89430000D03*
X58510000Y-90600000D03*
D38*
X47270000Y-78360000D03*
X47270000Y-80900000D03*
X47270000Y-89080000D03*
X47270000Y-91620000D03*
D94*
X55220000Y-92730000D03*
X55220000Y-77250000D03*
D39*
X96430000Y-59190000D03*
X96430000Y-60840000D03*
D27*
X87505000Y-58745000D03*
X87505000Y-57785000D03*
D29*
X103600000Y-131800000D03*
D43*
X85660000Y-133610000D03*
X87310000Y-133610000D03*
D41*
X96760000Y-127560000D03*
X97400000Y-127560000D03*
D46*
X90660000Y-125600000D03*
X89360000Y-125600000D03*
D95*
X92797500Y-137135000D03*
X92797500Y-136485000D03*
X92797500Y-135835000D03*
X92797500Y-135185000D03*
X88572500Y-135185000D03*
X88572500Y-135835000D03*
X88572500Y-136485000D03*
X88572500Y-137135000D03*
D34*
X48140000Y-73370000D03*
X49160000Y-73370000D03*
D39*
X71955000Y-59240000D03*
X71955000Y-60890000D03*
D45*
X90060000Y-129225000D03*
X90060000Y-127575000D03*
D37*
X117310000Y-125470000D03*
D38*
X117310000Y-128010000D03*
X119850000Y-125470000D03*
X119850000Y-128010000D03*
X122390000Y-125470000D03*
X122390000Y-128010000D03*
D43*
X103540000Y-57660000D03*
X105190000Y-57660000D03*
D45*
X72575000Y-128805000D03*
X72575000Y-127155000D03*
D53*
X66240000Y-117110000D03*
X66240000Y-116470000D03*
D59*
X125892500Y-60650000D03*
X125892500Y-58825000D03*
D55*
X74555000Y-61965000D03*
X77555000Y-61965000D03*
D71*
X96610000Y-130715000D03*
D72*
X98135000Y-129240000D03*
X98135000Y-132190000D03*
D56*
X115890000Y-142100000D03*
D43*
X93570000Y-130740000D03*
X95220000Y-130740000D03*
X123205000Y-138890000D03*
X124855000Y-138890000D03*
D52*
X72070000Y-117860000D03*
X71430000Y-117860000D03*
X50860000Y-70480000D03*
X50220000Y-70480000D03*
D21*
X88155000Y-140370000D03*
X86505000Y-140370000D03*
D45*
X65000000Y-143925000D03*
X65000000Y-142275000D03*
D55*
X83005000Y-61815000D03*
X86005000Y-61815000D03*
D29*
X122660000Y-62130000D03*
D53*
X75945000Y-121797500D03*
X75945000Y-121157500D03*
D43*
X133430000Y-57100000D03*
X135080000Y-57100000D03*
D96*
X69000000Y-76610000D03*
X69000000Y-78810000D03*
X70700000Y-78810000D03*
X70700000Y-76610000D03*
D22*
X83730000Y-56765000D03*
X83730000Y-57715000D03*
X83730000Y-58665000D03*
X86005000Y-58665000D03*
X86005000Y-56765000D03*
D75*
X90440000Y-76560000D03*
X88240000Y-76560000D03*
X88240000Y-78260000D03*
X90440000Y-78260000D03*
D97*
X91600000Y-142587500D03*
X91600000Y-141392500D03*
D39*
X80692500Y-58485000D03*
X80692500Y-60135000D03*
D45*
X69920000Y-140245000D03*
X69920000Y-138595000D03*
D29*
X113160000Y-142260000D03*
D98*
X70735000Y-123797500D03*
X72635000Y-123797500D03*
X71685000Y-121922500D03*
D45*
X70405000Y-58840000D03*
X70405000Y-57190000D03*
D22*
X90805000Y-57715000D03*
X90805000Y-58665000D03*
X90805000Y-59615000D03*
X93080000Y-59615000D03*
X93080000Y-57715000D03*
D29*
X141230000Y-83380000D03*
X120722250Y-102810000D03*
D99*
X138430000Y-67480000D03*
X138430000Y-73260000D03*
D100*
X142080000Y-66050000D03*
D101*
X137900000Y-66050000D03*
D100*
X142080000Y-74690000D03*
D101*
X137900000Y-74690000D03*
%LPD*%
M02*
