G04 #@! TF.GenerationSoftware,KiCad,Pcbnew,9.0.3-9.0.3-0~ubuntu24.04.1*
G04 #@! TF.CreationDate,2025-08-06T18:11:09+02:00*
G04 #@! TF.ProjectId,acoustic-carrier-board,61636f75-7374-4696-932d-636172726965,rev?*
G04 #@! TF.SameCoordinates,Original*
G04 #@! TF.FileFunction,Paste,Bot*
G04 #@! TF.FilePolarity,Positive*
%FSLAX46Y46*%
G04 Gerber Fmt 4.6, Leading zero omitted, Abs format (unit mm)*
G04 Created by KiCad (PCBNEW 9.0.3-9.0.3-0~ubuntu24.04.1) date 2025-08-06 18:11:09*
%MOMM*%
%LPD*%
G01*
G04 APERTURE LIST*
G04 Aperture macros list*
%AMRoundRect*
0 Rectangle with rounded corners*
0 $1 Rounding radius*
0 $2 $3 $4 $5 $6 $7 $8 $9 X,Y pos of 4 corners*
0 Add a 4 corners polygon primitive as box body*
4,1,4,$2,$3,$4,$5,$6,$7,$8,$9,$2,$3,0*
0 Add four circle primitives for the rounded corners*
1,1,$1+$1,$2,$3*
1,1,$1+$1,$4,$5*
1,1,$1+$1,$6,$7*
1,1,$1+$1,$8,$9*
0 Add four rect primitives between the rounded corners*
20,1,$1+$1,$2,$3,$4,$5,0*
20,1,$1+$1,$4,$5,$6,$7,0*
20,1,$1+$1,$6,$7,$8,$9,0*
20,1,$1+$1,$8,$9,$2,$3,0*%
G04 Aperture macros list end*
%ADD10R,1.350000X1.800000*%
%ADD11RoundRect,0.079500X-0.100500X0.079500X-0.100500X-0.079500X0.100500X-0.079500X0.100500X0.079500X0*%
%ADD12RoundRect,0.250000X-0.250000X-0.475000X0.250000X-0.475000X0.250000X0.475000X-0.250000X0.475000X0*%
%ADD13RoundRect,0.225000X0.250000X-0.225000X0.250000X0.225000X-0.250000X0.225000X-0.250000X-0.225000X0*%
%ADD14RoundRect,0.079500X0.079500X0.100500X-0.079500X0.100500X-0.079500X-0.100500X0.079500X-0.100500X0*%
%ADD15RoundRect,0.200000X-0.275000X0.200000X-0.275000X-0.200000X0.275000X-0.200000X0.275000X0.200000X0*%
%ADD16RoundRect,0.079500X-0.079500X-0.100500X0.079500X-0.100500X0.079500X0.100500X-0.079500X0.100500X0*%
%ADD17RoundRect,0.225000X-0.225000X-0.250000X0.225000X-0.250000X0.225000X0.250000X-0.225000X0.250000X0*%
%ADD18RoundRect,0.079500X0.100500X-0.079500X0.100500X0.079500X-0.100500X0.079500X-0.100500X-0.079500X0*%
%ADD19RoundRect,0.218750X0.256250X-0.218750X0.256250X0.218750X-0.256250X0.218750X-0.256250X-0.218750X0*%
%ADD20RoundRect,0.218750X-0.218750X-0.256250X0.218750X-0.256250X0.218750X0.256250X-0.218750X0.256250X0*%
%ADD21RoundRect,0.237500X0.237500X-0.250000X0.237500X0.250000X-0.237500X0.250000X-0.237500X-0.250000X0*%
%ADD22RoundRect,0.200000X0.200000X0.275000X-0.200000X0.275000X-0.200000X-0.275000X0.200000X-0.275000X0*%
%ADD23RoundRect,0.218750X-0.256250X0.218750X-0.256250X-0.218750X0.256250X-0.218750X0.256250X0.218750X0*%
%ADD24R,1.450000X0.600000*%
%ADD25R,1.450000X0.300000*%
%ADD26RoundRect,0.140000X0.170000X-0.140000X0.170000X0.140000X-0.170000X0.140000X-0.170000X-0.140000X0*%
%ADD27RoundRect,0.225000X-0.250000X0.225000X-0.250000X-0.225000X0.250000X-0.225000X0.250000X0.225000X0*%
%ADD28RoundRect,0.200000X-0.200000X-0.275000X0.200000X-0.275000X0.200000X0.275000X-0.200000X0.275000X0*%
%ADD29RoundRect,0.135000X0.185000X-0.135000X0.185000X0.135000X-0.185000X0.135000X-0.185000X-0.135000X0*%
%ADD30RoundRect,0.237500X0.237500X-0.300000X0.237500X0.300000X-0.237500X0.300000X-0.237500X-0.300000X0*%
%ADD31R,0.800000X0.500000*%
%ADD32R,0.800000X0.400000*%
%ADD33RoundRect,0.135000X-0.135000X-0.185000X0.135000X-0.185000X0.135000X0.185000X-0.135000X0.185000X0*%
%ADD34RoundRect,0.112500X0.112500X-0.187500X0.112500X0.187500X-0.112500X0.187500X-0.112500X-0.187500X0*%
%ADD35RoundRect,0.160000X0.160000X-0.197500X0.160000X0.197500X-0.160000X0.197500X-0.160000X-0.197500X0*%
%ADD36RoundRect,0.200000X0.275000X-0.200000X0.275000X0.200000X-0.275000X0.200000X-0.275000X-0.200000X0*%
%ADD37RoundRect,0.140000X-0.170000X0.140000X-0.170000X-0.140000X0.170000X-0.140000X0.170000X0.140000X0*%
%ADD38RoundRect,0.225000X0.225000X0.250000X-0.225000X0.250000X-0.225000X-0.250000X0.225000X-0.250000X0*%
%ADD39RoundRect,0.140000X-0.140000X-0.170000X0.140000X-0.170000X0.140000X0.170000X-0.140000X0.170000X0*%
%ADD40RoundRect,0.140000X0.140000X0.170000X-0.140000X0.170000X-0.140000X-0.170000X0.140000X-0.170000X0*%
%ADD41RoundRect,0.250000X-0.450000X0.350000X-0.450000X-0.350000X0.450000X-0.350000X0.450000X0.350000X0*%
%ADD42RoundRect,0.162500X-0.162500X0.650000X-0.162500X-0.650000X0.162500X-0.650000X0.162500X0.650000X0*%
%ADD43R,1.050000X1.000000*%
%ADD44R,2.200000X1.050000*%
%ADD45RoundRect,0.250000X0.475000X-0.250000X0.475000X0.250000X-0.475000X0.250000X-0.475000X-0.250000X0*%
%ADD46RoundRect,0.135000X0.135000X0.185000X-0.135000X0.185000X-0.135000X-0.185000X0.135000X-0.185000X0*%
%ADD47RoundRect,0.135000X-0.185000X0.135000X-0.185000X-0.135000X0.185000X-0.135000X0.185000X0.135000X0*%
G04 APERTURE END LIST*
D10*
X108445000Y-125180000D03*
X112595000Y-125180000D03*
D11*
X113140000Y-96375000D03*
X113140000Y-97065000D03*
X70960000Y-83125000D03*
X70960000Y-83815000D03*
D12*
X70805000Y-62595000D03*
X72705000Y-62595000D03*
D13*
X79255000Y-60140000D03*
X79255000Y-58590000D03*
D14*
X86945000Y-86570000D03*
X86255000Y-86570000D03*
D10*
X51325000Y-70720000D03*
X47175000Y-70720000D03*
D15*
X49370000Y-92675000D03*
X49370000Y-94325000D03*
D16*
X87745000Y-86560000D03*
X88435000Y-86560000D03*
D17*
X93367500Y-135780000D03*
X94917500Y-135780000D03*
D11*
X72460000Y-81985000D03*
X72460000Y-82675000D03*
D13*
X96400000Y-60855000D03*
X96400000Y-59305000D03*
D16*
X87725000Y-88180000D03*
X88415000Y-88180000D03*
D18*
X111500000Y-91585000D03*
X111500000Y-90895000D03*
D19*
X69140000Y-79037500D03*
X69140000Y-77462500D03*
D20*
X140542500Y-63680000D03*
X142117500Y-63680000D03*
D21*
X129060000Y-131712500D03*
X129060000Y-129887500D03*
D16*
X87735000Y-85770000D03*
X88425000Y-85770000D03*
D14*
X73235000Y-84470000D03*
X72545000Y-84470000D03*
D11*
X88860000Y-123235000D03*
X88860000Y-123925000D03*
X128290000Y-70005000D03*
X128290000Y-70695000D03*
D14*
X89635000Y-77520000D03*
X88945000Y-77520000D03*
D18*
X128292500Y-60582500D03*
X128292500Y-59892500D03*
D11*
X71710000Y-83455000D03*
X71710000Y-84145000D03*
D22*
X135085000Y-79370000D03*
X133435000Y-79370000D03*
D18*
X135260000Y-76535000D03*
X135260000Y-75845000D03*
D23*
X94185000Y-118582500D03*
X94185000Y-120157500D03*
D24*
X136985000Y-67120000D03*
X136985000Y-67920000D03*
D25*
X136985000Y-69120000D03*
X136985000Y-70120000D03*
X136985000Y-70620000D03*
X136985000Y-71620000D03*
D24*
X136985000Y-72820000D03*
X136985000Y-73620000D03*
X136985000Y-73620000D03*
X136985000Y-72820000D03*
D25*
X136985000Y-72120000D03*
X136985000Y-71120000D03*
X136985000Y-69620000D03*
X136985000Y-68620000D03*
D24*
X136985000Y-67920000D03*
X136985000Y-67120000D03*
D26*
X135680000Y-60580000D03*
X135680000Y-59620000D03*
D13*
X121570000Y-93165000D03*
X121570000Y-91615000D03*
D14*
X93295000Y-86610000D03*
X92605000Y-86610000D03*
D17*
X88710000Y-121370000D03*
X90260000Y-121370000D03*
D18*
X68742500Y-88330000D03*
X68742500Y-87640000D03*
X71810000Y-88425000D03*
X71810000Y-87735000D03*
D14*
X108255000Y-96400000D03*
X107565000Y-96400000D03*
D27*
X70660000Y-77465000D03*
X70660000Y-79015000D03*
D28*
X100365002Y-56179999D03*
X102015002Y-56179999D03*
D29*
X79730000Y-85130000D03*
X79730000Y-84110000D03*
D15*
X95660000Y-121575000D03*
X95660000Y-123225000D03*
D22*
X134855000Y-72530000D03*
X133205000Y-72530000D03*
D14*
X112315000Y-90040000D03*
X111625000Y-90040000D03*
D29*
X73240000Y-80630000D03*
X73240000Y-79610000D03*
D18*
X92860000Y-122145000D03*
X92860000Y-121455000D03*
D16*
X87735000Y-87310000D03*
X88425000Y-87310000D03*
D30*
X62810000Y-130472500D03*
X62810000Y-128747500D03*
D26*
X130092500Y-60747500D03*
X130092500Y-59787500D03*
D31*
X137510000Y-119250000D03*
D32*
X137510000Y-118450000D03*
X137510000Y-117650000D03*
D31*
X137510000Y-116850000D03*
X139310000Y-116850000D03*
D32*
X139310000Y-117650000D03*
X139310000Y-118450000D03*
D31*
X139310000Y-119250000D03*
D18*
X67730000Y-88395000D03*
X67730000Y-87705000D03*
D33*
X50470000Y-122140000D03*
X51490000Y-122140000D03*
D16*
X117975000Y-96450000D03*
X118665000Y-96450000D03*
D34*
X75160000Y-78960000D03*
X75160000Y-76860000D03*
D18*
X115520000Y-90775000D03*
X115520000Y-90085000D03*
D31*
X51650000Y-113620000D03*
D32*
X51650000Y-114420000D03*
X51650000Y-115220000D03*
D31*
X51650000Y-116020000D03*
X49850000Y-116020000D03*
D32*
X49850000Y-115220000D03*
X49850000Y-114420000D03*
D31*
X49850000Y-113620000D03*
D35*
X88600000Y-137887500D03*
X88600000Y-136692500D03*
D11*
X109930000Y-90105000D03*
X109930000Y-90795000D03*
D13*
X83010000Y-79335000D03*
X83010000Y-77785000D03*
D36*
X90745000Y-78195000D03*
X90745000Y-76545000D03*
D11*
X94930000Y-93075000D03*
X94930000Y-93765000D03*
D16*
X116335000Y-96430000D03*
X117025000Y-96430000D03*
D18*
X127310000Y-74033000D03*
X127310000Y-73343000D03*
D16*
X66875000Y-84780000D03*
X67565000Y-84780000D03*
D37*
X75255000Y-56905000D03*
X75255000Y-57865000D03*
D16*
X66797500Y-86585000D03*
X67487500Y-86585000D03*
D22*
X79545000Y-78150000D03*
X77895000Y-78150000D03*
X139480000Y-135960000D03*
X137830000Y-135960000D03*
D13*
X65342500Y-84060000D03*
X65342500Y-82510000D03*
D14*
X86905000Y-87410000D03*
X86215000Y-87410000D03*
D22*
X139480000Y-140510000D03*
X137830000Y-140510000D03*
D11*
X109120000Y-90100000D03*
X109120000Y-90790000D03*
D38*
X81400000Y-80130000D03*
X79850000Y-80130000D03*
D18*
X86890000Y-89790000D03*
X86890000Y-89100000D03*
X106690000Y-96455000D03*
X106690000Y-95765000D03*
X91660000Y-89015000D03*
X91660000Y-88325000D03*
D22*
X137445000Y-63920000D03*
X135795000Y-63920000D03*
D37*
X95780000Y-93340000D03*
X95780000Y-94300000D03*
D14*
X90885000Y-87450000D03*
X90195000Y-87450000D03*
D18*
X92630000Y-117245000D03*
X92630000Y-116555000D03*
D11*
X73142500Y-85485000D03*
X73142500Y-86175000D03*
X71730000Y-81985000D03*
X71730000Y-82675000D03*
D14*
X73287500Y-87485000D03*
X72597500Y-87485000D03*
D39*
X90930000Y-85000000D03*
X91890000Y-85000000D03*
D40*
X86310000Y-90700000D03*
X85350000Y-90700000D03*
D28*
X133485000Y-77810000D03*
X135135000Y-77810000D03*
D31*
X78230000Y-85950000D03*
D32*
X78230000Y-86750000D03*
X78230000Y-87550000D03*
D31*
X78230000Y-88350000D03*
X76430000Y-88350000D03*
D32*
X76430000Y-87550000D03*
X76430000Y-86750000D03*
D31*
X76430000Y-85950000D03*
D14*
X90870000Y-56350000D03*
X90180000Y-56350000D03*
D16*
X91415000Y-121470000D03*
X92105000Y-121470000D03*
D22*
X136430000Y-135960000D03*
X134780000Y-135960000D03*
D40*
X87430000Y-84870000D03*
X86470000Y-84870000D03*
D41*
X93040000Y-63820000D03*
X93040000Y-65820000D03*
D13*
X87505000Y-59440000D03*
X87505000Y-57890000D03*
D14*
X86885000Y-85750000D03*
X86195000Y-85750000D03*
X92212500Y-135580000D03*
X91522500Y-135580000D03*
D40*
X128610000Y-72420000D03*
X127650000Y-72420000D03*
D11*
X89320000Y-86615000D03*
X89320000Y-87305000D03*
D36*
X49150000Y-86155000D03*
X49150000Y-84505000D03*
D11*
X90160000Y-123210000D03*
X90160000Y-123900000D03*
D42*
X65940000Y-110582500D03*
X67210000Y-110582500D03*
X68480000Y-110582500D03*
X69750000Y-110582500D03*
X69750000Y-117757500D03*
X68480000Y-117757500D03*
X67210000Y-117757500D03*
X65940000Y-117757500D03*
D43*
X124580000Y-135780160D03*
D44*
X123055000Y-137255160D03*
X123055000Y-134305160D03*
D43*
X64317500Y-128520000D03*
D44*
X65842500Y-127045000D03*
X65842500Y-129995000D03*
D40*
X67150000Y-58360000D03*
X66190000Y-58360000D03*
D22*
X133335000Y-75188000D03*
X131685000Y-75188000D03*
D20*
X49252500Y-73410000D03*
X50827500Y-73410000D03*
D27*
X74700000Y-84575000D03*
X74700000Y-86125000D03*
D14*
X113865000Y-90850000D03*
X113175000Y-90850000D03*
D27*
X94060000Y-121650000D03*
X94060000Y-123200000D03*
D14*
X112275000Y-96410000D03*
X111585000Y-96410000D03*
X131175000Y-71460000D03*
X130485000Y-71460000D03*
D11*
X90200000Y-89835000D03*
X90200000Y-90525000D03*
D14*
X90895000Y-86650000D03*
X90205000Y-86650000D03*
D12*
X94955000Y-62615000D03*
X96855000Y-62615000D03*
D16*
X90955000Y-89800000D03*
X91645000Y-89800000D03*
D18*
X88510000Y-89755000D03*
X88510000Y-89065000D03*
D45*
X92285000Y-120320000D03*
X92285000Y-118420000D03*
D11*
X69742500Y-82240000D03*
X69742500Y-82930000D03*
D28*
X130545000Y-55490000D03*
X132195000Y-55490000D03*
D18*
X69642500Y-88410000D03*
X69642500Y-87720000D03*
D31*
X51850000Y-118260000D03*
D32*
X51850000Y-119060000D03*
X51850000Y-119860000D03*
D31*
X51850000Y-120660000D03*
X50050000Y-120660000D03*
D32*
X50050000Y-119860000D03*
X50050000Y-119060000D03*
D31*
X50050000Y-118260000D03*
D14*
X90045000Y-85850000D03*
X89355000Y-85850000D03*
D15*
X95660000Y-124635000D03*
X95660000Y-126285000D03*
D46*
X67380000Y-57360000D03*
X66360000Y-57360000D03*
D23*
X64990000Y-87230000D03*
X64990000Y-88805000D03*
D15*
X126172250Y-103680000D03*
X126172250Y-105330000D03*
D30*
X62860000Y-134672500D03*
X62860000Y-132947500D03*
D28*
X134805000Y-140510000D03*
X136455000Y-140510000D03*
D13*
X84590000Y-79335000D03*
X84590000Y-77785000D03*
D46*
X77310000Y-84020000D03*
X76290000Y-84020000D03*
D15*
X86330000Y-138825000D03*
X86330000Y-140475000D03*
D14*
X113885000Y-95650000D03*
X113195000Y-95650000D03*
D18*
X138567500Y-59157500D03*
X138567500Y-58467500D03*
D16*
X89140000Y-122470000D03*
X89830000Y-122470000D03*
D21*
X98840000Y-56100000D03*
X98840000Y-54275000D03*
D11*
X69042500Y-82240000D03*
X69042500Y-82930000D03*
D10*
X51330000Y-67180000D03*
X47180000Y-67180000D03*
D41*
X85580000Y-62600000D03*
X85580000Y-64600000D03*
D14*
X92192500Y-136280000D03*
X91502500Y-136280000D03*
D28*
X78265000Y-82700000D03*
X79915000Y-82700000D03*
D13*
X94820000Y-60885000D03*
X94820000Y-59335000D03*
D14*
X129837500Y-58767500D03*
X129147500Y-58767500D03*
D18*
X128010000Y-74013000D03*
X128010000Y-73323000D03*
X124072250Y-104850000D03*
X124072250Y-104160000D03*
D14*
X86920000Y-88160000D03*
X86230000Y-88160000D03*
D19*
X66550000Y-90827500D03*
X66550000Y-89252500D03*
D11*
X109090000Y-95725000D03*
X109090000Y-96415000D03*
D15*
X49410000Y-89565000D03*
X49410000Y-91215000D03*
D28*
X100365002Y-57779999D03*
X102015002Y-57779999D03*
D16*
X66842500Y-85885000D03*
X67532500Y-85885000D03*
X117915000Y-90070000D03*
X118605000Y-90070000D03*
D14*
X135525000Y-58700000D03*
X134835000Y-58700000D03*
D40*
X89440000Y-78470000D03*
X88480000Y-78470000D03*
D20*
X49302500Y-75160000D03*
X50877500Y-75160000D03*
D36*
X49110000Y-82915000D03*
X49110000Y-81265000D03*
D14*
X90785000Y-89050000D03*
X90095000Y-89050000D03*
D38*
X69107500Y-80485000D03*
X67557500Y-80485000D03*
D16*
X90955000Y-85870000D03*
X91645000Y-85870000D03*
D13*
X70355000Y-60870000D03*
X70355000Y-59320000D03*
X89005000Y-59440000D03*
X89005000Y-57890000D03*
D16*
X116395000Y-90040000D03*
X117085000Y-90040000D03*
D40*
X130590000Y-70608000D03*
X129630000Y-70608000D03*
D37*
X83567500Y-56735000D03*
X83567500Y-57695000D03*
D47*
X76630000Y-78100000D03*
X76630000Y-79120000D03*
D13*
X80855000Y-60140000D03*
X80855000Y-58590000D03*
D18*
X86100000Y-89755000D03*
X86100000Y-89065000D03*
D22*
X131855000Y-65120000D03*
X130205000Y-65120000D03*
D26*
X129610000Y-72468000D03*
X129610000Y-71508000D03*
D14*
X139412500Y-57687500D03*
X138722500Y-57687500D03*
D16*
X115555000Y-91510000D03*
X116245000Y-91510000D03*
X66697500Y-82685000D03*
X67387500Y-82685000D03*
D28*
X103445000Y-57660000D03*
X105095000Y-57660000D03*
D12*
X87655000Y-61265000D03*
X89555000Y-61265000D03*
D28*
X127805000Y-57210000D03*
X129455000Y-57210000D03*
D42*
X72380000Y-110512500D03*
X73650000Y-110512500D03*
X74920000Y-110512500D03*
X76190000Y-110512500D03*
X76190000Y-117687500D03*
X74920000Y-117687500D03*
X73650000Y-117687500D03*
X72380000Y-117687500D03*
D40*
X96420000Y-81570000D03*
X95460000Y-81570000D03*
D11*
X75935000Y-126410000D03*
X75935000Y-127100000D03*
D28*
X75235000Y-82730000D03*
X76885000Y-82730000D03*
D17*
X95045000Y-64370000D03*
X96595000Y-64370000D03*
D18*
X133655000Y-60445000D03*
X133655000Y-59755000D03*
D13*
X93785000Y-116845000D03*
X93785000Y-115295000D03*
D18*
X106750000Y-90745000D03*
X106750000Y-90055000D03*
D14*
X90795000Y-88260000D03*
X90105000Y-88260000D03*
D16*
X66297500Y-87985000D03*
X66987500Y-87985000D03*
D28*
X133430000Y-57100000D03*
X135080000Y-57100000D03*
D18*
X87700000Y-89745000D03*
X87700000Y-89055000D03*
D28*
X126205000Y-55660000D03*
X127855000Y-55660000D03*
D40*
X74580000Y-89500000D03*
X73620000Y-89500000D03*
D18*
X89250000Y-89750000D03*
X89250000Y-89060000D03*
D16*
X66895000Y-84030000D03*
X67585000Y-84030000D03*
D22*
X101930000Y-54620000D03*
X100280000Y-54620000D03*
D18*
X112350000Y-95685000D03*
X112350000Y-94995000D03*
D13*
X71855000Y-60870000D03*
X71855000Y-59320000D03*
D11*
X98490002Y-57314999D03*
X98490002Y-58004999D03*
D18*
X129410000Y-74133000D03*
X129410000Y-73443000D03*
D20*
X88075000Y-74910000D03*
X89650000Y-74910000D03*
D40*
X83920000Y-93860000D03*
X82960000Y-93860000D03*
D43*
X124530000Y-140080160D03*
D44*
X123005000Y-141555160D03*
X123005000Y-138605160D03*
D28*
X85665000Y-120430000D03*
X87315000Y-120430000D03*
D43*
X64305000Y-132960000D03*
D44*
X65830000Y-131485000D03*
X65830000Y-134435000D03*
D14*
X91115000Y-144860000D03*
X90425000Y-144860000D03*
D31*
X137330000Y-125260000D03*
D32*
X137330000Y-124460000D03*
X137330000Y-123660000D03*
D31*
X137330000Y-122860000D03*
X139130000Y-122860000D03*
D32*
X139130000Y-123660000D03*
X139130000Y-124460000D03*
D31*
X139130000Y-125260000D03*
D11*
X127602250Y-103200000D03*
X127602250Y-103890000D03*
X127530000Y-69935000D03*
X127530000Y-70625000D03*
D17*
X68095000Y-89500000D03*
X69645000Y-89500000D03*
D27*
X121600000Y-94755000D03*
X121600000Y-96305000D03*
D18*
X107560000Y-95595000D03*
X107560000Y-94905000D03*
X130210000Y-74013000D03*
X130210000Y-73323000D03*
X76530000Y-77255000D03*
X76530000Y-76565000D03*
D38*
X89205000Y-79800000D03*
X87655000Y-79800000D03*
D15*
X94910000Y-138605000D03*
X94910000Y-140255000D03*
D14*
X110695000Y-96430000D03*
X110005000Y-96430000D03*
D17*
X79355000Y-63720000D03*
X80905000Y-63720000D03*
D15*
X97310000Y-54625000D03*
X97310000Y-56275000D03*
D29*
X74380000Y-81470000D03*
X74380000Y-80450000D03*
D14*
X108285000Y-90030000D03*
X107595000Y-90030000D03*
D37*
X90430000Y-57685000D03*
X90430000Y-58645000D03*
D12*
X79270000Y-61970000D03*
X81170000Y-61970000D03*
D14*
X93295000Y-87380000D03*
X92605000Y-87380000D03*
M02*
