G04 #@! TF.GenerationSoftware,KiCad,Pcbnew,9.0.3-9.0.3-0~ubuntu24.04.1*
G04 #@! TF.CreationDate,2025-07-29T10:54:51+02:00*
G04 #@! TF.ProjectId,acoustic-carrier-board,61636f75-7374-4696-932d-636172726965,rev?*
G04 #@! TF.SameCoordinates,Original*
G04 #@! TF.FileFunction,Legend,Top*
G04 #@! TF.FilePolarity,Positive*
%FSLAX46Y46*%
G04 Gerber Fmt 4.6, Leading zero omitted, Abs format (unit mm)*
G04 Created by KiCad (PCBNEW 9.0.3-9.0.3-0~ubuntu24.04.1) date 2025-07-29 10:54:51*
%MOMM*%
%LPD*%
G01*
G04 APERTURE LIST*
%ADD10C,0.160000*%
%ADD11C,0.254000*%
%ADD12C,0.120000*%
%ADD13C,0.200000*%
%ADD14C,0.150000*%
%ADD15C,0.399999*%
%ADD16C,0.152400*%
%ADD17C,0.000000*%
%ADD18C,0.127000*%
%ADD19C,0.250000*%
%ADD20C,0.410000*%
G04 APERTURE END LIST*
D10*
X139170501Y-76099299D02*
X139503834Y-77099299D01*
X139503834Y-77099299D02*
X139837167Y-76099299D01*
X140503834Y-76575489D02*
X140646691Y-76623108D01*
X140646691Y-76623108D02*
X140694310Y-76670727D01*
X140694310Y-76670727D02*
X140741929Y-76765965D01*
X140741929Y-76765965D02*
X140741929Y-76908822D01*
X140741929Y-76908822D02*
X140694310Y-77004060D01*
X140694310Y-77004060D02*
X140646691Y-77051680D01*
X140646691Y-77051680D02*
X140551453Y-77099299D01*
X140551453Y-77099299D02*
X140170501Y-77099299D01*
X140170501Y-77099299D02*
X140170501Y-76099299D01*
X140170501Y-76099299D02*
X140503834Y-76099299D01*
X140503834Y-76099299D02*
X140599072Y-76146918D01*
X140599072Y-76146918D02*
X140646691Y-76194537D01*
X140646691Y-76194537D02*
X140694310Y-76289775D01*
X140694310Y-76289775D02*
X140694310Y-76385013D01*
X140694310Y-76385013D02*
X140646691Y-76480251D01*
X140646691Y-76480251D02*
X140599072Y-76527870D01*
X140599072Y-76527870D02*
X140503834Y-76575489D01*
X140503834Y-76575489D02*
X140170501Y-76575489D01*
X141170501Y-76099299D02*
X141170501Y-76908822D01*
X141170501Y-76908822D02*
X141218120Y-77004060D01*
X141218120Y-77004060D02*
X141265739Y-77051680D01*
X141265739Y-77051680D02*
X141360977Y-77099299D01*
X141360977Y-77099299D02*
X141551453Y-77099299D01*
X141551453Y-77099299D02*
X141646691Y-77051680D01*
X141646691Y-77051680D02*
X141694310Y-77004060D01*
X141694310Y-77004060D02*
X141741929Y-76908822D01*
X141741929Y-76908822D02*
X141741929Y-76099299D01*
X142170501Y-77051680D02*
X142313358Y-77099299D01*
X142313358Y-77099299D02*
X142551453Y-77099299D01*
X142551453Y-77099299D02*
X142646691Y-77051680D01*
X142646691Y-77051680D02*
X142694310Y-77004060D01*
X142694310Y-77004060D02*
X142741929Y-76908822D01*
X142741929Y-76908822D02*
X142741929Y-76813584D01*
X142741929Y-76813584D02*
X142694310Y-76718346D01*
X142694310Y-76718346D02*
X142646691Y-76670727D01*
X142646691Y-76670727D02*
X142551453Y-76623108D01*
X142551453Y-76623108D02*
X142360977Y-76575489D01*
X142360977Y-76575489D02*
X142265739Y-76527870D01*
X142265739Y-76527870D02*
X142218120Y-76480251D01*
X142218120Y-76480251D02*
X142170501Y-76385013D01*
X142170501Y-76385013D02*
X142170501Y-76289775D01*
X142170501Y-76289775D02*
X142218120Y-76194537D01*
X142218120Y-76194537D02*
X142265739Y-76146918D01*
X142265739Y-76146918D02*
X142360977Y-76099299D01*
X142360977Y-76099299D02*
X142599072Y-76099299D01*
X142599072Y-76099299D02*
X142741929Y-76146918D01*
X117654786Y-65374060D02*
X117607167Y-65421680D01*
X117607167Y-65421680D02*
X117464310Y-65469299D01*
X117464310Y-65469299D02*
X117369072Y-65469299D01*
X117369072Y-65469299D02*
X117226215Y-65421680D01*
X117226215Y-65421680D02*
X117130977Y-65326441D01*
X117130977Y-65326441D02*
X117083358Y-65231203D01*
X117083358Y-65231203D02*
X117035739Y-65040727D01*
X117035739Y-65040727D02*
X117035739Y-64897870D01*
X117035739Y-64897870D02*
X117083358Y-64707394D01*
X117083358Y-64707394D02*
X117130977Y-64612156D01*
X117130977Y-64612156D02*
X117226215Y-64516918D01*
X117226215Y-64516918D02*
X117369072Y-64469299D01*
X117369072Y-64469299D02*
X117464310Y-64469299D01*
X117464310Y-64469299D02*
X117607167Y-64516918D01*
X117607167Y-64516918D02*
X117654786Y-64564537D01*
X118654786Y-65374060D02*
X118607167Y-65421680D01*
X118607167Y-65421680D02*
X118464310Y-65469299D01*
X118464310Y-65469299D02*
X118369072Y-65469299D01*
X118369072Y-65469299D02*
X118226215Y-65421680D01*
X118226215Y-65421680D02*
X118130977Y-65326441D01*
X118130977Y-65326441D02*
X118083358Y-65231203D01*
X118083358Y-65231203D02*
X118035739Y-65040727D01*
X118035739Y-65040727D02*
X118035739Y-64897870D01*
X118035739Y-64897870D02*
X118083358Y-64707394D01*
X118083358Y-64707394D02*
X118130977Y-64612156D01*
X118130977Y-64612156D02*
X118226215Y-64516918D01*
X118226215Y-64516918D02*
X118369072Y-64469299D01*
X118369072Y-64469299D02*
X118464310Y-64469299D01*
X118464310Y-64469299D02*
X118607167Y-64516918D01*
X118607167Y-64516918D02*
X118654786Y-64564537D01*
X118845263Y-65564537D02*
X119607167Y-65564537D01*
X119702406Y-64469299D02*
X120035739Y-65469299D01*
X120035739Y-65469299D02*
X120369072Y-64469299D01*
X121273834Y-65469299D02*
X120940501Y-64993108D01*
X120702406Y-65469299D02*
X120702406Y-64469299D01*
X120702406Y-64469299D02*
X121083358Y-64469299D01*
X121083358Y-64469299D02*
X121178596Y-64516918D01*
X121178596Y-64516918D02*
X121226215Y-64564537D01*
X121226215Y-64564537D02*
X121273834Y-64659775D01*
X121273834Y-64659775D02*
X121273834Y-64802632D01*
X121273834Y-64802632D02*
X121226215Y-64897870D01*
X121226215Y-64897870D02*
X121178596Y-64945489D01*
X121178596Y-64945489D02*
X121083358Y-64993108D01*
X121083358Y-64993108D02*
X120702406Y-64993108D01*
X121702406Y-64945489D02*
X122035739Y-64945489D01*
X122178596Y-65469299D02*
X121702406Y-65469299D01*
X121702406Y-65469299D02*
X121702406Y-64469299D01*
X121702406Y-64469299D02*
X122178596Y-64469299D01*
X122940501Y-64945489D02*
X122607168Y-64945489D01*
X122607168Y-65469299D02*
X122607168Y-64469299D01*
X122607168Y-64469299D02*
X123083358Y-64469299D01*
X74839548Y-53339299D02*
X74363358Y-53339299D01*
X74363358Y-53339299D02*
X74315739Y-53815489D01*
X74315739Y-53815489D02*
X74363358Y-53767870D01*
X74363358Y-53767870D02*
X74458596Y-53720251D01*
X74458596Y-53720251D02*
X74696691Y-53720251D01*
X74696691Y-53720251D02*
X74791929Y-53767870D01*
X74791929Y-53767870D02*
X74839548Y-53815489D01*
X74839548Y-53815489D02*
X74887167Y-53910727D01*
X74887167Y-53910727D02*
X74887167Y-54148822D01*
X74887167Y-54148822D02*
X74839548Y-54244060D01*
X74839548Y-54244060D02*
X74791929Y-54291680D01*
X74791929Y-54291680D02*
X74696691Y-54339299D01*
X74696691Y-54339299D02*
X74458596Y-54339299D01*
X74458596Y-54339299D02*
X74363358Y-54291680D01*
X74363358Y-54291680D02*
X74315739Y-54244060D01*
X75172882Y-53339299D02*
X75506215Y-54339299D01*
X75506215Y-54339299D02*
X75839548Y-53339299D01*
X63594786Y-147659299D02*
X63261453Y-147183108D01*
X63023358Y-147659299D02*
X63023358Y-146659299D01*
X63023358Y-146659299D02*
X63404310Y-146659299D01*
X63404310Y-146659299D02*
X63499548Y-146706918D01*
X63499548Y-146706918D02*
X63547167Y-146754537D01*
X63547167Y-146754537D02*
X63594786Y-146849775D01*
X63594786Y-146849775D02*
X63594786Y-146992632D01*
X63594786Y-146992632D02*
X63547167Y-147087870D01*
X63547167Y-147087870D02*
X63499548Y-147135489D01*
X63499548Y-147135489D02*
X63404310Y-147183108D01*
X63404310Y-147183108D02*
X63023358Y-147183108D01*
X64309072Y-146659299D02*
X64309072Y-147373584D01*
X64309072Y-147373584D02*
X64261453Y-147516441D01*
X64261453Y-147516441D02*
X64166215Y-147611680D01*
X64166215Y-147611680D02*
X64023358Y-147659299D01*
X64023358Y-147659299D02*
X63928120Y-147659299D01*
X65213834Y-146992632D02*
X65213834Y-147659299D01*
X64975739Y-146611680D02*
X64737644Y-147325965D01*
X64737644Y-147325965D02*
X65356691Y-147325965D01*
X66213834Y-146659299D02*
X65737644Y-146659299D01*
X65737644Y-146659299D02*
X65690025Y-147135489D01*
X65690025Y-147135489D02*
X65737644Y-147087870D01*
X65737644Y-147087870D02*
X65832882Y-147040251D01*
X65832882Y-147040251D02*
X66070977Y-147040251D01*
X66070977Y-147040251D02*
X66166215Y-147087870D01*
X66166215Y-147087870D02*
X66213834Y-147135489D01*
X66213834Y-147135489D02*
X66261453Y-147230727D01*
X66261453Y-147230727D02*
X66261453Y-147468822D01*
X66261453Y-147468822D02*
X66213834Y-147564060D01*
X66213834Y-147564060D02*
X66166215Y-147611680D01*
X66166215Y-147611680D02*
X66070977Y-147659299D01*
X66070977Y-147659299D02*
X65832882Y-147659299D01*
X65832882Y-147659299D02*
X65737644Y-147611680D01*
X65737644Y-147611680D02*
X65690025Y-147564060D01*
X66587167Y-67449299D02*
X66015739Y-67449299D01*
X66301453Y-67449299D02*
X66301453Y-66449299D01*
X66301453Y-66449299D02*
X66206215Y-66592156D01*
X66206215Y-66592156D02*
X66110977Y-66687394D01*
X66110977Y-66687394D02*
X66015739Y-66735013D01*
X66872882Y-66449299D02*
X67206215Y-67449299D01*
X67206215Y-67449299D02*
X67539548Y-66449299D01*
X67825263Y-66544537D02*
X67872882Y-66496918D01*
X67872882Y-66496918D02*
X67968120Y-66449299D01*
X67968120Y-66449299D02*
X68206215Y-66449299D01*
X68206215Y-66449299D02*
X68301453Y-66496918D01*
X68301453Y-66496918D02*
X68349072Y-66544537D01*
X68349072Y-66544537D02*
X68396691Y-66639775D01*
X68396691Y-66639775D02*
X68396691Y-66735013D01*
X68396691Y-66735013D02*
X68349072Y-66877870D01*
X68349072Y-66877870D02*
X67777644Y-67449299D01*
X67777644Y-67449299D02*
X68396691Y-67449299D01*
X126094786Y-53954060D02*
X126047167Y-54001680D01*
X126047167Y-54001680D02*
X125904310Y-54049299D01*
X125904310Y-54049299D02*
X125809072Y-54049299D01*
X125809072Y-54049299D02*
X125666215Y-54001680D01*
X125666215Y-54001680D02*
X125570977Y-53906441D01*
X125570977Y-53906441D02*
X125523358Y-53811203D01*
X125523358Y-53811203D02*
X125475739Y-53620727D01*
X125475739Y-53620727D02*
X125475739Y-53477870D01*
X125475739Y-53477870D02*
X125523358Y-53287394D01*
X125523358Y-53287394D02*
X125570977Y-53192156D01*
X125570977Y-53192156D02*
X125666215Y-53096918D01*
X125666215Y-53096918D02*
X125809072Y-53049299D01*
X125809072Y-53049299D02*
X125904310Y-53049299D01*
X125904310Y-53049299D02*
X126047167Y-53096918D01*
X126047167Y-53096918D02*
X126094786Y-53144537D01*
X127094786Y-53954060D02*
X127047167Y-54001680D01*
X127047167Y-54001680D02*
X126904310Y-54049299D01*
X126904310Y-54049299D02*
X126809072Y-54049299D01*
X126809072Y-54049299D02*
X126666215Y-54001680D01*
X126666215Y-54001680D02*
X126570977Y-53906441D01*
X126570977Y-53906441D02*
X126523358Y-53811203D01*
X126523358Y-53811203D02*
X126475739Y-53620727D01*
X126475739Y-53620727D02*
X126475739Y-53477870D01*
X126475739Y-53477870D02*
X126523358Y-53287394D01*
X126523358Y-53287394D02*
X126570977Y-53192156D01*
X126570977Y-53192156D02*
X126666215Y-53096918D01*
X126666215Y-53096918D02*
X126809072Y-53049299D01*
X126809072Y-53049299D02*
X126904310Y-53049299D01*
X126904310Y-53049299D02*
X127047167Y-53096918D01*
X127047167Y-53096918D02*
X127094786Y-53144537D01*
X128047167Y-54049299D02*
X127475739Y-54049299D01*
X127761453Y-54049299D02*
X127761453Y-53049299D01*
X127761453Y-53049299D02*
X127666215Y-53192156D01*
X127666215Y-53192156D02*
X127570977Y-53287394D01*
X127570977Y-53287394D02*
X127475739Y-53335013D01*
X130774786Y-53964060D02*
X130727167Y-54011680D01*
X130727167Y-54011680D02*
X130584310Y-54059299D01*
X130584310Y-54059299D02*
X130489072Y-54059299D01*
X130489072Y-54059299D02*
X130346215Y-54011680D01*
X130346215Y-54011680D02*
X130250977Y-53916441D01*
X130250977Y-53916441D02*
X130203358Y-53821203D01*
X130203358Y-53821203D02*
X130155739Y-53630727D01*
X130155739Y-53630727D02*
X130155739Y-53487870D01*
X130155739Y-53487870D02*
X130203358Y-53297394D01*
X130203358Y-53297394D02*
X130250977Y-53202156D01*
X130250977Y-53202156D02*
X130346215Y-53106918D01*
X130346215Y-53106918D02*
X130489072Y-53059299D01*
X130489072Y-53059299D02*
X130584310Y-53059299D01*
X130584310Y-53059299D02*
X130727167Y-53106918D01*
X130727167Y-53106918D02*
X130774786Y-53154537D01*
X131774786Y-53964060D02*
X131727167Y-54011680D01*
X131727167Y-54011680D02*
X131584310Y-54059299D01*
X131584310Y-54059299D02*
X131489072Y-54059299D01*
X131489072Y-54059299D02*
X131346215Y-54011680D01*
X131346215Y-54011680D02*
X131250977Y-53916441D01*
X131250977Y-53916441D02*
X131203358Y-53821203D01*
X131203358Y-53821203D02*
X131155739Y-53630727D01*
X131155739Y-53630727D02*
X131155739Y-53487870D01*
X131155739Y-53487870D02*
X131203358Y-53297394D01*
X131203358Y-53297394D02*
X131250977Y-53202156D01*
X131250977Y-53202156D02*
X131346215Y-53106918D01*
X131346215Y-53106918D02*
X131489072Y-53059299D01*
X131489072Y-53059299D02*
X131584310Y-53059299D01*
X131584310Y-53059299D02*
X131727167Y-53106918D01*
X131727167Y-53106918D02*
X131774786Y-53154537D01*
X132155739Y-53154537D02*
X132203358Y-53106918D01*
X132203358Y-53106918D02*
X132298596Y-53059299D01*
X132298596Y-53059299D02*
X132536691Y-53059299D01*
X132536691Y-53059299D02*
X132631929Y-53106918D01*
X132631929Y-53106918D02*
X132679548Y-53154537D01*
X132679548Y-53154537D02*
X132727167Y-53249775D01*
X132727167Y-53249775D02*
X132727167Y-53345013D01*
X132727167Y-53345013D02*
X132679548Y-53487870D01*
X132679548Y-53487870D02*
X132108120Y-54059299D01*
X132108120Y-54059299D02*
X132727167Y-54059299D01*
X115683358Y-59999299D02*
X115683358Y-58999299D01*
X115683358Y-58999299D02*
X116064310Y-58999299D01*
X116064310Y-58999299D02*
X116159548Y-59046918D01*
X116159548Y-59046918D02*
X116207167Y-59094537D01*
X116207167Y-59094537D02*
X116254786Y-59189775D01*
X116254786Y-59189775D02*
X116254786Y-59332632D01*
X116254786Y-59332632D02*
X116207167Y-59427870D01*
X116207167Y-59427870D02*
X116159548Y-59475489D01*
X116159548Y-59475489D02*
X116064310Y-59523108D01*
X116064310Y-59523108D02*
X115683358Y-59523108D01*
X117254786Y-59904060D02*
X117207167Y-59951680D01*
X117207167Y-59951680D02*
X117064310Y-59999299D01*
X117064310Y-59999299D02*
X116969072Y-59999299D01*
X116969072Y-59999299D02*
X116826215Y-59951680D01*
X116826215Y-59951680D02*
X116730977Y-59856441D01*
X116730977Y-59856441D02*
X116683358Y-59761203D01*
X116683358Y-59761203D02*
X116635739Y-59570727D01*
X116635739Y-59570727D02*
X116635739Y-59427870D01*
X116635739Y-59427870D02*
X116683358Y-59237394D01*
X116683358Y-59237394D02*
X116730977Y-59142156D01*
X116730977Y-59142156D02*
X116826215Y-59046918D01*
X116826215Y-59046918D02*
X116969072Y-58999299D01*
X116969072Y-58999299D02*
X117064310Y-58999299D01*
X117064310Y-58999299D02*
X117207167Y-59046918D01*
X117207167Y-59046918D02*
X117254786Y-59094537D01*
X117873834Y-58999299D02*
X118064310Y-58999299D01*
X118064310Y-58999299D02*
X118159548Y-59046918D01*
X118159548Y-59046918D02*
X118254786Y-59142156D01*
X118254786Y-59142156D02*
X118302405Y-59332632D01*
X118302405Y-59332632D02*
X118302405Y-59665965D01*
X118302405Y-59665965D02*
X118254786Y-59856441D01*
X118254786Y-59856441D02*
X118159548Y-59951680D01*
X118159548Y-59951680D02*
X118064310Y-59999299D01*
X118064310Y-59999299D02*
X117873834Y-59999299D01*
X117873834Y-59999299D02*
X117778596Y-59951680D01*
X117778596Y-59951680D02*
X117683358Y-59856441D01*
X117683358Y-59856441D02*
X117635739Y-59665965D01*
X117635739Y-59665965D02*
X117635739Y-59332632D01*
X117635739Y-59332632D02*
X117683358Y-59142156D01*
X117683358Y-59142156D02*
X117778596Y-59046918D01*
X117778596Y-59046918D02*
X117873834Y-58999299D01*
X118730977Y-59999299D02*
X118730977Y-58999299D01*
X118730977Y-58999299D02*
X119302405Y-59999299D01*
X119302405Y-59999299D02*
X119302405Y-58999299D01*
X119778596Y-59999299D02*
X119778596Y-58999299D01*
X119778596Y-58999299D02*
X120350024Y-59999299D01*
X120350024Y-59999299D02*
X120350024Y-58999299D01*
X118894786Y-147099299D02*
X118561453Y-146623108D01*
X118323358Y-147099299D02*
X118323358Y-146099299D01*
X118323358Y-146099299D02*
X118704310Y-146099299D01*
X118704310Y-146099299D02*
X118799548Y-146146918D01*
X118799548Y-146146918D02*
X118847167Y-146194537D01*
X118847167Y-146194537D02*
X118894786Y-146289775D01*
X118894786Y-146289775D02*
X118894786Y-146432632D01*
X118894786Y-146432632D02*
X118847167Y-146527870D01*
X118847167Y-146527870D02*
X118799548Y-146575489D01*
X118799548Y-146575489D02*
X118704310Y-146623108D01*
X118704310Y-146623108D02*
X118323358Y-146623108D01*
X119609072Y-146099299D02*
X119609072Y-146813584D01*
X119609072Y-146813584D02*
X119561453Y-146956441D01*
X119561453Y-146956441D02*
X119466215Y-147051680D01*
X119466215Y-147051680D02*
X119323358Y-147099299D01*
X119323358Y-147099299D02*
X119228120Y-147099299D01*
X120513834Y-146432632D02*
X120513834Y-147099299D01*
X120275739Y-146051680D02*
X120037644Y-146765965D01*
X120037644Y-146765965D02*
X120656691Y-146765965D01*
X121513834Y-146099299D02*
X121037644Y-146099299D01*
X121037644Y-146099299D02*
X120990025Y-146575489D01*
X120990025Y-146575489D02*
X121037644Y-146527870D01*
X121037644Y-146527870D02*
X121132882Y-146480251D01*
X121132882Y-146480251D02*
X121370977Y-146480251D01*
X121370977Y-146480251D02*
X121466215Y-146527870D01*
X121466215Y-146527870D02*
X121513834Y-146575489D01*
X121513834Y-146575489D02*
X121561453Y-146670727D01*
X121561453Y-146670727D02*
X121561453Y-146908822D01*
X121561453Y-146908822D02*
X121513834Y-147004060D01*
X121513834Y-147004060D02*
X121466215Y-147051680D01*
X121466215Y-147051680D02*
X121370977Y-147099299D01*
X121370977Y-147099299D02*
X121132882Y-147099299D01*
X121132882Y-147099299D02*
X121037644Y-147051680D01*
X121037644Y-147051680D02*
X120990025Y-147004060D01*
X121751930Y-147194537D02*
X122513834Y-147194537D01*
X122751930Y-147099299D02*
X122751930Y-146099299D01*
X123180501Y-147051680D02*
X123323358Y-147099299D01*
X123323358Y-147099299D02*
X123561453Y-147099299D01*
X123561453Y-147099299D02*
X123656691Y-147051680D01*
X123656691Y-147051680D02*
X123704310Y-147004060D01*
X123704310Y-147004060D02*
X123751929Y-146908822D01*
X123751929Y-146908822D02*
X123751929Y-146813584D01*
X123751929Y-146813584D02*
X123704310Y-146718346D01*
X123704310Y-146718346D02*
X123656691Y-146670727D01*
X123656691Y-146670727D02*
X123561453Y-146623108D01*
X123561453Y-146623108D02*
X123370977Y-146575489D01*
X123370977Y-146575489D02*
X123275739Y-146527870D01*
X123275739Y-146527870D02*
X123228120Y-146480251D01*
X123228120Y-146480251D02*
X123180501Y-146385013D01*
X123180501Y-146385013D02*
X123180501Y-146289775D01*
X123180501Y-146289775D02*
X123228120Y-146194537D01*
X123228120Y-146194537D02*
X123275739Y-146146918D01*
X123275739Y-146146918D02*
X123370977Y-146099299D01*
X123370977Y-146099299D02*
X123609072Y-146099299D01*
X123609072Y-146099299D02*
X123751929Y-146146918D01*
X124370977Y-146099299D02*
X124561453Y-146099299D01*
X124561453Y-146099299D02*
X124656691Y-146146918D01*
X124656691Y-146146918D02*
X124751929Y-146242156D01*
X124751929Y-146242156D02*
X124799548Y-146432632D01*
X124799548Y-146432632D02*
X124799548Y-146765965D01*
X124799548Y-146765965D02*
X124751929Y-146956441D01*
X124751929Y-146956441D02*
X124656691Y-147051680D01*
X124656691Y-147051680D02*
X124561453Y-147099299D01*
X124561453Y-147099299D02*
X124370977Y-147099299D01*
X124370977Y-147099299D02*
X124275739Y-147051680D01*
X124275739Y-147051680D02*
X124180501Y-146956441D01*
X124180501Y-146956441D02*
X124132882Y-146765965D01*
X124132882Y-146765965D02*
X124132882Y-146432632D01*
X124132882Y-146432632D02*
X124180501Y-146242156D01*
X124180501Y-146242156D02*
X124275739Y-146146918D01*
X124275739Y-146146918D02*
X124370977Y-146099299D01*
X83690501Y-69659299D02*
X84023834Y-70659299D01*
X84023834Y-70659299D02*
X84357167Y-69659299D01*
X84642882Y-70373584D02*
X85119072Y-70373584D01*
X84547644Y-70659299D02*
X84880977Y-69659299D01*
X84880977Y-69659299D02*
X85214310Y-70659299D01*
X85547644Y-69659299D02*
X85547644Y-70468822D01*
X85547644Y-70468822D02*
X85595263Y-70564060D01*
X85595263Y-70564060D02*
X85642882Y-70611680D01*
X85642882Y-70611680D02*
X85738120Y-70659299D01*
X85738120Y-70659299D02*
X85928596Y-70659299D01*
X85928596Y-70659299D02*
X86023834Y-70611680D01*
X86023834Y-70611680D02*
X86071453Y-70564060D01*
X86071453Y-70564060D02*
X86119072Y-70468822D01*
X86119072Y-70468822D02*
X86119072Y-69659299D01*
X86500025Y-69659299D02*
X87166691Y-70659299D01*
X87166691Y-69659299D02*
X86500025Y-70659299D01*
X51913358Y-75235489D02*
X52246691Y-75235489D01*
X52389548Y-75759299D02*
X51913358Y-75759299D01*
X51913358Y-75759299D02*
X51913358Y-74759299D01*
X51913358Y-74759299D02*
X52389548Y-74759299D01*
X52675263Y-74759299D02*
X53246691Y-74759299D01*
X52960977Y-75759299D02*
X52960977Y-74759299D01*
X53580025Y-75759299D02*
X53580025Y-74759299D01*
X53580025Y-75235489D02*
X54151453Y-75235489D01*
X54151453Y-75759299D02*
X54151453Y-74759299D01*
D11*
X114284318Y-96304048D02*
X113014318Y-96304048D01*
X114163365Y-94973571D02*
X114223842Y-95034047D01*
X114223842Y-95034047D02*
X114284318Y-95215476D01*
X114284318Y-95215476D02*
X114284318Y-95336428D01*
X114284318Y-95336428D02*
X114223842Y-95517857D01*
X114223842Y-95517857D02*
X114102889Y-95638809D01*
X114102889Y-95638809D02*
X113981937Y-95699286D01*
X113981937Y-95699286D02*
X113740032Y-95759762D01*
X113740032Y-95759762D02*
X113558603Y-95759762D01*
X113558603Y-95759762D02*
X113316699Y-95699286D01*
X113316699Y-95699286D02*
X113195746Y-95638809D01*
X113195746Y-95638809D02*
X113074794Y-95517857D01*
X113074794Y-95517857D02*
X113014318Y-95336428D01*
X113014318Y-95336428D02*
X113014318Y-95215476D01*
X113014318Y-95215476D02*
X113074794Y-95034047D01*
X113074794Y-95034047D02*
X113135270Y-94973571D01*
X114284318Y-93764047D02*
X114284318Y-94489762D01*
X114284318Y-94126905D02*
X113014318Y-94126905D01*
X113014318Y-94126905D02*
X113195746Y-94247857D01*
X113195746Y-94247857D02*
X113316699Y-94368809D01*
X113316699Y-94368809D02*
X113377175Y-94489762D01*
X114284318Y-92554523D02*
X114284318Y-93280238D01*
X114284318Y-92917381D02*
X113014318Y-92917381D01*
X113014318Y-92917381D02*
X113195746Y-93038333D01*
X113195746Y-93038333D02*
X113316699Y-93159285D01*
X113316699Y-93159285D02*
X113377175Y-93280238D01*
X113014318Y-91768333D02*
X113014318Y-91647380D01*
X113014318Y-91647380D02*
X113074794Y-91526428D01*
X113074794Y-91526428D02*
X113135270Y-91465952D01*
X113135270Y-91465952D02*
X113256222Y-91405476D01*
X113256222Y-91405476D02*
X113498127Y-91344999D01*
X113498127Y-91344999D02*
X113800508Y-91344999D01*
X113800508Y-91344999D02*
X114042413Y-91405476D01*
X114042413Y-91405476D02*
X114163365Y-91465952D01*
X114163365Y-91465952D02*
X114223842Y-91526428D01*
X114223842Y-91526428D02*
X114284318Y-91647380D01*
X114284318Y-91647380D02*
X114284318Y-91768333D01*
X114284318Y-91768333D02*
X114223842Y-91889285D01*
X114223842Y-91889285D02*
X114163365Y-91949761D01*
X114163365Y-91949761D02*
X114042413Y-92010238D01*
X114042413Y-92010238D02*
X113800508Y-92070714D01*
X113800508Y-92070714D02*
X113498127Y-92070714D01*
X113498127Y-92070714D02*
X113256222Y-92010238D01*
X113256222Y-92010238D02*
X113135270Y-91949761D01*
X113135270Y-91949761D02*
X113074794Y-91889285D01*
X113074794Y-91889285D02*
X113014318Y-91768333D01*
X114284318Y-90135475D02*
X114284318Y-90861190D01*
X114284318Y-90498333D02*
X113014318Y-90498333D01*
X113014318Y-90498333D02*
X113195746Y-90619285D01*
X113195746Y-90619285D02*
X113316699Y-90740237D01*
X113316699Y-90740237D02*
X113377175Y-90861190D01*
D10*
X132759999Y-74195700D02*
X132759999Y-73957605D01*
X132998094Y-74052843D02*
X132759999Y-73957605D01*
X132759999Y-73957605D02*
X132521904Y-74052843D01*
X132902856Y-73767129D02*
X132759999Y-73957605D01*
X132759999Y-73957605D02*
X132617142Y-73767129D01*
D12*
X88642258Y-55842500D02*
X88167742Y-55842500D01*
X88642258Y-56887500D02*
X88167742Y-56887500D01*
X134755000Y-58120000D02*
X133955000Y-58120000D01*
X134755000Y-58120000D02*
X135555000Y-58120000D01*
X134755000Y-61240000D02*
X133955000Y-61240000D01*
X134755000Y-61240000D02*
X135555000Y-61240000D01*
X133455000Y-58170000D02*
X133215000Y-57840000D01*
X133695000Y-57840000D01*
X133455000Y-58170000D01*
G36*
X133455000Y-58170000D02*
G01*
X133215000Y-57840000D01*
X133695000Y-57840000D01*
X133455000Y-58170000D01*
G37*
X92460000Y-124350000D02*
X94460000Y-124350000D01*
X92460000Y-127150000D02*
X92460000Y-124350000D01*
X94460000Y-124350000D02*
X94460000Y-127150000D01*
X94460000Y-127150000D02*
X92460000Y-127150000D01*
X86007500Y-136376267D02*
X86007500Y-136083733D01*
X87027500Y-136376267D02*
X87027500Y-136083733D01*
X63911233Y-138705000D02*
X64203767Y-138705000D01*
X63911233Y-139725000D02*
X64203767Y-139725000D01*
X126810000Y-119966359D02*
X126810000Y-120273641D01*
X127570000Y-119966359D02*
X127570000Y-120273641D01*
X78795000Y-59672836D02*
X78795000Y-59457164D01*
X79515000Y-59672836D02*
X79515000Y-59457164D01*
D13*
X105720000Y-89250000D02*
X119720000Y-89250000D01*
X105720000Y-96250000D02*
X105720000Y-89250000D01*
X106720000Y-97250000D02*
X105720000Y-96250000D01*
X119720000Y-89250000D02*
X119720000Y-97250000D01*
X119720000Y-97250000D02*
X106720000Y-97250000D01*
X105820000Y-97250000D02*
G75*
G02*
X105620000Y-97250000I-100000J0D01*
G01*
X105620000Y-97250000D02*
G75*
G02*
X105820000Y-97250000I100000J0D01*
G01*
D12*
X66240000Y-76940000D02*
G75*
G02*
X63240000Y-76940000I-1500000J0D01*
G01*
X63240000Y-76940000D02*
G75*
G02*
X66240000Y-76940000I1500000J0D01*
G01*
X44540000Y-145885000D02*
X44540000Y-129765000D01*
X46100000Y-129765000D02*
X44540000Y-129765000D01*
X46100000Y-145885000D02*
X44540000Y-145885000D01*
X56742000Y-128939000D02*
X57250000Y-129447000D01*
X57250000Y-129447000D02*
X57758000Y-128939000D01*
X57758000Y-128939000D02*
X56742000Y-128939000D01*
X61360000Y-129765000D02*
X49600000Y-129765000D01*
X61360000Y-145885000D02*
X49600000Y-145885000D01*
X61360000Y-145885000D02*
X61360000Y-129765000D01*
X50266359Y-69230000D02*
X50573641Y-69230000D01*
X50266359Y-69990000D02*
X50573641Y-69990000D01*
D14*
X83185000Y-116135000D02*
X83185000Y-121885000D01*
X83760000Y-116135000D02*
X83185000Y-116135000D01*
X83760000Y-121885000D02*
X83185000Y-121885000D01*
X93835000Y-116135000D02*
X93260000Y-116135000D01*
X93835000Y-116135000D02*
X93835000Y-121885000D01*
X93835000Y-121885000D02*
X93260000Y-121885000D01*
D12*
X93590000Y-115875000D02*
X93260000Y-115635000D01*
X93590000Y-115395000D01*
X93590000Y-115875000D01*
G36*
X93590000Y-115875000D02*
G01*
X93260000Y-115635000D01*
X93590000Y-115395000D01*
X93590000Y-115875000D01*
G37*
X102290002Y-53119999D02*
X101640002Y-53119999D01*
X102290002Y-53119999D02*
X102940002Y-53119999D01*
X102290002Y-56239999D02*
X101640002Y-56239999D01*
X102290002Y-56239999D02*
X102940002Y-56239999D01*
X103692502Y-56519999D02*
X103212502Y-56519999D01*
X103452502Y-56189999D01*
X103692502Y-56519999D01*
G36*
X103692502Y-56519999D02*
G01*
X103212502Y-56519999D01*
X103452502Y-56189999D01*
X103692502Y-56519999D01*
G37*
X70145000Y-60722836D02*
X70145000Y-60507164D01*
X70865000Y-60722836D02*
X70865000Y-60507164D01*
X45620000Y-111890000D02*
X45620000Y-127250000D01*
X45620000Y-111890000D02*
X54250000Y-111890000D01*
X45620000Y-112010000D02*
X54250000Y-112010000D01*
X45620000Y-112128095D02*
X54250000Y-112128095D01*
X45620000Y-112246190D02*
X54250000Y-112246190D01*
X45620000Y-112364285D02*
X54250000Y-112364285D01*
X45620000Y-112482380D02*
X54250000Y-112482380D01*
X45620000Y-112600475D02*
X54250000Y-112600475D01*
X45620000Y-112718570D02*
X54250000Y-112718570D01*
X45620000Y-112836665D02*
X54250000Y-112836665D01*
X45620000Y-112954760D02*
X54250000Y-112954760D01*
X45620000Y-113072855D02*
X54250000Y-113072855D01*
X45620000Y-113190950D02*
X54250000Y-113190950D01*
X45620000Y-113309045D02*
X54250000Y-113309045D01*
X45620000Y-113427140D02*
X54250000Y-113427140D01*
X45620000Y-113545235D02*
X54250000Y-113545235D01*
X45620000Y-113663330D02*
X54250000Y-113663330D01*
X45620000Y-113781425D02*
X54250000Y-113781425D01*
X45620000Y-113899520D02*
X54250000Y-113899520D01*
X45620000Y-114017615D02*
X54250000Y-114017615D01*
X45620000Y-114135710D02*
X54250000Y-114135710D01*
X45620000Y-114253805D02*
X54250000Y-114253805D01*
X45620000Y-114371900D02*
X54250000Y-114371900D01*
X45620000Y-114490000D02*
X54250000Y-114490000D01*
X45620000Y-117030000D02*
X54250000Y-117030000D01*
X45620000Y-119570000D02*
X54250000Y-119570000D01*
X45620000Y-122110000D02*
X54250000Y-122110000D01*
X45620000Y-124650000D02*
X54250000Y-124650000D01*
X45620000Y-127250000D02*
X54250000Y-127250000D01*
X54250000Y-111890000D02*
X54250000Y-127250000D01*
X54250000Y-112860000D02*
X54660000Y-112860000D01*
X54250000Y-113580000D02*
X54660000Y-113580000D01*
X54250000Y-115400000D02*
X54660000Y-115400000D01*
X54250000Y-116120000D02*
X54660000Y-116120000D01*
X54250000Y-117940000D02*
X54660000Y-117940000D01*
X54250000Y-118660000D02*
X54660000Y-118660000D01*
X54250000Y-120480000D02*
X54660000Y-120480000D01*
X54250000Y-121200000D02*
X54660000Y-121200000D01*
X54250000Y-123020000D02*
X54660000Y-123020000D01*
X54250000Y-123740000D02*
X54660000Y-123740000D01*
X54250000Y-125560000D02*
X54660000Y-125560000D01*
X54250000Y-126280000D02*
X54660000Y-126280000D01*
X56760000Y-112860000D02*
X57140000Y-112860000D01*
X56760000Y-113580000D02*
X57140000Y-113580000D01*
X56760000Y-115400000D02*
X57200000Y-115400000D01*
X56760000Y-116120000D02*
X57200000Y-116120000D01*
X56760000Y-117940000D02*
X57200000Y-117940000D01*
X56760000Y-118660000D02*
X57200000Y-118660000D01*
X56760000Y-120480000D02*
X57200000Y-120480000D01*
X56760000Y-121200000D02*
X57200000Y-121200000D01*
X56760000Y-123020000D02*
X57200000Y-123020000D01*
X56760000Y-123740000D02*
X57200000Y-123740000D01*
X56760000Y-125560000D02*
X57200000Y-125560000D01*
X56760000Y-126280000D02*
X57200000Y-126280000D01*
X58250000Y-111890000D02*
X59360000Y-111890000D01*
X59360000Y-111890000D02*
X59360000Y-113220000D01*
X95002500Y-128122742D02*
X95002500Y-128597258D01*
X96047500Y-128122742D02*
X96047500Y-128597258D01*
X91623641Y-55890000D02*
X91316359Y-55890000D01*
X91623641Y-56650000D02*
X91316359Y-56650000D01*
D13*
X81900000Y-81850000D02*
X82900000Y-80850000D01*
X81900000Y-94850000D02*
X81900000Y-81850000D01*
X82900000Y-80850000D02*
X95900000Y-80850000D01*
X95900000Y-80850000D02*
X95900000Y-94850000D01*
X95900000Y-94850000D02*
X81900000Y-94850000D01*
X82000000Y-80850000D02*
G75*
G02*
X81800000Y-80850000I-100000J0D01*
G01*
X81800000Y-80850000D02*
G75*
G02*
X82000000Y-80850000I100000J0D01*
G01*
D12*
X77737742Y-121145000D02*
X78212258Y-121145000D01*
X77737742Y-122190000D02*
X78212258Y-122190000D01*
X69610121Y-80105000D02*
X69274879Y-80105000D01*
X69610121Y-80865000D02*
X69274879Y-80865000D01*
X73742500Y-123527258D02*
X73742500Y-123052742D01*
X74787500Y-123527258D02*
X74787500Y-123052742D01*
X84260000Y-124140000D02*
X87060000Y-124140000D01*
X84260000Y-126140000D02*
X84260000Y-124140000D01*
X87060000Y-124140000D02*
X87060000Y-126140000D01*
X87060000Y-126140000D02*
X84260000Y-126140000D01*
X124610000Y-116653641D02*
X124610000Y-116346359D01*
X125370000Y-116653641D02*
X125370000Y-116346359D01*
X78745000Y-64622936D02*
X78745000Y-65077064D01*
X80215000Y-64622936D02*
X80215000Y-65077064D01*
X125599750Y-100942258D02*
X125599750Y-100467742D01*
X126644750Y-100942258D02*
X126644750Y-100467742D01*
X128973641Y-75233000D02*
X128666359Y-75233000D01*
X128973641Y-75993000D02*
X128666359Y-75993000D01*
X48016359Y-70100000D02*
X48323641Y-70100000D01*
X48016359Y-70860000D02*
X48323641Y-70860000D01*
X94197258Y-139657500D02*
X93722742Y-139657500D01*
X94197258Y-140702500D02*
X93722742Y-140702500D01*
X124049750Y-100467742D02*
X124049750Y-100942258D01*
X125094750Y-100467742D02*
X125094750Y-100942258D01*
X127034724Y-61802500D02*
X126525276Y-61802500D01*
X127034724Y-62847500D02*
X126525276Y-62847500D01*
X45665000Y-94565000D02*
X45665000Y-109925000D01*
X45665000Y-94565000D02*
X54295000Y-94565000D01*
X45665000Y-94685000D02*
X54295000Y-94685000D01*
X45665000Y-94803095D02*
X54295000Y-94803095D01*
X45665000Y-94921190D02*
X54295000Y-94921190D01*
X45665000Y-95039285D02*
X54295000Y-95039285D01*
X45665000Y-95157380D02*
X54295000Y-95157380D01*
X45665000Y-95275475D02*
X54295000Y-95275475D01*
X45665000Y-95393570D02*
X54295000Y-95393570D01*
X45665000Y-95511665D02*
X54295000Y-95511665D01*
X45665000Y-95629760D02*
X54295000Y-95629760D01*
X45665000Y-95747855D02*
X54295000Y-95747855D01*
X45665000Y-95865950D02*
X54295000Y-95865950D01*
X45665000Y-95984045D02*
X54295000Y-95984045D01*
X45665000Y-96102140D02*
X54295000Y-96102140D01*
X45665000Y-96220235D02*
X54295000Y-96220235D01*
X45665000Y-96338330D02*
X54295000Y-96338330D01*
X45665000Y-96456425D02*
X54295000Y-96456425D01*
X45665000Y-96574520D02*
X54295000Y-96574520D01*
X45665000Y-96692615D02*
X54295000Y-96692615D01*
X45665000Y-96810710D02*
X54295000Y-96810710D01*
X45665000Y-96928805D02*
X54295000Y-96928805D01*
X45665000Y-97046900D02*
X54295000Y-97046900D01*
X45665000Y-97165000D02*
X54295000Y-97165000D01*
X45665000Y-99705000D02*
X54295000Y-99705000D01*
X45665000Y-102245000D02*
X54295000Y-102245000D01*
X45665000Y-104785000D02*
X54295000Y-104785000D01*
X45665000Y-107325000D02*
X54295000Y-107325000D01*
X45665000Y-109925000D02*
X54295000Y-109925000D01*
X54295000Y-94565000D02*
X54295000Y-109925000D01*
X54295000Y-95535000D02*
X54705000Y-95535000D01*
X54295000Y-96255000D02*
X54705000Y-96255000D01*
X54295000Y-98075000D02*
X54705000Y-98075000D01*
X54295000Y-98795000D02*
X54705000Y-98795000D01*
X54295000Y-100615000D02*
X54705000Y-100615000D01*
X54295000Y-101335000D02*
X54705000Y-101335000D01*
X54295000Y-103155000D02*
X54705000Y-103155000D01*
X54295000Y-103875000D02*
X54705000Y-103875000D01*
X54295000Y-105695000D02*
X54705000Y-105695000D01*
X54295000Y-106415000D02*
X54705000Y-106415000D01*
X54295000Y-108235000D02*
X54705000Y-108235000D01*
X54295000Y-108955000D02*
X54705000Y-108955000D01*
X56805000Y-95535000D02*
X57185000Y-95535000D01*
X56805000Y-96255000D02*
X57185000Y-96255000D01*
X56805000Y-98075000D02*
X57245000Y-98075000D01*
X56805000Y-98795000D02*
X57245000Y-98795000D01*
X56805000Y-100615000D02*
X57245000Y-100615000D01*
X56805000Y-101335000D02*
X57245000Y-101335000D01*
X56805000Y-103155000D02*
X57245000Y-103155000D01*
X56805000Y-103875000D02*
X57245000Y-103875000D01*
X56805000Y-105695000D02*
X57245000Y-105695000D01*
X56805000Y-106415000D02*
X57245000Y-106415000D01*
X56805000Y-108235000D02*
X57245000Y-108235000D01*
X56805000Y-108955000D02*
X57245000Y-108955000D01*
X58295000Y-94565000D02*
X59405000Y-94565000D01*
X59405000Y-94565000D02*
X59405000Y-95895000D01*
X124567258Y-68627500D02*
X124092742Y-68627500D01*
X124567258Y-69672500D02*
X124092742Y-69672500D01*
X139712776Y-55815000D02*
X140222224Y-55815000D01*
X139712776Y-56860000D02*
X140222224Y-56860000D01*
X67417500Y-56785000D02*
X66617500Y-56785000D01*
X67417500Y-56785000D02*
X68217500Y-56785000D01*
X67417500Y-59905000D02*
X66617500Y-59905000D01*
X67417500Y-59905000D02*
X68217500Y-59905000D01*
X66117500Y-56835000D02*
X65877500Y-56505000D01*
X66357500Y-56505000D01*
X66117500Y-56835000D01*
G36*
X66117500Y-56835000D02*
G01*
X65877500Y-56505000D01*
X66357500Y-56505000D01*
X66117500Y-56835000D01*
G37*
X114497500Y-86927258D02*
X114497500Y-86452742D01*
X115542500Y-86927258D02*
X115542500Y-86452742D01*
X131220000Y-54927500D02*
X131220000Y-57212500D01*
X132690000Y-54927500D02*
X131220000Y-54927500D01*
X132690000Y-57212500D02*
X132690000Y-54927500D01*
X130284508Y-102482500D02*
X129809992Y-102482500D01*
X130284508Y-103527500D02*
X129809992Y-103527500D01*
X126730000Y-65090000D02*
G75*
G02*
X123730000Y-65090000I-1500000J0D01*
G01*
X123730000Y-65090000D02*
G75*
G02*
X126730000Y-65090000I1500000J0D01*
G01*
X128255242Y-56702500D02*
X128729758Y-56702500D01*
X128255242Y-57747500D02*
X128729758Y-57747500D01*
X78480000Y-132780000D02*
X80380000Y-132780000D01*
X78480000Y-134680000D02*
X78480000Y-132780000D01*
X80380000Y-132780000D02*
X80380000Y-134680000D01*
X80380000Y-134680000D02*
X78480000Y-134680000D01*
X72002258Y-125097500D02*
X71527742Y-125097500D01*
X72002258Y-126142500D02*
X71527742Y-126142500D01*
X47876359Y-67300000D02*
X48183641Y-67300000D01*
X47876359Y-68060000D02*
X48183641Y-68060000D01*
X95895000Y-136005242D02*
X95895000Y-136479758D01*
X96940000Y-136005242D02*
X96940000Y-136479758D01*
X76455000Y-56305000D02*
X75655000Y-56305000D01*
X76455000Y-56305000D02*
X77255000Y-56305000D01*
X76455000Y-59425000D02*
X75655000Y-59425000D01*
X76455000Y-59425000D02*
X77255000Y-59425000D01*
X75155000Y-56355000D02*
X74915000Y-56025000D01*
X75395000Y-56025000D01*
X75155000Y-56355000D01*
G36*
X75155000Y-56355000D02*
G01*
X74915000Y-56025000D01*
X75395000Y-56025000D01*
X75155000Y-56355000D01*
G37*
X91077500Y-139152742D02*
X91077500Y-139627258D01*
X92122500Y-139152742D02*
X92122500Y-139627258D01*
X122107221Y-92710000D02*
X122432779Y-92710000D01*
X122107221Y-93730000D02*
X122432779Y-93730000D01*
X129849992Y-100882500D02*
X130324508Y-100882500D01*
X129849992Y-101927500D02*
X130324508Y-101927500D01*
X89445000Y-60555000D02*
X89445000Y-60705000D01*
X89445000Y-60555000D02*
X93965000Y-60555000D01*
X89445000Y-65075000D02*
X89445000Y-64925000D01*
X89445000Y-65075000D02*
X93965000Y-65075000D01*
X93965000Y-60555000D02*
X93965000Y-60705000D01*
X93965000Y-65075000D02*
X93965000Y-64925000D01*
X50256359Y-68220000D02*
X50563641Y-68220000D01*
X50256359Y-68980000D02*
X50563641Y-68980000D01*
X94552621Y-131730000D02*
X94217379Y-131730000D01*
X94552621Y-132490000D02*
X94217379Y-132490000D01*
X95622258Y-133237500D02*
X95147742Y-133237500D01*
X95622258Y-134282500D02*
X95147742Y-134282500D01*
X58186267Y-75510000D02*
X57893733Y-75510000D01*
X58186267Y-76530000D02*
X57893733Y-76530000D01*
X48536359Y-74800000D02*
X48843641Y-74800000D01*
X48536359Y-75560000D02*
X48843641Y-75560000D01*
X45670000Y-52670000D02*
X47000000Y-52670000D01*
X45670000Y-54000000D02*
X45670000Y-52670000D01*
X45670000Y-55270000D02*
X48270000Y-55270000D01*
X45670000Y-57870000D02*
X45670000Y-55270000D01*
X45670000Y-57870000D02*
X61030000Y-57870000D01*
X48270000Y-52670000D02*
X61030000Y-52670000D01*
X48270000Y-55270000D02*
X48270000Y-52670000D01*
X61030000Y-57870000D02*
X61030000Y-52670000D01*
X131870000Y-77977836D02*
X131870000Y-77762164D01*
X132590000Y-77977836D02*
X132590000Y-77762164D01*
X69407500Y-142192742D02*
X69407500Y-142667258D01*
X70452500Y-142192742D02*
X70452500Y-142667258D01*
X64950000Y-116870336D02*
X64950000Y-116654664D01*
X65670000Y-116870336D02*
X65670000Y-116654664D01*
X125432500Y-54952500D02*
X125432500Y-57237500D01*
X126902500Y-54952500D02*
X125432500Y-54952500D01*
X126902500Y-57237500D02*
X126902500Y-54952500D01*
X65095000Y-60310000D02*
X65095000Y-60460000D01*
X65095000Y-60310000D02*
X69615000Y-60310000D01*
X65095000Y-64830000D02*
X65095000Y-64680000D01*
X65095000Y-64830000D02*
X69615000Y-64830000D01*
X69615000Y-60310000D02*
X69615000Y-60460000D01*
X69615000Y-64830000D02*
X69615000Y-64680000D01*
X131432500Y-59954724D02*
X131432500Y-59445276D01*
X132477500Y-59954724D02*
X132477500Y-59445276D01*
X124909750Y-102395000D02*
X124109750Y-102395000D01*
X124909750Y-102395000D02*
X125709750Y-102395000D01*
X124909750Y-105515000D02*
X124109750Y-105515000D01*
X124909750Y-105515000D02*
X125709750Y-105515000D01*
X126449750Y-105795000D02*
X125969750Y-105795000D01*
X126209750Y-105465000D01*
X126449750Y-105795000D01*
G36*
X126449750Y-105795000D02*
G01*
X125969750Y-105795000D01*
X126209750Y-105465000D01*
X126449750Y-105795000D01*
G37*
D11*
X68690000Y-134312500D02*
X68690000Y-134379000D01*
X68690000Y-137041000D02*
X68690000Y-137107500D01*
X68690000Y-137107500D02*
X69229000Y-137107500D01*
X69229000Y-134312500D02*
X68690000Y-134312500D01*
X69229000Y-134312500D02*
X70691000Y-134312500D01*
X70691000Y-137107500D02*
X71230000Y-137107500D01*
X71230000Y-134312500D02*
X70691000Y-134312500D01*
X71230000Y-134379000D02*
X71230000Y-134312500D01*
X71230000Y-137107500D02*
X71230000Y-137041000D01*
X70528000Y-135710000D02*
G75*
G02*
X69392000Y-135710000I-568000J0D01*
G01*
X69392000Y-135710000D02*
G75*
G02*
X70528000Y-135710000I568000J0D01*
G01*
D12*
X66747258Y-79877500D02*
X66272742Y-79877500D01*
X66747258Y-80922500D02*
X66272742Y-80922500D01*
X122177221Y-94260000D02*
X122502779Y-94260000D01*
X122177221Y-95280000D02*
X122502779Y-95280000D01*
D11*
X125675037Y-130190096D02*
X125675037Y-146190089D01*
X147277000Y-130190071D02*
X125677069Y-130190096D01*
X147277000Y-130190071D02*
X147277000Y-146190064D01*
X147286931Y-146190064D02*
X125687000Y-146190089D01*
D15*
X130059864Y-144190068D02*
G75*
G02*
X129660068Y-144190068I-199898J0D01*
G01*
X129660068Y-144190068D02*
G75*
G02*
X130059864Y-144190068I199898J0D01*
G01*
D12*
X125750000Y-114653641D02*
X125750000Y-114346359D01*
X126510000Y-114653641D02*
X126510000Y-114346359D01*
X96860000Y-123100000D02*
X99660000Y-123100000D01*
X96860000Y-125100000D02*
X96860000Y-123100000D01*
X99660000Y-123100000D02*
X99660000Y-125100000D01*
X99660000Y-125100000D02*
X96860000Y-125100000D01*
X66295000Y-82200000D02*
X66295000Y-81965000D01*
X66295000Y-88945000D02*
X66295000Y-88470000D01*
X66770000Y-81725000D02*
X66595000Y-81725000D01*
X66770000Y-88945000D02*
X66295000Y-88945000D01*
X73040000Y-81725000D02*
X73515000Y-81725000D01*
X73040000Y-88945000D02*
X73515000Y-88945000D01*
X73515000Y-81725000D02*
X73515000Y-82200000D01*
X73515000Y-88945000D02*
X73515000Y-88470000D01*
X66295000Y-81725000D02*
X66055000Y-81395000D01*
X66535000Y-81395000D01*
X66295000Y-81725000D01*
G36*
X66295000Y-81725000D02*
G01*
X66055000Y-81395000D01*
X66535000Y-81395000D01*
X66295000Y-81725000D01*
G37*
D11*
X96262500Y-138860000D02*
X96262500Y-139399000D01*
X96262500Y-140861000D02*
X96262500Y-141400000D01*
X96262500Y-141400000D02*
X96329000Y-141400000D01*
X96329000Y-138860000D02*
X96262500Y-138860000D01*
X98991000Y-141400000D02*
X99057500Y-141400000D01*
X99057500Y-138860000D02*
X98991000Y-138860000D01*
X99057500Y-139399000D02*
X99057500Y-138860000D01*
X99057500Y-139399000D02*
X99057500Y-140861000D01*
X99057500Y-141400000D02*
X99057500Y-140861000D01*
X98228000Y-140130000D02*
G75*
G02*
X97092000Y-140130000I-568000J0D01*
G01*
X97092000Y-140130000D02*
G75*
G02*
X98228000Y-140130000I568000J0D01*
G01*
D12*
X140695000Y-58532776D02*
X140695000Y-59042224D01*
X141740000Y-58532776D02*
X141740000Y-59042224D01*
X107670000Y-52670000D02*
X109000000Y-52670000D01*
X107670000Y-54000000D02*
X107670000Y-52670000D01*
X107670000Y-55270000D02*
X110270000Y-55270000D01*
X107670000Y-57870000D02*
X107670000Y-55270000D01*
X107670000Y-57870000D02*
X123030000Y-57870000D01*
X110270000Y-52670000D02*
X123030000Y-52670000D01*
X110270000Y-55270000D02*
X110270000Y-52670000D01*
X123030000Y-57870000D02*
X123030000Y-52670000D01*
X142040000Y-79100000D02*
G75*
G02*
X139040000Y-79100000I-1500000J0D01*
G01*
X139040000Y-79100000D02*
G75*
G02*
X142040000Y-79100000I1500000J0D01*
G01*
X126550000Y-78670836D02*
X126550000Y-78455164D01*
X127270000Y-78670836D02*
X127270000Y-78455164D01*
X71737836Y-80040000D02*
X71522164Y-80040000D01*
X71737836Y-80760000D02*
X71522164Y-80760000D01*
X131670000Y-76303000D02*
X127550000Y-76303000D01*
X131670000Y-79723000D02*
X131670000Y-76303000D01*
X141411252Y-62730000D02*
X139988748Y-62730000D01*
X141411252Y-64550000D02*
X139988748Y-64550000D01*
D14*
X98575001Y-55870000D02*
X98350000Y-55870000D01*
X101100002Y-55870000D02*
X100875001Y-55870000D01*
X101100002Y-58170000D02*
X100875001Y-58170000D01*
D12*
X133109724Y-61877500D02*
X132600276Y-61877500D01*
X133109724Y-62922500D02*
X132600276Y-62922500D01*
D11*
X82650000Y-129530000D02*
X82650000Y-130069000D01*
X82650000Y-131531000D02*
X82650000Y-130069000D01*
X82650000Y-131531000D02*
X82650000Y-132070000D01*
X82650000Y-132070000D02*
X82716500Y-132070000D01*
X82716500Y-129530000D02*
X82650000Y-129530000D01*
X85378500Y-132070000D02*
X85445000Y-132070000D01*
X85445000Y-129530000D02*
X85378500Y-129530000D01*
X85445000Y-130069000D02*
X85445000Y-129530000D01*
X85445000Y-132070000D02*
X85445000Y-131531000D01*
X84615500Y-130800000D02*
G75*
G02*
X83479500Y-130800000I-568000J0D01*
G01*
X83479500Y-130800000D02*
G75*
G02*
X84615500Y-130800000I568000J0D01*
G01*
D12*
X127244750Y-102462258D02*
X127244750Y-101987742D01*
X128289750Y-102462258D02*
X128289750Y-101987742D01*
X94407500Y-57952258D02*
X94407500Y-57477742D01*
X95452500Y-57952258D02*
X95452500Y-57477742D01*
X89107500Y-139162742D02*
X89107500Y-139637258D01*
X90152500Y-139162742D02*
X90152500Y-139637258D01*
X80279758Y-56487500D02*
X79805242Y-56487500D01*
X80279758Y-57532500D02*
X79805242Y-57532500D01*
X71952836Y-116617500D02*
X71737164Y-116617500D01*
X71952836Y-117337500D02*
X71737164Y-117337500D01*
X75365000Y-124575000D02*
X75365000Y-123775000D01*
X75365000Y-124575000D02*
X75365000Y-125375000D01*
X78485000Y-124575000D02*
X78485000Y-123775000D01*
X78485000Y-124575000D02*
X78485000Y-125375000D01*
X75415000Y-125875000D02*
X75085000Y-126115000D01*
X75085000Y-125635000D01*
X75415000Y-125875000D01*
G36*
X75415000Y-125875000D02*
G01*
X75085000Y-126115000D01*
X75085000Y-125635000D01*
X75415000Y-125875000D01*
G37*
X90938733Y-130235000D02*
X91231267Y-130235000D01*
X90938733Y-131255000D02*
X91231267Y-131255000D01*
D11*
X82240000Y-139190000D02*
X82240000Y-139729000D01*
X82240000Y-141191000D02*
X82240000Y-139729000D01*
X82240000Y-141191000D02*
X82240000Y-141730000D01*
X82240000Y-141730000D02*
X82306500Y-141730000D01*
X82306500Y-139190000D02*
X82240000Y-139190000D01*
X84968500Y-141730000D02*
X85035000Y-141730000D01*
X85035000Y-139190000D02*
X84968500Y-139190000D01*
X85035000Y-139729000D02*
X85035000Y-139190000D01*
X85035000Y-141730000D02*
X85035000Y-141191000D01*
X84205500Y-140460000D02*
G75*
G02*
X83069500Y-140460000I-568000J0D01*
G01*
X83069500Y-140460000D02*
G75*
G02*
X84205500Y-140460000I568000J0D01*
G01*
D16*
X126495400Y-69304500D02*
X126495400Y-69670260D01*
X126495400Y-74145740D02*
X126495400Y-74511500D01*
X126495400Y-74511500D02*
X126861160Y-74511500D01*
X126861160Y-69304500D02*
X126495400Y-69304500D01*
X131336640Y-74511500D02*
X131702400Y-74511500D01*
X131702400Y-69304500D02*
X131336640Y-69304500D01*
X131702400Y-69670260D02*
X131702400Y-69304500D01*
X131702400Y-74511500D02*
X131702400Y-74145740D01*
D17*
G36*
X125987400Y-71844500D02*
G01*
X125733400Y-71844500D01*
X125733400Y-71463500D01*
X125987400Y-71463500D01*
X125987400Y-71844500D01*
G37*
G36*
X130051400Y-75273500D02*
G01*
X129670400Y-75273500D01*
X129670400Y-75019500D01*
X130051400Y-75019500D01*
X130051400Y-75273500D01*
G37*
G36*
X130559400Y-68796500D02*
G01*
X130178400Y-68796500D01*
X130178400Y-68542500D01*
X130559400Y-68542500D01*
X130559400Y-68796500D01*
G37*
D12*
X73220000Y-54490000D02*
G75*
G02*
X70220000Y-54490000I-1500000J0D01*
G01*
X70220000Y-54490000D02*
G75*
G02*
X73220000Y-54490000I1500000J0D01*
G01*
X111933641Y-125010000D02*
X111626359Y-125010000D01*
X111933641Y-125770000D02*
X111626359Y-125770000D01*
X66952164Y-78730000D02*
X67167836Y-78730000D01*
X66952164Y-79450000D02*
X67167836Y-79450000D01*
X88295000Y-58447742D02*
X88295000Y-58922258D01*
X89340000Y-58447742D02*
X89340000Y-58922258D01*
X136957500Y-59150000D02*
X136957500Y-58350000D01*
X136957500Y-59150000D02*
X136957500Y-59950000D01*
X140077500Y-59150000D02*
X140077500Y-58350000D01*
X140077500Y-59150000D02*
X140077500Y-59950000D01*
X140357500Y-58090000D02*
X140027500Y-57850000D01*
X140357500Y-57610000D01*
X140357500Y-58090000D01*
G36*
X140357500Y-58090000D02*
G01*
X140027500Y-57850000D01*
X140357500Y-57610000D01*
X140357500Y-58090000D01*
G37*
X64407500Y-137067258D02*
X64407500Y-136592742D01*
X65452500Y-137067258D02*
X65452500Y-136592742D01*
D18*
X89568000Y-143460000D02*
X89568000Y-143730000D01*
X89568000Y-145790000D02*
X89568000Y-146060000D01*
X91615000Y-143460000D02*
X91615000Y-143730000D01*
X91615000Y-145790000D02*
X91615000Y-146060000D01*
D13*
X89291500Y-143760000D02*
G75*
G02*
X89091500Y-143760000I-100000J0D01*
G01*
X89091500Y-143760000D02*
G75*
G02*
X89291500Y-143760000I100000J0D01*
G01*
D12*
X104380000Y-52922500D02*
X104380000Y-56182500D01*
X106080000Y-52922500D02*
X104380000Y-52922500D01*
X106080000Y-52922500D02*
X106080000Y-56182500D01*
X86790000Y-72900000D02*
G75*
G02*
X83790000Y-72900000I-1500000J0D01*
G01*
X83790000Y-72900000D02*
G75*
G02*
X86790000Y-72900000I1500000J0D01*
G01*
X68492500Y-123227258D02*
X68492500Y-122752742D01*
X69537500Y-123227258D02*
X69537500Y-122752742D01*
X129495000Y-125905000D02*
X129495000Y-124575000D01*
X130605000Y-125905000D02*
X129495000Y-125905000D01*
X132095000Y-111515000D02*
X131655000Y-111515000D01*
X132095000Y-112235000D02*
X131655000Y-112235000D01*
X132095000Y-114055000D02*
X131655000Y-114055000D01*
X132095000Y-114775000D02*
X131655000Y-114775000D01*
X132095000Y-116595000D02*
X131655000Y-116595000D01*
X132095000Y-117315000D02*
X131655000Y-117315000D01*
X132095000Y-119135000D02*
X131655000Y-119135000D01*
X132095000Y-119855000D02*
X131655000Y-119855000D01*
X132095000Y-121675000D02*
X131655000Y-121675000D01*
X132095000Y-122395000D02*
X131655000Y-122395000D01*
X132095000Y-124215000D02*
X131715000Y-124215000D01*
X132095000Y-124935000D02*
X131715000Y-124935000D01*
X134605000Y-111515000D02*
X134195000Y-111515000D01*
X134605000Y-112235000D02*
X134195000Y-112235000D01*
X134605000Y-114055000D02*
X134195000Y-114055000D01*
X134605000Y-114775000D02*
X134195000Y-114775000D01*
X134605000Y-116595000D02*
X134195000Y-116595000D01*
X134605000Y-117315000D02*
X134195000Y-117315000D01*
X134605000Y-119135000D02*
X134195000Y-119135000D01*
X134605000Y-119855000D02*
X134195000Y-119855000D01*
X134605000Y-121675000D02*
X134195000Y-121675000D01*
X134605000Y-122395000D02*
X134195000Y-122395000D01*
X134605000Y-124215000D02*
X134195000Y-124215000D01*
X134605000Y-124935000D02*
X134195000Y-124935000D01*
X134605000Y-125905000D02*
X134605000Y-110545000D01*
X143235000Y-110545000D02*
X134605000Y-110545000D01*
X143235000Y-113145000D02*
X134605000Y-113145000D01*
X143235000Y-115685000D02*
X134605000Y-115685000D01*
X143235000Y-118225000D02*
X134605000Y-118225000D01*
X143235000Y-120765000D02*
X134605000Y-120765000D01*
X143235000Y-123305000D02*
X134605000Y-123305000D01*
X143235000Y-123423100D02*
X134605000Y-123423100D01*
X143235000Y-123541195D02*
X134605000Y-123541195D01*
X143235000Y-123659290D02*
X134605000Y-123659290D01*
X143235000Y-123777385D02*
X134605000Y-123777385D01*
X143235000Y-123895480D02*
X134605000Y-123895480D01*
X143235000Y-124013575D02*
X134605000Y-124013575D01*
X143235000Y-124131670D02*
X134605000Y-124131670D01*
X143235000Y-124249765D02*
X134605000Y-124249765D01*
X143235000Y-124367860D02*
X134605000Y-124367860D01*
X143235000Y-124485955D02*
X134605000Y-124485955D01*
X143235000Y-124604050D02*
X134605000Y-124604050D01*
X143235000Y-124722145D02*
X134605000Y-124722145D01*
X143235000Y-124840240D02*
X134605000Y-124840240D01*
X143235000Y-124958335D02*
X134605000Y-124958335D01*
X143235000Y-125076430D02*
X134605000Y-125076430D01*
X143235000Y-125194525D02*
X134605000Y-125194525D01*
X143235000Y-125312620D02*
X134605000Y-125312620D01*
X143235000Y-125430715D02*
X134605000Y-125430715D01*
X143235000Y-125548810D02*
X134605000Y-125548810D01*
X143235000Y-125666905D02*
X134605000Y-125666905D01*
X143235000Y-125785000D02*
X134605000Y-125785000D01*
X143235000Y-125905000D02*
X134605000Y-125905000D01*
X143235000Y-125905000D02*
X143235000Y-110545000D01*
X128992500Y-58177500D02*
X128192500Y-58177500D01*
X128992500Y-58177500D02*
X129792500Y-58177500D01*
X128992500Y-61297500D02*
X128192500Y-61297500D01*
X128992500Y-61297500D02*
X129792500Y-61297500D01*
X127692500Y-58227500D02*
X127452500Y-57897500D01*
X127932500Y-57897500D01*
X127692500Y-58227500D01*
G36*
X127692500Y-58227500D02*
G01*
X127452500Y-57897500D01*
X127932500Y-57897500D01*
X127692500Y-58227500D01*
G37*
X84345000Y-136317258D02*
X84345000Y-135842742D01*
X85390000Y-136317258D02*
X85390000Y-135842742D01*
X131077621Y-75233000D02*
X130742379Y-75233000D01*
X131077621Y-75993000D02*
X130742379Y-75993000D01*
D11*
X68630000Y-144662500D02*
X68630000Y-144729000D01*
X68630000Y-147391000D02*
X68630000Y-147457500D01*
X68630000Y-147457500D02*
X69169000Y-147457500D01*
X69169000Y-144662500D02*
X68630000Y-144662500D01*
X70631000Y-147457500D02*
X69169000Y-147457500D01*
X70631000Y-147457500D02*
X71170000Y-147457500D01*
X71170000Y-144662500D02*
X70631000Y-144662500D01*
X71170000Y-144729000D02*
X71170000Y-144662500D01*
X71170000Y-147457500D02*
X71170000Y-147391000D01*
X70468000Y-146060000D02*
G75*
G02*
X69332000Y-146060000I-568000J0D01*
G01*
X69332000Y-146060000D02*
G75*
G02*
X70468000Y-146060000I568000J0D01*
G01*
D12*
X77642500Y-128574758D02*
X77642500Y-128100242D01*
X78687500Y-128574758D02*
X78687500Y-128100242D01*
X76347164Y-127057500D02*
X76562836Y-127057500D01*
X76347164Y-127777500D02*
X76562836Y-127777500D01*
X94257500Y-136083733D02*
X94257500Y-136376267D01*
X95277500Y-136083733D02*
X95277500Y-136376267D01*
X85935000Y-77560580D02*
X85935000Y-77279420D01*
X86955000Y-77560580D02*
X86955000Y-77279420D01*
X63911233Y-140305000D02*
X64203767Y-140305000D01*
X63911233Y-141325000D02*
X64203767Y-141325000D01*
X73742500Y-126627258D02*
X73742500Y-126152742D01*
X74787500Y-126627258D02*
X74787500Y-126152742D01*
X89311500Y-142177621D02*
X89311500Y-141842379D01*
X90071500Y-142177621D02*
X90071500Y-141842379D01*
X88032258Y-130317500D02*
X87557742Y-130317500D01*
X88032258Y-131362500D02*
X87557742Y-131362500D01*
X70455000Y-63302936D02*
X70455000Y-63757064D01*
X71925000Y-63302936D02*
X71925000Y-63757064D01*
X94270000Y-60442836D02*
X94270000Y-60227164D01*
X94990000Y-60442836D02*
X94990000Y-60227164D01*
X67370000Y-123800000D02*
G75*
G02*
X64370000Y-123800000I-1500000J0D01*
G01*
X64370000Y-123800000D02*
G75*
G02*
X67370000Y-123800000I1500000J0D01*
G01*
X71070000Y-128830000D02*
G75*
G02*
X68070000Y-128830000I-1500000J0D01*
G01*
X68070000Y-128830000D02*
G75*
G02*
X71070000Y-128830000I1500000J0D01*
G01*
X87467379Y-131880000D02*
X87802621Y-131880000D01*
X87467379Y-132640000D02*
X87802621Y-132640000D01*
X86337500Y-128297742D02*
X86337500Y-128772258D01*
X87382500Y-128297742D02*
X87382500Y-128772258D01*
D19*
X41260000Y-76970000D02*
X53930000Y-76970000D01*
X41260000Y-93010000D02*
X41260000Y-76970000D01*
X41360000Y-92090000D02*
X42960000Y-92090000D01*
X41460000Y-79990000D02*
X43060000Y-79990000D01*
X42160000Y-89990000D02*
X41360000Y-89990000D01*
X42260000Y-77890000D02*
X41460000Y-77890000D01*
X42960000Y-89990000D02*
X42160000Y-89990000D01*
X42960000Y-92090000D02*
X42960000Y-89990000D01*
X43060000Y-77890000D02*
X42260000Y-77890000D01*
X43060000Y-79990000D02*
X43060000Y-77890000D01*
X53930000Y-93010000D02*
X41280000Y-93010000D01*
X56490000Y-76970000D02*
X62560000Y-76970000D01*
X62560000Y-76970000D02*
X62560000Y-93010000D01*
X62560000Y-93010000D02*
X56490000Y-93010000D01*
D12*
X95907500Y-59777742D02*
X95907500Y-60252258D01*
X96952500Y-59777742D02*
X96952500Y-60252258D01*
X87145000Y-58372836D02*
X87145000Y-58157164D01*
X87865000Y-58372836D02*
X87865000Y-58157164D01*
X105100000Y-131800000D02*
G75*
G02*
X102100000Y-131800000I-1500000J0D01*
G01*
X102100000Y-131800000D02*
G75*
G02*
X105100000Y-131800000I1500000J0D01*
G01*
X86247742Y-133087500D02*
X86722258Y-133087500D01*
X86247742Y-134132500D02*
X86722258Y-134132500D01*
X88610000Y-124600000D02*
X91410000Y-124600000D01*
X88610000Y-126600000D02*
X88610000Y-124600000D01*
X91410000Y-124600000D02*
X91410000Y-126600000D01*
X91410000Y-126600000D02*
X88610000Y-126600000D01*
X90685000Y-134550000D02*
X89185000Y-134550000D01*
X90685000Y-134550000D02*
X92185000Y-134550000D01*
X90685000Y-137770000D02*
X89185000Y-137770000D01*
X90685000Y-137770000D02*
X92185000Y-137770000D01*
X93137500Y-137975000D02*
X92657500Y-137975000D01*
X92897500Y-137645000D01*
X93137500Y-137975000D01*
G36*
X93137500Y-137975000D02*
G01*
X92657500Y-137975000D01*
X92897500Y-137645000D01*
X93137500Y-137975000D01*
G37*
X48496359Y-72990000D02*
X48803641Y-72990000D01*
X48496359Y-73750000D02*
X48803641Y-73750000D01*
X71432500Y-59827742D02*
X71432500Y-60302258D01*
X72477500Y-59827742D02*
X72477500Y-60302258D01*
X89537500Y-128637258D02*
X89537500Y-128162742D01*
X90582500Y-128637258D02*
X90582500Y-128162742D01*
X115980000Y-124140000D02*
X117310000Y-124140000D01*
X115980000Y-125470000D02*
X115980000Y-124140000D01*
X115980000Y-126740000D02*
X118580000Y-126740000D01*
X115980000Y-129340000D02*
X115980000Y-126740000D01*
X115980000Y-129340000D02*
X123720000Y-129340000D01*
X118580000Y-124140000D02*
X123720000Y-124140000D01*
X118580000Y-126740000D02*
X118580000Y-124140000D01*
X123720000Y-129340000D02*
X123720000Y-124140000D01*
X104127742Y-57137500D02*
X104602258Y-57137500D01*
X104127742Y-58182500D02*
X104602258Y-58182500D01*
X72052500Y-128217258D02*
X72052500Y-127742742D01*
X73097500Y-128217258D02*
X73097500Y-127742742D01*
X125370000Y-59992224D02*
X125370000Y-59482776D01*
X126415000Y-59992224D02*
X126415000Y-59482776D01*
X73795000Y-59705000D02*
X73795000Y-59855000D01*
X73795000Y-59705000D02*
X78315000Y-59705000D01*
X73795000Y-64225000D02*
X73795000Y-64075000D01*
X73795000Y-64225000D02*
X78315000Y-64225000D01*
X78315000Y-59705000D02*
X78315000Y-59855000D01*
X78315000Y-64225000D02*
X78315000Y-64075000D01*
D11*
X96737500Y-129445000D02*
X96737500Y-129984000D01*
X96737500Y-131446000D02*
X96737500Y-131985000D01*
X96737500Y-131985000D02*
X96804000Y-131985000D01*
X96804000Y-129445000D02*
X96737500Y-129445000D01*
X99466000Y-131985000D02*
X99532500Y-131985000D01*
X99532500Y-129445000D02*
X99466000Y-129445000D01*
X99532500Y-129984000D02*
X99532500Y-129445000D01*
X99532500Y-129984000D02*
X99532500Y-131446000D01*
X99532500Y-131985000D02*
X99532500Y-131446000D01*
X98703000Y-130715000D02*
G75*
G02*
X97567000Y-130715000I-568000J0D01*
G01*
X97567000Y-130715000D02*
G75*
G02*
X98703000Y-130715000I568000J0D01*
G01*
D12*
X94157742Y-130217500D02*
X94632258Y-130217500D01*
X94157742Y-131262500D02*
X94632258Y-131262500D01*
X123792742Y-138367500D02*
X124267258Y-138367500D01*
X123792742Y-139412500D02*
X124267258Y-139412500D01*
X87567258Y-139847500D02*
X87092742Y-139847500D01*
X87567258Y-140892500D02*
X87092742Y-140892500D01*
X64477500Y-143337258D02*
X64477500Y-142862742D01*
X65522500Y-143337258D02*
X65522500Y-142862742D01*
X82245000Y-59555000D02*
X82245000Y-59705000D01*
X82245000Y-59555000D02*
X86765000Y-59555000D01*
X82245000Y-64075000D02*
X82245000Y-63925000D01*
X82245000Y-64075000D02*
X86765000Y-64075000D01*
X86765000Y-59555000D02*
X86765000Y-59705000D01*
X86765000Y-64075000D02*
X86765000Y-63925000D01*
X134017742Y-56577500D02*
X134492258Y-56577500D01*
X134017742Y-57622500D02*
X134492258Y-57622500D01*
X68140000Y-75650000D02*
X68140000Y-79770000D01*
X71560000Y-75650000D02*
X68140000Y-75650000D01*
X84867500Y-56155000D02*
X84067500Y-56155000D01*
X84867500Y-56155000D02*
X85667500Y-56155000D01*
X84867500Y-59275000D02*
X84067500Y-59275000D01*
X84867500Y-59275000D02*
X85667500Y-59275000D01*
X83567500Y-56205000D02*
X83327500Y-55875000D01*
X83807500Y-55875000D01*
X83567500Y-56205000D01*
G36*
X83567500Y-56205000D02*
G01*
X83327500Y-55875000D01*
X83807500Y-55875000D01*
X83567500Y-56205000D01*
G37*
X91400000Y-75700000D02*
X87280000Y-75700000D01*
X91400000Y-79120000D02*
X91400000Y-75700000D01*
X91220000Y-142157621D02*
X91220000Y-141822379D01*
X91980000Y-142157621D02*
X91980000Y-141822379D01*
X80170000Y-59072742D02*
X80170000Y-59547258D01*
X81215000Y-59072742D02*
X81215000Y-59547258D01*
X69397500Y-139657258D02*
X69397500Y-139182742D01*
X70442500Y-139657258D02*
X70442500Y-139182742D01*
X70125000Y-122860000D02*
X70125000Y-122210000D01*
X70125000Y-122860000D02*
X70125000Y-123510000D01*
X73245000Y-122860000D02*
X73245000Y-122210000D01*
X73245000Y-122860000D02*
X73245000Y-123510000D01*
X70175000Y-124022500D02*
X69845000Y-124262500D01*
X69845000Y-123782500D01*
X70175000Y-124022500D01*
G36*
X70175000Y-124022500D02*
G01*
X69845000Y-124262500D01*
X69845000Y-123782500D01*
X70175000Y-124022500D01*
G37*
X69882500Y-58252258D02*
X69882500Y-57777742D01*
X70927500Y-58252258D02*
X70927500Y-57777742D01*
X91942500Y-57105000D02*
X91142500Y-57105000D01*
X91942500Y-57105000D02*
X92742500Y-57105000D01*
X91942500Y-60225000D02*
X91142500Y-60225000D01*
X91942500Y-60225000D02*
X92742500Y-60225000D01*
X90642500Y-57155000D02*
X90402500Y-56825000D01*
X90882500Y-56825000D01*
X90642500Y-57155000D01*
G36*
X90642500Y-57155000D02*
G01*
X90402500Y-56825000D01*
X90882500Y-56825000D01*
X90642500Y-57155000D01*
G37*
D20*
X92500000Y-89850000D03*
M02*
