G04 #@! TF.GenerationSoftware,KiCad,Pcbnew,9.0.3-9.0.3-0~ubuntu24.04.1*
G04 #@! TF.CreationDate,2025-07-29T11:11:21+02:00*
G04 #@! TF.ProjectId,acoustic-carrier-board,61636f75-7374-4696-932d-636172726965,rev?*
G04 #@! TF.SameCoordinates,Original*
G04 #@! TF.FileFunction,Soldermask,Bot*
G04 #@! TF.FilePolarity,Negative*
%FSLAX46Y46*%
G04 Gerber Fmt 4.6, Leading zero omitted, Abs format (unit mm)*
G04 Created by KiCad (PCBNEW 9.0.3-9.0.3-0~ubuntu24.04.1) date 2025-07-29 11:11:21*
%MOMM*%
%LPD*%
G01*
G04 APERTURE LIST*
G04 Aperture macros list*
%AMRoundRect*
0 Rectangle with rounded corners*
0 $1 Rounding radius*
0 $2 $3 $4 $5 $6 $7 $8 $9 X,Y pos of 4 corners*
0 Add a 4 corners polygon primitive as box body*
4,1,4,$2,$3,$4,$5,$6,$7,$8,$9,$2,$3,0*
0 Add four circle primitives for the rounded corners*
1,1,$1+$1,$2,$3*
1,1,$1+$1,$4,$5*
1,1,$1+$1,$6,$7*
1,1,$1+$1,$8,$9*
0 Add four rect primitives between the rounded corners*
20,1,$1+$1,$2,$3,$4,$5,0*
20,1,$1+$1,$4,$5,$6,$7,0*
20,1,$1+$1,$6,$7,$8,$9,0*
20,1,$1+$1,$8,$9,$2,$3,0*%
G04 Aperture macros list end*
%ADD10C,2.000000*%
%ADD11C,3.250000*%
%ADD12R,1.500000X1.500000*%
%ADD13C,1.500000*%
%ADD14C,3.000000*%
%ADD15R,1.700000X1.700000*%
%ADD16C,1.700000*%
%ADD17C,1.300000*%
%ADD18C,3.249981*%
%ADD19R,1.524000X1.524000*%
%ADD20C,1.524000*%
%ADD21C,1.999996*%
%ADD22C,2.400046*%
%ADD23R,1.520000X1.520000*%
%ADD24C,1.520000*%
%ADD25C,2.160000*%
%ADD26RoundRect,0.102000X-0.675000X-0.900000X0.675000X-0.900000X0.675000X0.900000X-0.675000X0.900000X0*%
%ADD27RoundRect,0.100000X-0.100000X0.130000X-0.100000X-0.130000X0.100000X-0.130000X0.100000X0.130000X0*%
%ADD28RoundRect,0.250000X-0.250000X-0.475000X0.250000X-0.475000X0.250000X0.475000X-0.250000X0.475000X0*%
%ADD29RoundRect,0.225000X0.250000X-0.225000X0.250000X0.225000X-0.250000X0.225000X-0.250000X-0.225000X0*%
%ADD30R,1.000000X1.500000*%
%ADD31RoundRect,0.100000X0.130000X0.100000X-0.130000X0.100000X-0.130000X-0.100000X0.130000X-0.100000X0*%
%ADD32RoundRect,0.102000X0.675000X0.900000X-0.675000X0.900000X-0.675000X-0.900000X0.675000X-0.900000X0*%
%ADD33C,0.500000*%
%ADD34RoundRect,0.200000X-0.275000X0.200000X-0.275000X-0.200000X0.275000X-0.200000X0.275000X0.200000X0*%
%ADD35RoundRect,0.100000X-0.130000X-0.100000X0.130000X-0.100000X0.130000X0.100000X-0.130000X0.100000X0*%
%ADD36RoundRect,0.225000X-0.225000X-0.250000X0.225000X-0.250000X0.225000X0.250000X-0.225000X0.250000X0*%
%ADD37RoundRect,0.100000X0.100000X-0.130000X0.100000X0.130000X-0.100000X0.130000X-0.100000X-0.130000X0*%
%ADD38RoundRect,0.218750X0.256250X-0.218750X0.256250X0.218750X-0.256250X0.218750X-0.256250X-0.218750X0*%
%ADD39RoundRect,0.218750X-0.218750X-0.256250X0.218750X-0.256250X0.218750X0.256250X-0.218750X0.256250X0*%
%ADD40RoundRect,0.237500X0.237500X-0.250000X0.237500X0.250000X-0.237500X0.250000X-0.237500X-0.250000X0*%
%ADD41RoundRect,0.200000X0.200000X0.275000X-0.200000X0.275000X-0.200000X-0.275000X0.200000X-0.275000X0*%
%ADD42RoundRect,0.218750X-0.256250X0.218750X-0.256250X-0.218750X0.256250X-0.218750X0.256250X0.218750X0*%
%ADD43C,0.650000*%
%ADD44R,1.450000X0.600000*%
%ADD45R,1.450000X0.300000*%
%ADD46O,1.600000X1.000000*%
%ADD47O,2.100000X1.000000*%
%ADD48RoundRect,0.140000X0.170000X-0.140000X0.170000X0.140000X-0.170000X0.140000X-0.170000X-0.140000X0*%
%ADD49RoundRect,0.225000X-0.250000X0.225000X-0.250000X-0.225000X0.250000X-0.225000X0.250000X0.225000X0*%
%ADD50RoundRect,0.200000X-0.200000X-0.275000X0.200000X-0.275000X0.200000X0.275000X-0.200000X0.275000X0*%
%ADD51RoundRect,0.135000X0.185000X-0.135000X0.185000X0.135000X-0.185000X0.135000X-0.185000X-0.135000X0*%
%ADD52RoundRect,0.237500X0.237500X-0.300000X0.237500X0.300000X-0.237500X0.300000X-0.237500X-0.300000X0*%
%ADD53R,0.800000X0.500000*%
%ADD54R,0.800000X0.400000*%
%ADD55RoundRect,0.135000X-0.135000X-0.185000X0.135000X-0.185000X0.135000X0.185000X-0.135000X0.185000X0*%
%ADD56RoundRect,0.112500X0.112500X-0.187500X0.112500X0.187500X-0.112500X0.187500X-0.112500X-0.187500X0*%
%ADD57RoundRect,0.160000X0.160000X-0.197500X0.160000X0.197500X-0.160000X0.197500X-0.160000X-0.197500X0*%
%ADD58RoundRect,0.200000X0.275000X-0.200000X0.275000X0.200000X-0.275000X0.200000X-0.275000X-0.200000X0*%
%ADD59RoundRect,0.140000X-0.170000X0.140000X-0.170000X-0.140000X0.170000X-0.140000X0.170000X0.140000X0*%
%ADD60RoundRect,0.225000X0.225000X0.250000X-0.225000X0.250000X-0.225000X-0.250000X0.225000X-0.250000X0*%
%ADD61RoundRect,0.250000X-1.750000X-1.000000X1.750000X-1.000000X1.750000X1.000000X-1.750000X1.000000X0*%
%ADD62RoundRect,0.140000X-0.140000X-0.170000X0.140000X-0.170000X0.140000X0.170000X-0.140000X0.170000X0*%
%ADD63RoundRect,0.140000X0.140000X0.170000X-0.140000X0.170000X-0.140000X-0.170000X0.140000X-0.170000X0*%
%ADD64RoundRect,0.250000X-0.450000X0.350000X-0.450000X-0.350000X0.450000X-0.350000X0.450000X0.350000X0*%
%ADD65RoundRect,0.162500X-0.162500X0.650000X-0.162500X-0.650000X0.162500X-0.650000X0.162500X0.650000X0*%
%ADD66R,1.050000X1.000000*%
%ADD67R,2.200000X1.050000*%
%ADD68RoundRect,0.250000X0.475000X-0.250000X0.475000X0.250000X-0.475000X0.250000X-0.475000X-0.250000X0*%
%ADD69RoundRect,0.135000X0.135000X0.185000X-0.135000X0.185000X-0.135000X-0.185000X0.135000X-0.185000X0*%
%ADD70R,1.500000X1.000000*%
%ADD71RoundRect,0.135000X-0.185000X0.135000X-0.185000X-0.135000X0.185000X-0.135000X0.185000X0.135000X0*%
G04 APERTURE END LIST*
G36*
X90160000Y-124850000D02*
G01*
X89860000Y-124850000D01*
X89860000Y-126350000D01*
X90160000Y-126350000D01*
X90160000Y-124850000D01*
G37*
G36*
X98110000Y-124850000D02*
G01*
X98410000Y-124850000D01*
X98410000Y-123350000D01*
X98110000Y-123350000D01*
X98110000Y-124850000D01*
G37*
G36*
X98110000Y-122250000D02*
G01*
X98410000Y-122250000D01*
X98410000Y-120750000D01*
X98110000Y-120750000D01*
X98110000Y-122250000D01*
G37*
G36*
X86010000Y-121750000D02*
G01*
X85710000Y-121750000D01*
X85710000Y-123250000D01*
X86010000Y-123250000D01*
X86010000Y-121750000D01*
G37*
G36*
X92210000Y-126450000D02*
G01*
X93710000Y-126450000D01*
X93710000Y-126750000D01*
X92210000Y-126750000D01*
X92210000Y-126450000D01*
G37*
G36*
X86540000Y-126510000D02*
G01*
X86840000Y-126510000D01*
X86840000Y-125010000D01*
X86540000Y-125010000D01*
X86540000Y-126510000D01*
G37*
D10*
X64740000Y-76940000D03*
D11*
X50900000Y-132110000D03*
X50900000Y-143540000D03*
D12*
X57250000Y-133380000D03*
D13*
X59790000Y-134650000D03*
X57250000Y-135920000D03*
X59790000Y-137190000D03*
X57250000Y-138460000D03*
X59790000Y-139730000D03*
X57250000Y-141000000D03*
X59790000Y-142270000D03*
D14*
X47850000Y-129975000D03*
X47850000Y-145675000D03*
D15*
X58250000Y-113220000D03*
D16*
X58250000Y-115760000D03*
X58250000Y-118300000D03*
X58250000Y-120840000D03*
X58250000Y-123380000D03*
X58250000Y-125920000D03*
X55710000Y-113220000D03*
X55710000Y-115760000D03*
X55710000Y-118300000D03*
X55710000Y-120840000D03*
X55710000Y-123380000D03*
X55710000Y-125920000D03*
D15*
X58295000Y-95895000D03*
D16*
X58295000Y-98435000D03*
X58295000Y-100975000D03*
X58295000Y-103515000D03*
X58295000Y-106055000D03*
X58295000Y-108595000D03*
X55755000Y-95895000D03*
X55755000Y-98435000D03*
X55755000Y-100975000D03*
X55755000Y-103515000D03*
X55755000Y-106055000D03*
X55755000Y-108595000D03*
D10*
X125230000Y-65090000D03*
D12*
X79430000Y-133730000D03*
D17*
X61770000Y-62990000D03*
D15*
X47000000Y-54000000D03*
D16*
X47000000Y-56540000D03*
X49540000Y-54000000D03*
X49540000Y-56540000D03*
X52080000Y-54000000D03*
X52080000Y-56540000D03*
X54620000Y-54000000D03*
X54620000Y-56540000D03*
X57160000Y-54000000D03*
X57160000Y-56540000D03*
X59700000Y-54000000D03*
X59700000Y-56540000D03*
D17*
X76950000Y-144420000D03*
D18*
X136355000Y-132480160D03*
X136355000Y-143900000D03*
D19*
X130005000Y-142630000D03*
D20*
X127465000Y-141370160D03*
X130005000Y-140090000D03*
X127465000Y-138830160D03*
X130005000Y-137550000D03*
X127465000Y-136290160D03*
X130005000Y-135010000D03*
X127465000Y-133750160D03*
D21*
X141254914Y-144815162D03*
X141254914Y-142275162D03*
X141254914Y-134104998D03*
X141254914Y-131564998D03*
D22*
X133304968Y-145940128D03*
X133304968Y-130440032D03*
D15*
X109000000Y-54000000D03*
D16*
X109000000Y-56540000D03*
X111540000Y-54000000D03*
X111540000Y-56540000D03*
X114080000Y-54000000D03*
X114080000Y-56540000D03*
X116620000Y-54000000D03*
X116620000Y-56540000D03*
X119160000Y-54000000D03*
X119160000Y-56540000D03*
X121700000Y-54000000D03*
X121700000Y-56540000D03*
D10*
X140540000Y-79100000D03*
X71720000Y-54490000D03*
X85290000Y-72900000D03*
D15*
X130605000Y-124575000D03*
D16*
X130605000Y-122035000D03*
X130605000Y-119495000D03*
X130605000Y-116955000D03*
X130605000Y-114415000D03*
X130605000Y-111875000D03*
X133145000Y-124575000D03*
X133145000Y-122035000D03*
X133145000Y-119495000D03*
X133145000Y-116955000D03*
X133145000Y-114415000D03*
X133145000Y-111875000D03*
D10*
X65870000Y-123800000D03*
X69570000Y-128830000D03*
D11*
X52160000Y-90710000D03*
X52146663Y-79284562D03*
D23*
X61050000Y-79270000D03*
D24*
X58510000Y-80440000D03*
X61050000Y-81810000D03*
X58510000Y-82980000D03*
X61050000Y-84350000D03*
X58510000Y-85520000D03*
X61050000Y-86890000D03*
X58510000Y-88060000D03*
X61050000Y-89430000D03*
X58510000Y-90600000D03*
D16*
X47270000Y-78360000D03*
X47270000Y-80900000D03*
X47270000Y-89080000D03*
X47270000Y-91620000D03*
D25*
X55220000Y-92730000D03*
X55220000Y-77250000D03*
D10*
X103600000Y-131800000D03*
D15*
X117310000Y-125470000D03*
D16*
X117310000Y-128010000D03*
X119850000Y-125470000D03*
X119850000Y-128010000D03*
X122390000Y-125470000D03*
X122390000Y-128010000D03*
D17*
X115890000Y-142100000D03*
D26*
X108445000Y-125180000D03*
X112595000Y-125180000D03*
D27*
X113140000Y-96400000D03*
X113140000Y-97040000D03*
X70960000Y-83150000D03*
X70960000Y-83790000D03*
D28*
X70805000Y-62595000D03*
X72705000Y-62595000D03*
D29*
X79255000Y-60140000D03*
X79255000Y-58590000D03*
D30*
X90660000Y-125600000D03*
X89360000Y-125600000D03*
D31*
X86920000Y-86570000D03*
X86280000Y-86570000D03*
D32*
X51325000Y-70720000D03*
X47175000Y-70720000D03*
D33*
X105000000Y-91650000D03*
D34*
X49370000Y-92675000D03*
X49370000Y-94325000D03*
D35*
X87770000Y-86560000D03*
X88410000Y-86560000D03*
D36*
X93367500Y-135780000D03*
X94917500Y-135780000D03*
D27*
X72460000Y-82010000D03*
X72460000Y-82650000D03*
D29*
X96400000Y-60855000D03*
X96400000Y-59305000D03*
D35*
X87750000Y-88180000D03*
X88390000Y-88180000D03*
D37*
X111500000Y-91560000D03*
X111500000Y-90920000D03*
D38*
X69140000Y-79037500D03*
X69140000Y-77462500D03*
D39*
X140542500Y-63680000D03*
X142117500Y-63680000D03*
D40*
X129060000Y-131712500D03*
X129060000Y-129887500D03*
D33*
X116800000Y-92480000D03*
D35*
X87760000Y-85770000D03*
X88400000Y-85770000D03*
D10*
X141230000Y-83380000D03*
D31*
X73210000Y-84470000D03*
X72570000Y-84470000D03*
D10*
X120722250Y-102810000D03*
X71830000Y-67370000D03*
D33*
X104460000Y-94660000D03*
D27*
X88860000Y-123260000D03*
X88860000Y-123900000D03*
X128290000Y-70030000D03*
X128290000Y-70670000D03*
D31*
X89610000Y-77520000D03*
X88970000Y-77520000D03*
D37*
X128292500Y-60557500D03*
X128292500Y-59917500D03*
D27*
X71710000Y-83480000D03*
X71710000Y-84120000D03*
D41*
X135085000Y-79370000D03*
X133435000Y-79370000D03*
D37*
X135260000Y-76510000D03*
X135260000Y-75870000D03*
D42*
X94185000Y-118582500D03*
X94185000Y-120157500D03*
D43*
X138430000Y-67480000D03*
X138430000Y-73260000D03*
D44*
X136985000Y-67120000D03*
X136985000Y-67920000D03*
D45*
X136985000Y-69120000D03*
X136985000Y-70120000D03*
X136985000Y-70620000D03*
X136985000Y-71620000D03*
D44*
X136985000Y-72820000D03*
X136985000Y-73620000D03*
X136985000Y-73620000D03*
X136985000Y-72820000D03*
D45*
X136985000Y-72120000D03*
X136985000Y-71120000D03*
X136985000Y-69620000D03*
X136985000Y-68620000D03*
D44*
X136985000Y-67920000D03*
X136985000Y-67120000D03*
D46*
X142080000Y-66050000D03*
D47*
X137900000Y-66050000D03*
D46*
X142080000Y-74690000D03*
D47*
X137900000Y-74690000D03*
D48*
X135680000Y-60580000D03*
X135680000Y-59620000D03*
D29*
X121570000Y-93165000D03*
X121570000Y-91615000D03*
D31*
X93270000Y-86610000D03*
X92630000Y-86610000D03*
D36*
X88710000Y-121370000D03*
X90260000Y-121370000D03*
D37*
X68742500Y-88305000D03*
X68742500Y-87665000D03*
D33*
X114660000Y-97580000D03*
D37*
X71810000Y-88400000D03*
X71810000Y-87760000D03*
D31*
X108230000Y-96400000D03*
X107590000Y-96400000D03*
D49*
X70660000Y-77465000D03*
X70660000Y-79015000D03*
D50*
X100365002Y-56179999D03*
X102015002Y-56179999D03*
D10*
X74250000Y-143370000D03*
D51*
X79730000Y-85130000D03*
X79730000Y-84110000D03*
D34*
X95660000Y-121575000D03*
X95660000Y-123225000D03*
D41*
X134855000Y-72530000D03*
X133205000Y-72530000D03*
D31*
X112290000Y-90040000D03*
X111650000Y-90040000D03*
D51*
X73240000Y-80630000D03*
X73240000Y-79610000D03*
D37*
X92860000Y-122120000D03*
X92860000Y-121480000D03*
D35*
X87760000Y-87310000D03*
X88400000Y-87310000D03*
D52*
X62810000Y-130472500D03*
X62810000Y-128747500D03*
D48*
X130092500Y-60747500D03*
X130092500Y-59787500D03*
D53*
X137510000Y-119250000D03*
D54*
X137510000Y-118450000D03*
X137510000Y-117650000D03*
D53*
X137510000Y-116850000D03*
X139310000Y-116850000D03*
D54*
X139310000Y-117650000D03*
X139310000Y-118450000D03*
D53*
X139310000Y-119250000D03*
D37*
X67730000Y-88370000D03*
X67730000Y-87730000D03*
D55*
X50470000Y-122140000D03*
X51490000Y-122140000D03*
D35*
X118000000Y-96450000D03*
X118640000Y-96450000D03*
D56*
X75160000Y-78960000D03*
X75160000Y-76860000D03*
D37*
X115520000Y-90750000D03*
X115520000Y-90110000D03*
D33*
X106500000Y-88320000D03*
D53*
X51650000Y-113620000D03*
D54*
X51650000Y-114420000D03*
X51650000Y-115220000D03*
D53*
X51650000Y-116020000D03*
X49850000Y-116020000D03*
D54*
X49850000Y-115220000D03*
X49850000Y-114420000D03*
D53*
X49850000Y-113620000D03*
D57*
X88600000Y-137887500D03*
X88600000Y-136692500D03*
D27*
X109930000Y-90130000D03*
X109930000Y-90770000D03*
D29*
X83010000Y-79335000D03*
X83010000Y-77785000D03*
D58*
X90745000Y-78195000D03*
X90745000Y-76545000D03*
D27*
X94930000Y-93100000D03*
X94930000Y-93740000D03*
D35*
X116360000Y-96430000D03*
X117000000Y-96430000D03*
D37*
X127310000Y-74008000D03*
X127310000Y-73368000D03*
D33*
X101480000Y-92250000D03*
D35*
X66900000Y-84780000D03*
X67540000Y-84780000D03*
D59*
X75255000Y-56905000D03*
X75255000Y-57865000D03*
D35*
X66822500Y-86585000D03*
X67462500Y-86585000D03*
D41*
X79545000Y-78150000D03*
X77895000Y-78150000D03*
X139480000Y-135960000D03*
X137830000Y-135960000D03*
D29*
X65342500Y-84060000D03*
X65342500Y-82510000D03*
D31*
X86880000Y-87410000D03*
X86240000Y-87410000D03*
D41*
X139480000Y-140510000D03*
X137830000Y-140510000D03*
D27*
X109120000Y-90125000D03*
X109120000Y-90765000D03*
D60*
X81400000Y-80130000D03*
X79850000Y-80130000D03*
D61*
X104987500Y-62850000D03*
X111087500Y-62850000D03*
D37*
X86890000Y-89765000D03*
X86890000Y-89125000D03*
D33*
X105420000Y-95660000D03*
D37*
X106690000Y-96430000D03*
X106690000Y-95790000D03*
X91660000Y-88990000D03*
X91660000Y-88350000D03*
D41*
X137445000Y-63920000D03*
X135795000Y-63920000D03*
D59*
X95780000Y-93340000D03*
X95780000Y-94300000D03*
D31*
X90860000Y-87450000D03*
X90220000Y-87450000D03*
D33*
X112590000Y-85100000D03*
D37*
X92630000Y-117220000D03*
X92630000Y-116580000D03*
D27*
X73142500Y-85510000D03*
X73142500Y-86150000D03*
D30*
X97610000Y-124100000D03*
X98910000Y-124100000D03*
D27*
X71730000Y-82010000D03*
X71730000Y-82650000D03*
D31*
X73262500Y-87485000D03*
X72622500Y-87485000D03*
D62*
X90930000Y-85000000D03*
X91890000Y-85000000D03*
D63*
X86310000Y-90700000D03*
X85350000Y-90700000D03*
D50*
X133485000Y-77810000D03*
X135135000Y-77810000D03*
D53*
X78230000Y-85950000D03*
D54*
X78230000Y-86750000D03*
X78230000Y-87550000D03*
D53*
X78230000Y-88350000D03*
X76430000Y-88350000D03*
D54*
X76430000Y-87550000D03*
X76430000Y-86750000D03*
D53*
X76430000Y-85950000D03*
D31*
X90845000Y-56350000D03*
X90205000Y-56350000D03*
D35*
X91440000Y-121470000D03*
X92080000Y-121470000D03*
D30*
X97610000Y-121500000D03*
X98910000Y-121500000D03*
D41*
X136430000Y-135960000D03*
X134780000Y-135960000D03*
D63*
X87430000Y-84870000D03*
X86470000Y-84870000D03*
D33*
X102780000Y-92390000D03*
D64*
X93040000Y-63820000D03*
X93040000Y-65820000D03*
D29*
X87505000Y-59440000D03*
X87505000Y-57890000D03*
D31*
X86860000Y-85750000D03*
X86220000Y-85750000D03*
X92187500Y-135580000D03*
X91547500Y-135580000D03*
D63*
X128610000Y-72420000D03*
X127650000Y-72420000D03*
D27*
X89320000Y-86640000D03*
X89320000Y-87280000D03*
D58*
X49150000Y-86155000D03*
X49150000Y-84505000D03*
D27*
X90160000Y-123235000D03*
X90160000Y-123875000D03*
D65*
X65940000Y-110582500D03*
X67210000Y-110582500D03*
X68480000Y-110582500D03*
X69750000Y-110582500D03*
X69750000Y-117757500D03*
X68480000Y-117757500D03*
X67210000Y-117757500D03*
X65940000Y-117757500D03*
D66*
X124580000Y-135780160D03*
D67*
X123055000Y-137255160D03*
X123055000Y-134305160D03*
D66*
X64317500Y-128520000D03*
D67*
X65842500Y-127045000D03*
X65842500Y-129995000D03*
D63*
X67150000Y-58360000D03*
X66190000Y-58360000D03*
D33*
X116030000Y-93390000D03*
X105790000Y-86710000D03*
D41*
X133335000Y-75188000D03*
X131685000Y-75188000D03*
D39*
X49252500Y-73410000D03*
X50827500Y-73410000D03*
D49*
X74700000Y-84575000D03*
X74700000Y-86125000D03*
D31*
X113840000Y-90850000D03*
X113200000Y-90850000D03*
D49*
X94060000Y-121650000D03*
X94060000Y-123200000D03*
D31*
X112250000Y-96410000D03*
X111610000Y-96410000D03*
X131150000Y-71460000D03*
X130510000Y-71460000D03*
D27*
X90200000Y-89860000D03*
X90200000Y-90500000D03*
D31*
X90870000Y-86650000D03*
X90230000Y-86650000D03*
D33*
X104500000Y-88210000D03*
D28*
X94955000Y-62615000D03*
X96855000Y-62615000D03*
D35*
X90980000Y-89800000D03*
X91620000Y-89800000D03*
D37*
X88510000Y-89730000D03*
X88510000Y-89090000D03*
D68*
X92285000Y-120320000D03*
X92285000Y-118420000D03*
D33*
X118860000Y-87830000D03*
D30*
X86510000Y-122500000D03*
X85210000Y-122500000D03*
D27*
X69742500Y-82265000D03*
X69742500Y-82905000D03*
D50*
X130545000Y-55490000D03*
X132195000Y-55490000D03*
D37*
X69642500Y-88385000D03*
X69642500Y-87745000D03*
D33*
X113130000Y-101070000D03*
D53*
X51850000Y-118260000D03*
D54*
X51850000Y-119060000D03*
X51850000Y-119860000D03*
D53*
X51850000Y-120660000D03*
X50050000Y-120660000D03*
D54*
X50050000Y-119860000D03*
X50050000Y-119060000D03*
D53*
X50050000Y-118260000D03*
D31*
X90020000Y-85850000D03*
X89380000Y-85850000D03*
D33*
X107650000Y-88910000D03*
D34*
X95660000Y-124635000D03*
X95660000Y-126285000D03*
D69*
X67380000Y-57360000D03*
X66360000Y-57360000D03*
D42*
X64990000Y-87230000D03*
X64990000Y-88805000D03*
D34*
X126172250Y-103680000D03*
X126172250Y-105330000D03*
D52*
X62860000Y-134672500D03*
X62860000Y-132947500D03*
D50*
X134805000Y-140510000D03*
X136455000Y-140510000D03*
D33*
X118030000Y-92330000D03*
D29*
X84590000Y-79335000D03*
X84590000Y-77785000D03*
D69*
X77310000Y-84020000D03*
X76290000Y-84020000D03*
D34*
X86330000Y-138825000D03*
X86330000Y-140475000D03*
D31*
X113860000Y-95650000D03*
X113220000Y-95650000D03*
D37*
X138567500Y-59132500D03*
X138567500Y-58492500D03*
D35*
X89165000Y-122470000D03*
X89805000Y-122470000D03*
D40*
X98840000Y-56100000D03*
X98840000Y-54275000D03*
D27*
X69042500Y-82265000D03*
X69042500Y-82905000D03*
D32*
X51330000Y-67180000D03*
X47180000Y-67180000D03*
D64*
X85580000Y-62600000D03*
X85580000Y-64600000D03*
D31*
X92167500Y-136280000D03*
X91527500Y-136280000D03*
D50*
X78265000Y-82700000D03*
X79915000Y-82700000D03*
D33*
X112250000Y-92420000D03*
D29*
X94820000Y-60885000D03*
X94820000Y-59335000D03*
D33*
X114480000Y-94120000D03*
D31*
X129812500Y-58767500D03*
X129172500Y-58767500D03*
D33*
X111740000Y-98650000D03*
D37*
X128010000Y-73988000D03*
X128010000Y-73348000D03*
X124072250Y-104825000D03*
X124072250Y-104185000D03*
D31*
X86895000Y-88160000D03*
X86255000Y-88160000D03*
D10*
X122660000Y-62130000D03*
D38*
X66550000Y-90827500D03*
X66550000Y-89252500D03*
D33*
X116770000Y-94380000D03*
D27*
X109090000Y-95750000D03*
X109090000Y-96390000D03*
D34*
X49410000Y-89565000D03*
X49410000Y-91215000D03*
D50*
X100365002Y-57779999D03*
X102015002Y-57779999D03*
D35*
X66867500Y-85885000D03*
X67507500Y-85885000D03*
X117940000Y-90070000D03*
X118580000Y-90070000D03*
D31*
X135500000Y-58700000D03*
X134860000Y-58700000D03*
D70*
X92960000Y-125950000D03*
X92960000Y-127250000D03*
D63*
X89440000Y-78470000D03*
X88480000Y-78470000D03*
D39*
X49302500Y-75160000D03*
X50877500Y-75160000D03*
D58*
X49110000Y-82915000D03*
X49110000Y-81265000D03*
D31*
X90760000Y-89050000D03*
X90120000Y-89050000D03*
D60*
X69107500Y-80485000D03*
X67557500Y-80485000D03*
D35*
X90980000Y-85870000D03*
X91620000Y-85870000D03*
D29*
X70355000Y-60870000D03*
X70355000Y-59320000D03*
X89005000Y-59440000D03*
X89005000Y-57890000D03*
D35*
X116420000Y-90040000D03*
X117060000Y-90040000D03*
D63*
X130590000Y-70608000D03*
X129630000Y-70608000D03*
D59*
X83567500Y-56735000D03*
X83567500Y-57695000D03*
D71*
X76630000Y-78100000D03*
X76630000Y-79120000D03*
D29*
X80855000Y-60140000D03*
X80855000Y-58590000D03*
D37*
X86100000Y-89730000D03*
X86100000Y-89090000D03*
D41*
X131855000Y-65120000D03*
X130205000Y-65120000D03*
D48*
X129610000Y-72468000D03*
X129610000Y-71508000D03*
D31*
X139387500Y-57687500D03*
X138747500Y-57687500D03*
D35*
X115580000Y-91510000D03*
X116220000Y-91510000D03*
X66722500Y-82685000D03*
X67362500Y-82685000D03*
D50*
X103445000Y-57660000D03*
X105095000Y-57660000D03*
D28*
X87655000Y-61265000D03*
X89555000Y-61265000D03*
D50*
X127805000Y-57210000D03*
X129455000Y-57210000D03*
D65*
X72380000Y-110512500D03*
X73650000Y-110512500D03*
X74920000Y-110512500D03*
X76190000Y-110512500D03*
X76190000Y-117687500D03*
X74920000Y-117687500D03*
X73650000Y-117687500D03*
X72380000Y-117687500D03*
D63*
X96420000Y-81570000D03*
X95460000Y-81570000D03*
D27*
X75935000Y-126435000D03*
X75935000Y-127075000D03*
D50*
X75235000Y-82730000D03*
X76885000Y-82730000D03*
D36*
X95045000Y-64370000D03*
X96595000Y-64370000D03*
D37*
X133655000Y-60420000D03*
X133655000Y-59780000D03*
D29*
X93785000Y-116845000D03*
X93785000Y-115295000D03*
D37*
X106750000Y-90720000D03*
X106750000Y-90080000D03*
D31*
X90770000Y-88260000D03*
X90130000Y-88260000D03*
D35*
X66322500Y-87985000D03*
X66962500Y-87985000D03*
D50*
X133430000Y-57100000D03*
X135080000Y-57100000D03*
D37*
X87700000Y-89720000D03*
X87700000Y-89080000D03*
D50*
X126205000Y-55660000D03*
X127855000Y-55660000D03*
D63*
X74580000Y-89500000D03*
X73620000Y-89500000D03*
D37*
X89250000Y-89725000D03*
X89250000Y-89085000D03*
D35*
X66920000Y-84030000D03*
X67560000Y-84030000D03*
D41*
X101930000Y-54620000D03*
X100280000Y-54620000D03*
D37*
X112350000Y-95660000D03*
X112350000Y-95020000D03*
D29*
X71855000Y-60870000D03*
X71855000Y-59320000D03*
D27*
X98490002Y-57339999D03*
X98490002Y-57979999D03*
D37*
X129410000Y-74108000D03*
X129410000Y-73468000D03*
D39*
X88075000Y-74910000D03*
X89650000Y-74910000D03*
D33*
X114050000Y-88910000D03*
D63*
X83920000Y-93860000D03*
X82960000Y-93860000D03*
D66*
X124530000Y-140080160D03*
D67*
X123005000Y-141555160D03*
X123005000Y-138605160D03*
D50*
X85665000Y-120430000D03*
X87315000Y-120430000D03*
D66*
X64305000Y-132960000D03*
D67*
X65830000Y-131485000D03*
X65830000Y-134435000D03*
D31*
X91090000Y-144860000D03*
X90450000Y-144860000D03*
D53*
X137330000Y-125260000D03*
D54*
X137330000Y-124460000D03*
X137330000Y-123660000D03*
D53*
X137330000Y-122860000D03*
X139130000Y-122860000D03*
D54*
X139130000Y-123660000D03*
X139130000Y-124460000D03*
D53*
X139130000Y-125260000D03*
D27*
X127602250Y-103225000D03*
X127602250Y-103865000D03*
X127530000Y-69960000D03*
X127530000Y-70600000D03*
D36*
X68095000Y-89500000D03*
X69645000Y-89500000D03*
D49*
X121600000Y-94755000D03*
X121600000Y-96305000D03*
D37*
X107560000Y-95570000D03*
X107560000Y-94930000D03*
X130210000Y-73988000D03*
X130210000Y-73348000D03*
X76530000Y-77230000D03*
X76530000Y-76590000D03*
D60*
X89205000Y-79800000D03*
X87655000Y-79800000D03*
D34*
X94910000Y-138605000D03*
X94910000Y-140255000D03*
D31*
X110670000Y-96430000D03*
X110030000Y-96430000D03*
D36*
X79355000Y-63720000D03*
X80905000Y-63720000D03*
D10*
X113160000Y-142260000D03*
D34*
X97310000Y-54625000D03*
X97310000Y-56275000D03*
D51*
X74380000Y-81470000D03*
X74380000Y-80450000D03*
D10*
X61770000Y-60280000D03*
D31*
X108260000Y-90030000D03*
X107620000Y-90030000D03*
D59*
X90430000Y-57685000D03*
X90430000Y-58645000D03*
D28*
X79270000Y-61970000D03*
X81170000Y-61970000D03*
D31*
X93270000Y-87380000D03*
X92630000Y-87380000D03*
D30*
X86040000Y-125760000D03*
X87340000Y-125760000D03*
M02*
